<svg width="100" height="76" viewBox="0 0 100 76" fill="none" xmlns="http://www.w3.org/2000/svg">
<ellipse cx="50.1506" cy="38.5339" rx="49.6726" ry="37.3787" fill="#FAF6F0"/>
<path d="M56.6959 44.2459C56.9845 43.4956 57.302 42.803 57.6483 42.1681C57.9946 41.5044 58.3842 40.8839 58.8171 40.3067H35.6145V36.7571H58.8171C58.413 36.1799 58.0379 35.5739 57.6916 34.939C57.3453 34.2752 57.0278 33.5682 56.7392 32.8178H60.0291C61.8184 34.9245 63.7808 36.5262 65.9163 37.6228V39.4842C63.7808 40.5231 61.8184 42.1104 60.0291 44.2459H56.6959Z" fill="#F6ECE0"/>
<path d="M99.5056 38.4541C99.5056 58.9747 77.3792 75.6099 50.0848 75.6099C22.7905 75.6099 0.664062 58.9747 0.664062 38.4541C0.664062 17.9335 22.7905 1.29834 50.0848 1.29834C77.3792 1.29834 99.5056 17.9335 99.5056 38.4541Z" stroke="#F6ECE0" stroke-width="0.721471"/>
<path d="M56.6959 44.2459C56.9845 43.4956 57.302 42.803 57.6483 42.1681C57.9946 41.5044 58.3842 40.8839 58.8171 40.3067H35.6145V36.7571H58.8171C58.413 36.1799 58.0379 35.5739 57.6916 34.939C57.3453 34.2752 57.0278 33.5682 56.7392 32.8178H60.0291C61.8184 34.9245 63.7808 36.5262 65.9163 37.6228V39.4842C63.7808 40.5231 61.8184 42.1104 60.0291 44.2459H56.6959Z" stroke="#F6ECE0" stroke-width="0.721471"/>
</svg>
