<svg width="86" height="62" viewBox="0 0 86 62" fill="none" xmlns="http://www.w3.org/2000/svg">
<g id="Frame 500">
<rect x="0.978257" y="0.978257" width="84.0435" height="60.0435" rx="30.0217" fill="#F6F0E0"/>
<rect x="0.978257" y="0.978257" width="84.0435" height="60.0435" rx="30.0217" stroke="#F6F0E0" stroke-width="1.95651"/>
<path id="Arrow 36" d="M57.7071 31.7071C58.0976 31.3166 58.0976 30.6834 57.7071 30.2929L51.3431 23.9289C50.9526 23.5384 50.3195 23.5384 49.9289 23.9289C49.5384 24.3195 49.5384 24.9526 49.9289 25.3431L55.5858 31L49.9289 36.6569C49.5384 37.0474 49.5384 37.6805 49.9289 38.0711C50.3195 38.4616 50.9526 38.4616 51.3431 38.0711L57.7071 31.7071ZM30 32L57 32L57 30L30 30L30 32Z" fill="#1F2522"/>
</g>
</svg>
