<svg width="36" height="31" viewBox="0 0 36 31" fill="none" xmlns="http://www.w3.org/2000/svg">
<path d="M3.32998 13.3962C13.7926 8.51766 27.331 2.56983 29.2005 1.74643C34.1025 -0.408052 35.6068 0.00444126 34.8569 4.77667C34.3181 8.20671 32.7644 19.5614 31.5251 26.6293C30.7901 30.8209 29.1407 31.3174 26.5482 29.504C25.3014 28.6315 19.0074 24.2194 17.6408 23.1834C16.394 22.2394 14.6742 21.1035 16.831 18.8665C17.5989 18.0701 22.6296 12.9774 26.5497 9.01424C27.0631 8.49387 26.418 7.63874 25.8253 8.05599C20.5416 11.77 13.2163 16.9246 12.2838 17.5957C10.8753 18.6095 9.52221 19.0743 7.09441 18.335C5.25934 17.7766 3.46768 17.1102 2.77018 16.8564C0.0834334 15.8791 0.721068 14.613 3.32998 13.3962Z" fill="#FAF6F0" stroke="#FAF6F0" stroke-width="0.573774"/>
</svg>
