<svg
        fill="none"
        height="76"
        viewBox="0 0 101 76"
        width="101"
        xmlns="http://www.w3.org/2000/svg"
>
    <ellipse
            cx="50.3093"
            cy="38.5344"
            fill="#F6ECE0"
            rx="49.6726"
            ry="37.3787"
    />

    <path
            d="M56.8546 44.2464C57.1432 43.4961 57.4607 42.8035 57.807 42.1686C58.1533 41.5048 58.5429 40.8844 58.9757 40.3072H35.7732V36.7576H58.9757C58.5717 36.1804 58.1966 35.5743 57.8502 34.9395C57.5039 34.2757 57.1865 33.5687 56.8979 32.8183H60.1878C61.9771 34.925 63.9395 36.5267 66.075 37.6233V39.4847C63.9395 40.5236 61.9771 42.1109 60.1878 44.2464H56.8546Z"
            fill="#CC8931"
            id="arrow"
    />
    <path
            d="M99.6643 38.4546C99.6643 58.9752 77.5379 75.6104 50.2435 75.6104C22.9492 75.6104 0.822754 58.9752 0.822754 38.4546C0.822754 17.934 22.9492 1.29883 50.2435 1.29883C77.5379 1.29883 99.6643 17.934 99.6643 38.4546Z"
            id="stroke"
            stroke="#CC8931"
            stroke-width="0.721471"
    />
    <path
            d="M56.8546 44.2464C57.1432 43.4961 57.4607 42.8035 57.807 42.1686C58.1533 41.5048 58.5429 40.8844 58.9757 40.3072H35.7732V36.7576H58.9757C58.5717 36.1804 58.1966 35.5743 57.8502 34.9395C57.5039 34.2757 57.1865 33.5687 56.8979 32.8183H60.1878C61.9771 34.925 63.9395 36.5267 66.075 37.6233V39.4847C63.9395 40.5236 61.9771 42.1109 60.1878 44.2464H56.8546Z"
            stroke="#CC8931"
            stroke-width="0.721471"
    />
</svg>