<svg width="165" height="281" viewBox="0 0 165 281" fill="none" xmlns="http://www.w3.org/2000/svg">
<path d="M13.9648 74.5254C16.4714 68.8678 18.8346 63.7474 21.0547 59.1641C23.3105 54.5449 26.0498 49.2633 29.2725 43.3193C32.4951 37.3753 35.6999 32.2907 38.8867 28.0654C42.1094 23.8044 45.529 19.8835 49.1455 16.3027C52.762 12.6862 56.5039 10.2334 60.3711 8.94434C64.2741 7.61947 68.0876 7.56576 71.8115 8.7832C75.3564 9.92904 78.2568 12.1133 80.5127 15.3359C82.8044 18.5586 84.3978 22.6585 85.293 27.6357C86.224 32.5771 86.6895 38.1452 86.6895 44.3398C86.6895 50.5345 86.1344 57.4453 85.0244 65.0723C83.9502 72.6634 82.6074 80.4694 80.9961 88.4902C79.3848 96.5111 77.3617 105.069 74.9268 114.164C72.4919 123.259 69.9674 132.139 67.3535 140.805C64.7754 149.434 61.9466 158.44 58.8672 167.821C67.5326 166.604 78.418 164.921 91.5234 162.772C116.624 95.0609 131.287 43.4984 135.513 8.08496H138.467C134.313 43.5342 119.757 94.9176 94.7998 162.235C102.463 160.91 113.241 158.959 127.134 156.381H129.819C128.136 165.941 126.4 174.983 124.609 183.505C122.819 192.063 120.814 200.674 118.594 209.34C116.374 218.041 114.1 225.919 111.772 232.973C109.445 240.062 106.867 246.669 104.038 252.792C101.245 258.951 98.3805 264.035 95.4443 268.046C92.5081 272.092 89.3213 275.118 85.8838 277.123C82.4463 279.128 78.9372 279.809 75.3564 279.164C73.0648 278.734 70.9701 277.803 69.0723 276.371C67.1745 274.975 65.5632 273.256 64.2383 271.215C62.9134 269.21 61.7497 266.775 60.7471 263.91C59.7803 261.046 58.9925 258.127 58.3838 255.155C57.8109 252.219 57.3633 248.889 57.041 245.165C56.7188 241.441 56.5039 237.932 56.3965 234.638C56.2891 231.379 56.2712 227.781 56.3428 223.842C56.4502 219.939 56.5755 216.501 56.7188 213.529C56.862 210.557 57.0589 207.317 57.3096 203.808L59.834 204.022C58.2227 227.118 58.7061 244.646 61.2842 256.605C63.8981 268.601 68.7321 275.261 75.7861 276.586C82.0882 277.803 88.2292 274.062 94.209 265.36C100.225 256.695 105.936 243.464 111.343 225.668C116.785 207.908 121.87 185.868 126.597 159.55C102.033 164.241 79.1162 168.018 57.8467 170.883L57.6318 171.474L55.8594 171.205C42.6823 172.888 35.9505 173.747 35.6641 173.783L36.6309 170.668C38.6003 170.453 44.9023 169.647 55.5371 168.251C71.2207 121.164 80.3874 84.1755 83.0371 57.2842C85.6868 30.3571 81.6227 15.1032 70.8447 11.5225C63.1462 9.08757 54.8389 13.1875 45.9229 23.8223C37.0068 34.4212 27.1598 51.6982 16.3818 75.6533L13.9648 74.5254Z" fill="black"/>
</svg>
