<svg width="25" height="36" viewBox="0 0 25 36" fill="none" xmlns="http://www.w3.org/2000/svg">
<path fill-rule="evenodd" clip-rule="evenodd" d="M14.8686 20.6573C12.1796 23.8483 7.41309 24.2552 4.22217 21.5663C1.03124 18.8774 0.624287 14.1108 3.3132 10.9199C6.00212 7.729 10.7687 7.32204 13.9596 10.011C17.1505 12.6999 17.5575 17.4664 14.8686 20.6573ZM15.3629 22.3215C12.0646 25.4958 6.83361 25.7285 3.25558 22.7134C-0.568838 19.4906 -1.05659 13.7778 2.16616 9.95333C5.3889 6.12892 11.1018 5.64117 14.9262 8.86391C18.5667 11.9317 19.1837 17.256 16.4547 21.0597C18.7983 22.8357 21.4039 24.9322 24.2707 27.348L24.8948 27.8739L23.7157 29.055L23.1887 28.6128C20.1636 26.0741 17.5777 23.9944 15.4293 22.3716L15.3629 22.3215Z" fill="#1A2E0E"/>
</svg>
