<svg width="143" height="54" viewBox="0 0 143 54" fill="none" xmlns="http://www.w3.org/2000/svg">
<path d="M137.996 38.8696C138.391 38.1298 138.832 37.2747 139.317 36.3044L139.317 36.3031C139.805 35.3177 140.218 34.4009 140.555 33.5532L140.555 33.5518C140.89 32.6991 141.215 31.8064 141.529 30.8738C141.857 29.9302 142.08 29.0513 142.195 28.2382C142.298 27.557 142.35 26.8943 142.35 26.2505V26.236L142.349 26.2215C142.339 26.1092 142.335 26.0029 142.335 25.9025H142.335L142.335 25.8927C142.313 25.1242 142.153 24.4242 141.847 23.7992C141.55 23.1632 141.12 22.6343 140.56 22.2168L140.56 22.2167L140.556 22.2138C139.838 21.6949 139.019 21.4361 138.111 21.4361C136.007 21.4361 133.433 22.8238 130.413 25.4492C127.889 27.6431 125.011 30.7404 121.779 34.7347C123.567 31.1042 125.26 27.7914 126.858 24.7959L127.196 24.1616L126.488 24.2866L125.716 24.4228L125.55 24.4521L125.469 24.6006C123.52 28.1959 120.999 33.2438 117.905 39.7417C117.853 39.8177 117.765 39.9315 117.637 40.0871L117.63 40.0957L117.624 40.1047C117.492 40.287 117.393 40.4276 117.329 40.5241L116.966 41.0682H117.62H118.407H118.582L118.687 40.9282L119.05 40.4439L119.05 40.4436C124.201 33.5598 128.559 28.6685 132.128 25.7497C134.609 23.7207 136.585 22.7664 138.082 22.7566C138.727 22.7568 139.283 22.9323 139.763 23.2778C140.587 23.9084 141.029 24.9169 141.03 26.3845C141.02 27.1093 140.908 27.9403 140.691 28.8799C140.018 31.7397 137.893 35.9642 135.144 40.8959L134.854 41.4163H135.45H136.401H136.606L136.706 41.2372C137.181 40.388 137.611 39.5987 137.996 38.8696ZM137.996 38.8696C137.996 38.8693 137.996 38.8691 137.997 38.8688L137.687 38.7055L137.996 38.8704C137.996 38.8701 137.996 38.8699 137.996 38.8696Z" fill="#F7F2E6" stroke="#F7F2E6" stroke-width="0.7"/>
<path d="M112.913 36.5694L112.692 36.1169L112.345 36.4817C110.974 37.9227 109.733 38.9906 108.62 39.6963C107.505 40.4035 106.545 40.7315 105.728 40.7315C105.244 40.7315 104.806 40.616 104.409 40.387C103.368 39.7499 102.794 38.5163 102.794 36.5414C102.794 35.721 102.892 34.7799 103.091 33.7161C103.788 30.0893 105.629 25.1939 108.631 19.0184L108.875 18.5154H108.316H107.635H107.416L107.32 18.713C103.436 26.7439 101.459 32.7256 101.459 36.617C101.459 38.9628 102.179 40.6407 103.728 41.494L103.73 41.4949C104.357 41.836 105.035 42.0065 105.758 42.0065C107.909 42.0065 110.384 40.4819 113.168 37.6176L113.339 37.4412L113.231 37.2201L112.913 36.5694ZM109.524 12.3047L109.462 12.7027L109.865 12.7079L112.18 12.7382L112.483 12.7421L112.531 12.443L112.879 10.2487L112.943 9.84385H112.533H110.203H109.902L109.857 10.1406L109.524 12.3047Z" fill="#F7F2E6" stroke="#F7F2E6" stroke-width="0.7"/>
<path d="M0.65 14.1359V14.1449L0.650461 14.1539C0.770923 16.4974 2.40423 18.3507 5.34436 19.7488L5.77275 19.9525L5.84102 19.4831L5.96209 18.6507L5.99908 18.3964L5.76757 18.285C3.37425 17.1326 2.23723 15.7151 2.15208 14.0666V14.0663V14.0659V14.0655V14.0651V14.0647V14.0643V14.0639V14.0634V14.063V14.0626V14.0622V14.0618V14.0614V14.061V14.0606V14.0602V14.0598V14.0593V14.0589V14.0585V14.0581V14.0577V14.0573V14.0569V14.0565V14.0561V14.0557V14.0553V14.0549V14.0544V14.054V14.0536V14.0532V14.0528V14.0524V14.052V14.0516V14.0512V14.0508V14.0504V14.05V14.0496V14.0492V14.0487V14.0483V14.0479V14.0475V14.0471V14.0467V14.0463V14.0459V14.0455V14.0451V14.0447V14.0443V14.0439V14.0435V14.0431V14.0427V14.0423V14.0419V14.0415V14.041V14.0406V14.0402V14.0398V14.0394V14.039V14.0386V14.0382V14.0378V14.0374V14.037V14.0366V14.0362V14.0358V14.0354V14.035V14.0346V14.0342V14.0338V14.0334V14.033V14.0326V14.0322V14.0318V14.0314V14.031V14.0306V14.0302V14.0298V14.0294V14.029V14.0286V14.0282V14.0278V14.0274V14.027V14.0266V14.0262V14.0258V14.0254V14.025V14.0246V14.0242V14.0238V14.0234V14.023V14.0226V14.0222V14.0218V14.0214V14.021V14.0206V14.0202V14.0198V14.0194V14.019V14.0186V14.0182V14.0178V14.0174V14.017V14.0166V14.0162V14.0158V14.0154V14.015V14.0146V14.0142V14.0138V14.0134V14.013V14.0126V14.0122V14.0119V14.0115V14.0111V14.0107V14.0103V14.0099V14.0095V14.0091V14.0087V14.0083V14.0079V14.0075V14.0071V14.0067V14.0063V14.0059V14.0055V14.0051V14.0048V14.0044V14.004V14.0036V14.0032V14.0028V14.0024V14.002V14.0016V14.0012V14.0008V14.0004V14V13.9996V13.9993V13.9989V13.9985V13.9981V13.9977V13.9973V13.9969V13.9965V13.9961V13.9957V13.9953V13.9949V13.9946V13.9942V13.9938V13.9934V13.993V13.9926V13.9922V13.9918V13.9914V13.991V13.9907V13.9903V13.9899V13.9895V13.9891V13.9887V13.9883V13.9879V13.9875V13.9872V13.9868V13.9864V13.986V13.9856V13.9852V13.9848V13.9844V13.9841V13.9837V13.9833V13.9829V13.9825V13.9821V13.9817V13.9813V13.981V13.9806V13.9802V13.9798V13.9794V13.979V13.9786V13.9783V13.9779V13.9775V13.9771V13.9767V13.9763V13.9759V13.9756V13.9752V13.9748V13.9744V13.974V13.9736V13.9732V13.9729V13.9725V13.9721V13.9717V13.9713V13.9709V13.9706V13.9702V13.9698V13.9694V13.969V13.9686V13.9683V13.9679V13.9675V13.9671V13.9667V13.9664V13.966V13.9656V13.9652V13.9648V13.9644V13.9641V13.9637V13.9633V13.9629V13.9625V13.9622V13.9618V13.9614V13.961V13.9606V13.9602V13.9599V13.9595V13.9591V13.9587V13.9584V13.958V13.9576V13.9572V13.9568V13.9565V13.9561V13.9557V13.9553V13.9549V13.9546V13.9542V13.9538V13.9534V13.953V13.9527V13.9523V13.9519V13.9515V13.9512V13.9508V13.9504V13.95V13.9496V13.9493V13.9489V13.9485V13.9481V13.9478V13.9474V13.947V13.9466V13.9463V13.9459V13.9455V13.9451V13.9448V13.9444V13.944V13.9436V13.9433V13.9429V13.9425V13.9421V13.9418V13.9414V13.941V13.9406V13.9403V13.9399V13.9395V13.9391V13.9388V13.9384V13.938V13.9376V13.9373V13.9369V13.9365V13.9361V13.9358V13.9354V13.935V13.9347V13.9343V13.9339V13.9335V13.9332V13.9328V13.9324V13.9321V13.9317V13.9313V13.9309V13.9306V13.9302V13.9298V13.9295V13.9291V13.9287V13.9283V13.928V13.9276V13.9272V13.9269V13.9265V13.9261V13.9257V13.9254V13.925V13.9246V13.9243V13.9239V13.9235V13.9232V13.9228V13.9224V13.9221V13.9217V13.9213V13.921V13.9206V13.9202V13.9198V13.9195V13.9191V13.9187V13.9184V13.918V13.9176V13.9173V13.9169V13.9165V13.9162V13.9158V13.9154V13.9151V13.9147V13.9143V13.914V13.9136V13.9132V13.9129V13.9125V13.9121V13.9118V13.9114V13.9111V13.9107V13.9103V13.91V13.9096V13.9092V13.9089V13.9085V13.9081V13.9078V13.9074V13.907V13.9067V13.9063V13.906V13.9056V13.9052V13.9049V13.9045V13.9041V13.9038V13.9034V13.903V13.9027V13.9023V13.902V13.9016V13.9012V13.9009V13.9005V13.9002V13.8998V13.8994V13.8991V13.8987V13.8983V13.898V13.8976V13.8973V13.8969V13.8965V13.8962V13.8958V13.8955V13.8951V13.8947V13.8944V13.894V13.8937V13.8933V13.8929V13.8926V13.8922V13.8919V13.8915V13.8911V13.8908V13.8904V13.8901V13.8897V13.8894V13.889V13.8886V13.8883V13.8879V13.8876V13.8872V13.8869V13.8865V13.8861V13.8858V13.8854V13.8851V13.8847V13.8844V13.884V13.8836V13.8833V13.8829V13.8826V13.8822V13.8819V13.8815V13.8811V13.8808V13.8804V13.8801V13.8797V13.8794V13.879V13.8787C2.15208 12.3067 3.21293 10.8103 5.55277 9.41225C7.97631 7.96802 11.5852 6.72676 16.4032 5.70079L16.4039 5.70064C21.2171 4.66565 27.1942 3.84504 34.3385 3.24045C41.4915 2.63597 49.6551 2.27304 58.83 2.15205L59.1753 2.14749V1.80208V1V0.645018L58.8204 0.650035C55.9635 0.690416 53.1821 0.750989 50.4763 0.831759C47.7691 0.912572 44.8705 1.03882 41.7807 1.21048C38.6901 1.38218 35.7606 1.58926 32.9921 1.83175L32.992 1.83176C30.2322 2.07438 27.4423 2.38774 24.6223 2.77181C21.8011 3.14596 19.2255 3.57094 16.8958 4.047C14.5641 4.52349 12.3724 5.0916 10.321 5.7517C8.26818 6.41226 6.53051 7.1369 5.11264 7.92799C3.69843 8.71257 2.58317 9.62974 1.78081 10.6854C1.03317 11.668 0.65 12.735 0.65 13.8787V13.8792V13.8797V13.8803V13.8808V13.8813V13.8819V13.8824V13.8829V13.8834V13.884V13.8845V13.885V13.8856V13.8861V13.8866V13.8872V13.8877V13.8882V13.8888V13.8893V13.8898V13.8903V13.8909V13.8914V13.8919V13.8925V13.893V13.8935V13.894V13.8946V13.8951V13.8956V13.8962V13.8967V13.8972V13.8977V13.8983V13.8988V13.8993V13.8999V13.9004V13.9009V13.9014V13.902V13.9025V13.903V13.9035V13.9041V13.9046V13.9051V13.9056V13.9062V13.9067V13.9072V13.9078V13.9083V13.9088V13.9093V13.9099V13.9104V13.9109V13.9114V13.912V13.9125V13.913V13.9135V13.9141V13.9146V13.9151V13.9156V13.9161V13.9167V13.9172V13.9177V13.9182V13.9188V13.9193V13.9198V13.9203V13.9209V13.9214V13.9219V13.9224V13.9229V13.9235V13.924V13.9245V13.925V13.9256V13.9261V13.9266V13.9271V13.9276V13.9282V13.9287V13.9292V13.9297V13.9302V13.9308V13.9313V13.9318V13.9323V13.9329V13.9334V13.9339V13.9344V13.9349V13.9354V13.936V13.9365V13.937V13.9375V13.938V13.9386V13.9391V13.9396V13.9401V13.9406V13.9412V13.9417V13.9422V13.9427V13.9432V13.9437V13.9443V13.9448V13.9453V13.9458V13.9463V13.9469V13.9474V13.9479V13.9484V13.9489V13.9494V13.95V13.9505V13.951V13.9515V13.952V13.9525V13.953V13.9536V13.9541V13.9546V13.9551V13.9556V13.9561V13.9567V13.9572V13.9577V13.9582V13.9587V13.9592V13.9597V13.9603V13.9608V13.9613V13.9618V13.9623V13.9628V13.9633V13.9639V13.9644V13.9649V13.9654V13.9659V13.9664V13.9669V13.9674V13.968V13.9685V13.969V13.9695V13.97V13.9705V13.971V13.9715V13.972V13.9726V13.9731V13.9736V13.9741V13.9746V13.9751V13.9756V13.9761V13.9766V13.9772V13.9777V13.9782V13.9787V13.9792V13.9797V13.9802V13.9807V13.9812V13.9817V13.9823V13.9828V13.9833V13.9838V13.9843V13.9848V13.9853V13.9858V13.9863V13.9868V13.9873V13.9878V13.9884V13.9889V13.9894V13.9899V13.9904V13.9909V13.9914V13.9919V13.9924V13.9929V13.9934V13.9939V13.9944V13.9949V13.9954V13.996V13.9965V13.997V13.9975V13.998V13.9985V13.999V13.9995V14V14.0005V14.001V14.0015V14.002V14.0025V14.003V14.0035V14.004V14.0045V14.005V14.0055V14.0061V14.0066V14.0071V14.0076V14.0081V14.0086V14.0091V14.0096V14.0101V14.0106V14.0111V14.0116V14.0121V14.0126V14.0131V14.0136V14.0141V14.0146V14.0151V14.0156V14.0161V14.0166V14.0171V14.0176V14.0181V14.0186V14.0191V14.0196V14.0201V14.0206V14.0211V14.0216V14.0221V14.0226V14.0231V14.0236V14.0241V14.0246V14.0251V14.0256V14.0261V14.0266V14.0271V14.0276V14.0281V14.0286V14.0291V14.0296V14.0301V14.0306V14.0311V14.0316V14.0321V14.0326V14.0331V14.0336V14.0341V14.0346V14.0351V14.0356V14.0361V14.0366V14.0371V14.0376V14.038V14.0385V14.039V14.0395V14.04V14.0405V14.041V14.0415V14.042V14.0425V14.043V14.0435V14.044V14.0445V14.045V14.0455V14.046V14.0465V14.047V14.0475V14.0479V14.0484V14.0489V14.0494V14.0499V14.0504V14.0509V14.0514V14.0519V14.0524V14.0529V14.0534V14.0539V14.0544V14.0549V14.0553V14.0558V14.0563V14.0568V14.0573V14.0578V14.0583V14.0588V14.0593V14.0598V14.0603V14.0608V14.0612V14.0617V14.0622V14.0627V14.0632V14.0637V14.0642V14.0647V14.0652V14.0657V14.0661V14.0666V14.0671V14.0676V14.0681V14.0686V14.0691V14.0696V14.0701V14.0705V14.071V14.0715V14.072V14.0725V14.073V14.0735V14.074V14.0745V14.0749V14.0754V14.0759V14.0764V14.0769V14.0774V14.0779V14.0784V14.0788V14.0793V14.0798V14.0803V14.0808V14.0813V14.0818V14.0822V14.0827V14.0832V14.0837V14.0842V14.0847V14.0852V14.0856V14.0861V14.0866V14.0871V14.0876V14.0881V14.0885V14.089V14.0895V14.09V14.0905V14.091V14.0915V14.0919V14.0924V14.0929V14.0934V14.0939V14.0944V14.0948V14.0953V14.0958V14.0963V14.0968V14.0972V14.0977V14.0982V14.0987V14.0992V14.0997V14.1001V14.1006V14.1011V14.1016V14.1021V14.1025V14.103V14.1035V14.104V14.1045V14.1049V14.1054V14.1059V14.1064V14.1069V14.1074V14.1078V14.1083V14.1088V14.1093V14.1097V14.1102V14.1107V14.1112V14.1117V14.1121V14.1126V14.1131V14.1136V14.1141V14.1145V14.115V14.1155V14.116V14.1164V14.1169V14.1174V14.1179V14.1184V14.1188V14.1193V14.1198V14.1203V14.1207V14.1212V14.1217V14.1222V14.1226V14.1231V14.1236V14.1241V14.1246V14.125V14.1255V14.126V14.1265V14.1269V14.1274V14.1279V14.1284V14.1288V14.1293V14.1298V14.1303V14.1307V14.1312V14.1317V14.1321V14.1326V14.1331V14.1336V14.134V14.1345V14.135V14.1355V14.1359ZM15.8067 51.8426L15.7409 52.1448L16.0326 52.2473L16.7328 52.4934L17.1063 52.6247L17.1908 52.238C18.5124 46.1929 19.5822 40.6707 20.5506 35.6713C21.1782 32.4318 21.7632 29.4118 22.3466 26.6114C23.835 19.4676 25.3179 13.7265 27.4816 9.26429L27.6694 8.87694L27.2519 8.77212L26.2945 8.53179L26.0195 8.46273L25.8949 8.71754C23.6584 13.2925 22.2159 19.1381 20.7941 26.2891C20.2934 28.8075 19.7953 31.4874 19.2662 34.3343C18.2894 39.5896 17.2069 45.414 15.8067 51.8426Z" fill="#F7F2E6" stroke="#F7F2E6" stroke-width="0.7"/>
<path d="M86.6401 38.9845C84.111 41.6252 80.8381 42.5178 76.1147 42.5178C69.2713 42.5178 65.8496 40.2491 65.8496 35.6744C65.8496 34.1124 66.2587 32.8106 66.9654 31.918C68.8994 29.5005 72.0979 29.2774 76.5982 28.9798C83.144 28.5335 86.1938 28.9798 86.1938 27.269C86.1938 26.1904 84.7433 25.3722 82.0282 25.3722C79.0157 25.3722 77.4908 25.8185 77.2304 27.455H67.5976C68.0068 22.0993 72.5442 20.3884 81.9538 20.3884C87.4955 20.3884 91.2147 21.1695 93.1487 22.6572C95.529 24.5168 96.0125 26.8599 96.0125 30.5419V38.6126C96.0125 39.9887 96.1985 40.8442 96.9423 41.402V41.8484H87.2351C86.8632 40.9929 86.6773 40.0259 86.6401 38.9845ZM86.6029 32.104C84.7061 33.0338 82.5117 32.9594 80.0198 33.1826C77.528 33.4057 76.4494 33.7776 76.4494 35.0794C76.4494 36.3811 77.6767 37.1621 79.8711 37.1621C84.0738 37.1621 86.6401 35.3025 86.6401 32.6247C86.6401 32.4387 86.6401 32.2899 86.6029 32.104Z" fill="#F7F2E6"/>
<path d="M63.8751 35.4886C62.499 40.0632 57.3664 42.5551 48.7006 42.5551C39.0678 42.5551 33.8237 38.3896 33.8237 31.3974C33.8237 24.4053 39.0678 20.2397 48.7006 20.2397C58.8169 20.2397 64.061 24.7028 64.061 33.1826V33.5546H43.8284C43.8284 35.7861 45.7624 37.125 49.2585 37.125C51.5644 37.125 53.0893 36.5299 53.7216 35.4886H63.8751ZM43.3449 29.0915H54.4654C54.2051 26.7856 52.3083 25.4467 49.2213 25.4467C45.9112 25.4467 43.8284 26.7112 43.3449 29.0915Z" fill="#F7F2E6"/>
<path d="M31.9344 41.8112C30.3723 42.0715 28.8475 42.2203 27.3226 42.2203C25.091 42.2203 23.2314 41.9599 21.7437 41.3648C19.2519 40.3607 18.8799 38.501 18.8799 35.4885V27.3062H15.5698V21.4298H18.8799V14.5864H28.3268V21.4298H31.6741V27.3062H28.3268V31.6205C28.3268 34.8934 28.3268 36.0464 30.5955 36.0464H31.9344V41.8112Z" fill="#F7F2E6"/>
</svg>
