<svg width="110" height="32" viewBox="0 0 110 32" fill="none" xmlns="http://www.w3.org/2000/svg">
<path d="M66.2074 21.3631C64.2308 23.4269 61.6729 24.1245 57.9814 24.1245C52.633 24.1245 49.9588 22.3514 49.9588 18.7762C49.9588 17.5554 50.2786 16.538 50.8309 15.8404C52.3424 13.951 54.8421 13.7766 58.3592 13.5441C63.4751 13.1953 65.8586 13.5441 65.8586 12.207C65.8586 11.3641 64.7249 10.7246 62.603 10.7246C60.2486 10.7246 59.0569 11.0734 58.8534 12.3523H51.325C51.6447 8.16668 55.1909 6.82959 62.5449 6.82959C66.8759 6.82959 69.7826 7.44 71.2941 8.60268C73.1544 10.056 73.5323 11.8873 73.5323 14.7649V21.0725C73.5323 22.148 73.6776 22.8165 74.259 23.2525V23.6013H66.6724C66.3818 22.9328 66.2364 22.177 66.2074 21.3631ZM66.1783 15.9857C64.6959 16.7124 62.9809 16.6543 61.0334 16.8287C59.0859 17.0031 58.243 17.2938 58.243 18.3111C58.243 19.3285 59.2022 19.9389 60.9171 19.9389C64.2017 19.9389 66.2074 18.4855 66.2074 16.3927C66.2074 16.2473 66.2074 16.1311 66.1783 15.9857Z" fill="#001E08"/>
<path d="M48.2263 18.7471C47.1509 22.3224 43.1396 24.2699 36.367 24.2699C28.8386 24.2699 24.7401 21.0143 24.7401 15.5497C24.7401 10.0851 28.8386 6.82959 36.367 6.82959C44.2732 6.82959 48.3717 10.3176 48.3717 16.945V17.2356H32.5592C32.5592 18.9796 34.0707 20.0261 36.803 20.0261C38.6051 20.0261 39.7969 19.561 40.291 18.7471H48.2263ZM32.1813 13.7476H40.8724C40.6689 11.9454 39.1865 10.899 36.7739 10.899C34.1869 10.899 32.5592 11.8873 32.1813 13.7476Z" fill="#001E08"/>
<path d="M23.1191 23.4747C21.8983 23.6782 20.7065 23.7945 19.5147 23.7945C17.7707 23.7945 16.3174 23.591 15.1547 23.1259C13.2072 22.3411 12.9165 20.8878 12.9165 18.5333V12.1386H10.3295V7.54595H12.9165V2.1976H20.2996V7.54595H22.9156V12.1386H20.2996V15.5103C20.2996 18.0683 20.2996 18.9693 22.0727 18.9693H23.1191V23.4747Z" fill="#001E08"/>
<path d="M82.3825 3.2269L82.7828 0.138916H85.9852L85.5849 3.2269H82.3825Z" fill="#001E08"/>
<path fill-rule="evenodd" clip-rule="evenodd" d="M4.55095 29.2815C2.44107 28.4131 0.801795 27.2781 0 25.8271L1.35139 25.0803C1.90059 26.0742 3.14825 27.0345 5.13859 27.8537C7.10643 28.6636 9.69245 29.2911 12.754 29.6925C18.8735 30.4948 26.7849 30.3804 35.2033 29.104C52.0713 26.5464 70.6754 19.9389 81.0225 6.20753H82.6161C81.821 8.13229 80.459 12.264 79.9378 15.7101C79.6765 17.4379 79.5936 19.0331 79.786 20.2651C79.9824 21.5224 80.4238 22.1825 81.0044 22.4259C82.262 22.9532 83.6145 22.4822 84.9689 21.2045C86.3124 19.9372 87.4801 18.0196 88.2237 16.1605L89.6573 16.7339C88.8569 18.735 87.5799 20.864 86.0284 22.3276C84.4879 23.7808 82.495 24.7251 80.4074 23.8498C79.0748 23.291 78.4846 21.9379 78.2605 20.5034C78.0326 19.0436 78.1406 17.2682 78.4112 15.4792C78.694 13.6093 79.1643 11.6629 79.6681 9.94144C68.6238 21.8788 51.1315 28.2506 35.4347 30.6305C26.9014 31.9243 18.8421 32.0479 12.5533 31.2234C9.41081 30.8114 6.68333 30.1591 4.55095 29.2815Z" fill="#001E08"/>
<path fill-rule="evenodd" clip-rule="evenodd" d="M102.948 5.17569C104.619 4.26746 106.371 3.90437 107.92 4.67895C108.788 5.11263 109.379 5.75782 109.703 6.56308C110.019 7.34891 110.058 8.23053 109.936 9.12445C109.695 10.8974 108.791 12.9313 107.702 14.881C106.604 16.8478 105.274 18.8046 104.115 20.4362C103.65 21.0912 103.219 21.6851 102.84 22.2065C102.514 22.6553 102.106 23.1652 101.764 23.6055H99.8531C100.141 23.1531 101.028 22.0738 101.642 21.2287C102.016 20.7131 102.429 20.1432 102.856 19.542C104.005 17.9248 105.297 16.0216 106.354 14.1284C107.421 12.2182 108.205 10.3921 108.406 8.91617C108.506 8.18569 108.454 7.5957 108.27 7.13911C108.095 6.70194 107.778 6.3339 107.23 6.05994C106.334 5.61222 105.159 5.73165 103.686 6.53227C102.222 7.32751 100.61 8.72381 98.9814 10.5338C95.8468 14.0185 92.7837 19.0318 90.7492 23.5938H89.0729L92.4182 10.8329L93.9105 11.2288L92.3759 17.0131C94.0276 14.2598 95.9118 11.6376 97.8335 9.50125C99.5185 7.62821 101.267 6.08931 102.948 5.17569Z" fill="#001E08"/>
</svg>
