<svg width="113" height="39" viewBox="0 0 113 39" fill="none" xmlns="http://www.w3.org/2000/svg">
<path d="M95.6336 17.7986C94.6622 18.8128 93.4052 19.1556 91.591 19.1556C88.9626 19.1556 87.6484 18.2843 87.6484 16.5273C87.6484 15.9273 87.8056 15.4273 88.077 15.0845C88.8198 14.156 90.0483 14.0703 91.7767 13.956C94.2908 13.7846 95.4622 13.956 95.4622 13.2989C95.4622 12.8847 94.9051 12.5704 93.8623 12.5704C92.7052 12.5704 92.1195 12.7418 92.0196 13.3703H88.3198C88.477 11.3133 90.2197 10.6562 93.8337 10.6562C95.9621 10.6562 97.3906 10.9562 98.1334 11.5276C99.0476 12.2418 99.2333 13.1418 99.2333 14.556V17.6557C99.2333 18.1843 99.3047 18.5128 99.5904 18.7271V18.8985H95.8621C95.7193 18.57 95.6479 18.1986 95.6336 17.7986ZM95.6193 15.1559C94.8908 15.513 94.048 15.4845 93.0909 15.5702C92.1338 15.6559 91.7196 15.7987 91.7196 16.2987C91.7196 16.7987 92.191 17.0986 93.0338 17.0986C94.6479 17.0986 95.6336 16.3844 95.6336 15.3559C95.6336 15.2845 95.6336 15.2273 95.6193 15.1559Z" fill="#1A2E0E"/>
<path d="M58.2617 21.6585V11.0164H61.6758L61.7043 11.7878C62.5757 11.1307 63.6185 10.8164 64.8898 10.8164C67.5753 10.8164 69.3038 12.4877 69.3038 15.0447C69.3038 17.6016 67.5753 19.2587 64.8327 19.2587C63.6899 19.2587 62.7328 18.9872 61.8472 18.4016V21.6585H58.2617ZM61.8472 15.0447C61.8472 16.1303 62.6043 16.816 63.6899 16.816C64.7898 16.816 65.5326 16.1303 65.5326 15.0447C65.5326 13.9448 64.7898 13.2591 63.6899 13.2591C62.6043 13.2591 61.8472 13.9448 61.8472 15.0447Z" fill="#1A2E0E"/>
<path d="M52.784 17.9587C51.8126 18.973 50.5556 19.3158 48.7414 19.3158C46.113 19.3158 44.7988 18.4444 44.7988 16.6874C44.7988 16.0875 44.956 15.5875 45.2274 15.2447C45.9702 14.3162 47.1987 14.2304 48.9271 14.1162C51.4412 13.9448 52.6125 14.1162 52.6125 13.4591C52.6125 13.0448 52.0554 12.7306 51.0127 12.7306C49.8556 12.7306 49.2699 12.902 49.1699 13.5305H45.4702C45.6273 11.4735 47.3701 10.8164 50.9841 10.8164C53.1125 10.8164 54.541 11.1164 55.2838 11.6878C56.198 12.402 56.3837 13.3019 56.3837 14.7161V17.8159C56.3837 18.3444 56.4551 18.673 56.7408 18.8872V19.0587H53.0125C52.8697 18.7301 52.7983 18.3587 52.784 17.9587ZM52.7697 15.3161C52.0412 15.6732 51.1984 15.6446 50.2413 15.7303C49.2842 15.816 48.87 15.9589 48.87 16.4589C48.87 16.9588 49.3414 17.2588 50.1842 17.2588C51.7983 17.2588 52.784 16.5446 52.784 15.5161C52.784 15.4446 52.784 15.3875 52.7697 15.3161Z" fill="#1A2E0E"/>
<path d="M33.709 19.0553V11.0273H40.5228C42.694 11.0273 43.5226 11.7273 43.5226 13.1843C43.5226 13.8986 42.894 14.6842 42.3655 14.8699C43.3511 15.1413 43.9654 15.9127 43.9654 16.7555C43.9654 18.6696 42.5941 19.0553 39.9228 19.0553H33.709ZM37.2944 15.7984V17.0555H39.4943C40.08 17.0555 40.2942 16.8698 40.2942 16.427C40.2942 16.0413 40.08 15.7984 39.4943 15.7984H37.2944ZM37.2944 12.9415V14.0843H39.2086C39.7657 14.0843 39.9228 13.8843 39.9228 13.5129C39.9228 13.1272 39.7657 12.9415 39.2086 12.9415H37.2944Z" fill="#1A2E0E"/>
<path fill-rule="evenodd" clip-rule="evenodd" d="M9.25508 3.26446C8.02331 4.50455 6.70158 6.37502 5.44275 8.72792H4.01973C5.40272 6.03521 6.90805 3.83882 8.36083 2.37622C9.0867 1.64545 9.81985 1.07707 10.5388 0.728982C11.2585 0.380589 12.0084 0.232897 12.7254 0.424264C13.3452 0.589673 13.8523 0.879031 14.2158 1.30877C14.5799 1.73909 14.7576 2.25994 14.8057 2.81346C14.8989 3.88638 14.5133 5.17447 13.9276 6.50631C13.0544 8.49153 11.6289 10.8006 10.1878 13.0474C12.1128 12.0315 13.9469 11.487 15.5523 11.4731C16.692 11.4632 17.7357 11.7214 18.6022 12.2911C19.4726 12.8634 20.1208 13.7217 20.5102 14.8343C20.9307 16.0359 20.7494 17.5317 20.1035 19.1797C19.4525 20.8408 18.2993 22.7363 16.6509 24.7936C13.3523 28.9105 8.01229 33.7474 0.518278 38.7398L0.378906 37.3121C0.568621 37.1857 0.384323 37.3121 0.384323 37.3121C7.50651 32.5046 12.5538 27.8913 15.6672 24.0055C17.2657 22.0105 18.3399 20.2253 18.93 18.7198C19.5251 17.2013 19.5984 16.0447 19.3205 15.2506C19.0114 14.3675 18.5226 13.7472 17.9097 13.3443C17.2929 12.9387 16.507 12.7252 15.5632 12.7334C13.7791 12.7489 11.5024 13.5589 9.02174 15.2102L7.62137 14.7017C7.84292 14.357 8.06727 14.0097 8.29254 13.661C10.007 11.0067 11.7752 8.26936 12.7738 5.99887C13.3434 4.70378 13.6143 3.66249 13.55 2.92259C13.5193 2.56969 13.4147 2.31327 13.2536 2.12285C13.092 1.93184 12.831 1.75697 12.4004 1.64205C12.0671 1.55309 11.6354 1.59843 11.0881 1.86343C10.5401 2.12874 9.92092 2.59412 9.25508 3.26446ZM77.6037 13.994C79.6634 12.1048 81.9329 10.1222 83.8505 9.06228C84.8946 8.48524 85.7115 8.25326 86.2813 8.33667C86.5437 8.37509 86.7592 8.48082 86.9435 8.67162C87.1357 8.87061 87.322 9.19196 87.4607 9.70062L88.6767 9.36898C88.5004 8.72227 88.2309 8.19021 87.85 7.79592C87.4613 7.39345 86.9862 7.16602 86.4639 7.08955C85.4642 6.9432 84.3347 7.35456 83.2408 7.95915C81.0239 9.18447 78.4466 11.4995 76.2976 13.4832C74.9107 14.7634 73.4606 16.3149 72.1279 17.7707C71.8561 18.0675 71.5896 18.3599 71.3297 18.6451C71.1586 18.8329 70.9903 19.0176 70.8251 19.1984L74.1615 10.603H72.8094L68.484 21.7467L69.5143 22.4231C70.2926 21.6545 71.2471 20.6071 72.2746 19.4796C72.5315 19.1976 72.793 18.9107 73.0575 18.6218C74.235 17.3357 75.4799 16.0017 76.6811 14.8525C78.2498 16.5143 80.8378 18.0682 83.8533 19.4345C87.1996 20.9507 91.1594 22.2739 95.0538 23.2713C98.947 24.2683 102.797 24.9454 105.926 25.1598C107.489 25.2669 108.892 25.26 110.039 25.1125C111.158 24.9685 112.144 24.678 112.764 24.1263L111.927 23.1843C111.602 23.4728 110.94 23.7258 109.878 23.8624C108.843 23.9955 107.53 24.0063 106.013 23.9023C102.98 23.6945 99.2082 23.0341 95.3665 22.0502C91.526 21.0667 87.6384 19.7657 84.3735 18.2864C81.3858 16.9327 78.9901 15.4606 77.6037 13.994ZM26.2317 10.5452C25.846 10.8571 25.4923 11.2536 25.2101 11.6931H23.772C24.1598 10.8691 24.7546 10.1187 25.4391 9.56516C26.117 9.01692 26.9344 8.6217 27.7695 8.60225C28.6457 8.58184 29.4595 8.97928 30.0401 9.85051C30.5185 10.5685 30.8287 11.5892 30.9448 12.9399C31.3243 12.887 31.6932 12.8424 32.0462 12.8052L32.1781 14.0587C31.8007 14.0984 31.4043 14.1471 30.9963 14.2056C30.9971 15.5531 30.8445 17.1889 30.4998 19.1557H29.1949C29.5127 17.3419 29.7206 15.6305 29.7347 14.4131C28.0813 14.7215 26.3955 15.1864 25.094 15.8454C23.5699 16.6171 22.7994 17.5278 22.8556 18.58C22.8798 19.0333 23.2293 19.4947 24.2615 19.8853C25.2711 20.2673 26.7308 20.493 28.4982 20.5838C32.0186 20.7648 36.5547 20.4027 40.645 19.8791L40.805 21.1293C36.6898 21.6561 32.0662 22.0293 28.4335 21.8426C26.6244 21.7496 25.0092 21.5158 23.8155 21.0641C22.6445 20.621 21.6625 19.8745 21.597 18.6472C21.4986 16.8036 22.8944 15.5463 24.5247 14.7209C26.0275 13.96 27.925 13.4572 29.6965 13.1387C29.597 11.8627 29.3203 11.0433 28.9912 10.5494C28.6394 10.0215 28.2242 9.85241 27.7988 9.86232C27.3324 9.87318 26.7758 10.1051 26.2317 10.5452Z" fill="#1A2E0E"/>
</svg>
