<svg width="1449" height="828" viewBox="0 0 1449 828" fill="none" xmlns="http://www.w3.org/2000/svg">
<path d="M21.5273 33.1211H724.499V794.467H21.5273V33.1211Z" fill="#2A3C2C"/>
<path d="M160.482 70.7651C160.323 70.0409 160.058 69.3961 159.687 68.8309C159.334 68.248 158.892 67.7622 158.362 67.3736C157.85 66.985 157.276 66.6936 156.64 66.4993C156.022 66.2873 155.368 66.1813 154.679 66.1813C153.425 66.1813 152.348 66.4198 151.447 66.8967C150.546 67.3736 149.804 68.0095 149.221 68.8044C148.656 69.5816 148.232 70.4648 147.949 71.454C147.684 72.4432 147.552 73.4589 147.552 74.501C147.552 75.5256 147.684 76.5412 147.949 77.5481C148.232 78.5373 148.656 79.4293 149.221 80.2242C149.804 81.0014 150.546 81.6285 151.447 82.1054C152.348 82.5823 153.425 82.8208 154.679 82.8208C155.562 82.8208 156.357 82.6618 157.064 82.3439C157.77 82.0259 158.38 81.5931 158.892 81.0456C159.404 80.498 159.819 79.8621 160.137 79.1378C160.455 78.396 160.658 77.6011 160.747 76.7532H162.548C162.425 77.919 162.151 78.97 161.727 79.9062C161.303 80.8424 160.756 81.6373 160.084 82.2909C159.413 82.9444 158.618 83.4479 157.7 83.8011C156.799 84.1544 155.792 84.3311 154.679 84.3311C153.195 84.3311 151.888 84.0661 150.758 83.5362C149.645 82.9886 148.718 82.2644 147.976 81.3635C147.234 80.4626 146.677 79.4205 146.306 78.237C145.935 77.0535 145.75 75.8082 145.75 74.501C145.75 73.1939 145.935 71.9486 146.306 70.7651C146.677 69.5816 147.234 68.5394 147.976 67.6386C148.718 66.7201 149.645 65.9958 150.758 65.4659C151.888 64.9183 153.195 64.6445 154.679 64.6445C155.58 64.6445 156.454 64.777 157.302 65.042C158.168 65.3069 158.945 65.7044 159.634 66.2343C160.34 66.7465 160.923 67.3825 161.383 68.142C161.86 68.9016 162.16 69.7759 162.284 70.7651H160.482Z" fill="#F6F0E0"/>
<path d="M143.187 83.9601H130.973C130.99 83.0416 131.149 82.229 131.45 81.5224C131.75 80.8159 132.147 80.18 132.642 79.6147C133.136 79.0495 133.693 78.5372 134.311 78.078C134.929 77.601 135.565 77.1506 136.219 76.7267C136.872 76.2851 137.517 75.8435 138.153 75.4019C138.807 74.9426 139.39 74.4569 139.902 73.9446C140.414 73.4323 140.794 72.9113 141.041 72.3813C141.306 71.8337 141.439 71.189 141.439 70.4471C141.439 69.8465 141.324 69.3166 141.094 68.8574C140.882 68.3804 140.582 67.983 140.193 67.665C139.822 67.3294 139.381 67.0821 138.868 66.9232C138.374 66.7465 137.844 66.6582 137.279 66.6582C136.519 66.6582 135.866 66.7995 135.318 67.0821C134.788 67.3648 134.355 67.7445 134.02 68.2215C133.684 68.6984 133.437 69.246 133.278 69.8642C133.136 70.4825 133.075 71.136 133.092 71.8249H131.423C131.405 70.8711 131.511 69.9967 131.741 69.2018C131.988 68.3893 132.359 67.6915 132.854 67.1086C133.348 66.5257 133.967 66.0753 134.709 65.7573C135.468 65.4217 136.351 65.2539 137.358 65.2539C138.171 65.2539 138.921 65.3687 139.61 65.5984C140.317 65.8103 140.926 66.1371 141.439 66.5787C141.968 67.0026 142.375 67.5414 142.657 68.195C142.958 68.8485 143.108 69.6081 143.108 70.4736C143.108 71.2508 142.975 71.9574 142.71 72.5933C142.463 73.2292 142.119 73.8121 141.677 74.342C141.253 74.872 140.759 75.3665 140.193 75.8258C139.646 76.2674 139.063 76.6825 138.445 77.0711C138.003 77.3714 137.482 77.707 136.881 78.078C136.281 78.4312 135.698 78.8287 135.133 79.2703C134.585 79.7119 134.099 80.1977 133.675 80.7276C133.251 81.2398 132.986 81.8051 132.88 82.4233H143.187V83.9601Z" fill="#F6F0E0"/>
<path d="M127.103 70.7651C126.944 70.0409 126.679 69.3961 126.308 68.8309C125.955 68.248 125.513 67.7622 124.983 67.3736C124.471 66.985 123.897 66.6936 123.261 66.4993C122.643 66.2873 121.989 66.1813 121.3 66.1813C120.046 66.1813 118.969 66.4198 118.068 66.8967C117.167 67.3736 116.425 68.0095 115.842 68.8044C115.277 69.5816 114.853 70.4648 114.57 71.454C114.305 72.4432 114.173 73.4589 114.173 74.501C114.173 75.5256 114.305 76.5412 114.57 77.5481C114.853 78.5373 115.277 79.4293 115.842 80.2242C116.425 81.0014 117.167 81.6285 118.068 82.1054C118.969 82.5823 120.046 82.8208 121.3 82.8208C122.183 82.8208 122.978 82.6618 123.685 82.3439C124.391 82.0259 125.001 81.5931 125.513 81.0456C126.025 80.498 126.44 79.8621 126.758 79.1378C127.076 78.396 127.28 77.6011 127.368 76.7532H129.17C129.046 77.919 128.772 78.97 128.348 79.9062C127.924 80.8424 127.377 81.6373 126.705 82.2909C126.034 82.9444 125.239 83.4479 124.321 83.8011C123.42 84.1544 122.413 84.3311 121.3 84.3311C119.816 84.3311 118.509 84.0661 117.379 83.5362C116.266 82.9886 115.339 82.2644 114.597 81.3635C113.855 80.4626 113.298 79.4205 112.928 78.237C112.557 77.0535 112.371 75.8082 112.371 74.501C112.371 73.1939 112.557 71.9486 112.928 70.7651C113.298 69.5816 113.855 68.5394 114.597 67.6386C115.339 66.7201 116.266 65.9958 117.379 65.4659C118.509 64.9183 119.816 64.6445 121.3 64.6445C122.201 64.6445 123.075 64.777 123.923 65.042C124.789 65.3069 125.566 65.7044 126.255 66.2343C126.962 66.7465 127.544 67.3825 128.004 68.142C128.481 68.9016 128.781 69.7759 128.905 70.7651H127.103Z" fill="#F6F0E0"/>
<path d="M99.1865 78.0515C99.1512 78.7934 99.2307 79.4646 99.425 80.0652C99.637 80.6657 99.9373 81.178 100.326 81.6019C100.732 82.0259 101.227 82.3615 101.81 82.6088C102.41 82.8384 103.081 82.9532 103.823 82.9532C104.442 82.9532 105.033 82.8649 105.599 82.6883C106.164 82.5116 106.667 82.2467 107.109 81.8934C107.55 81.5401 107.904 81.1073 108.169 80.5951C108.434 80.0828 108.566 79.4999 108.566 78.8464C108.566 78.1751 108.451 77.601 108.222 77.1241C107.992 76.6295 107.674 76.2232 107.268 75.9053C106.862 75.5697 106.385 75.3224 105.837 75.1634C105.307 75.0044 104.733 74.9249 104.115 74.9249H102.711V73.5207H104.115C104.539 73.5207 104.971 73.4588 105.413 73.3352C105.872 73.1939 106.279 72.9907 106.632 72.7258C107.003 72.4432 107.303 72.0899 107.533 71.6659C107.762 71.242 107.877 70.7386 107.877 70.1557C107.877 69.5374 107.771 69.0163 107.559 68.5924C107.347 68.1508 107.056 67.7887 106.685 67.5061C106.314 67.2058 105.881 66.9938 105.387 66.8702C104.91 66.7288 104.389 66.6582 103.823 66.6582C103.134 66.6582 102.525 66.773 101.995 67.0026C101.465 67.2323 101.015 67.5591 100.644 67.983C100.291 68.3893 100.026 68.8839 99.8489 69.4668C99.6723 70.032 99.5928 70.6591 99.6105 71.348H97.9412C97.9412 70.4648 98.0737 69.6522 98.3387 68.9104C98.6213 68.1685 99.0099 67.5326 99.5045 67.0026C100.017 66.4551 100.635 66.0311 101.359 65.7308C102.083 65.4129 102.896 65.2539 103.797 65.2539C104.521 65.2539 105.228 65.3511 105.917 65.5454C106.605 65.722 107.215 66.0046 107.745 66.3932C108.292 66.7642 108.725 67.2499 109.043 67.8505C109.379 68.4334 109.546 69.14 109.546 69.9702C109.546 70.977 109.273 71.8514 108.725 72.5933C108.195 73.3352 107.427 73.8298 106.42 74.0771V74.1301C107.639 74.3244 108.575 74.8366 109.229 75.6668C109.9 76.4794 110.235 77.4951 110.235 78.7139C110.235 79.6324 110.059 80.4449 109.705 81.1515C109.37 81.8404 108.911 82.4233 108.328 82.9002C107.745 83.3772 107.065 83.7305 106.287 83.9601C105.51 84.2074 104.698 84.331 103.85 84.331C102.896 84.331 102.013 84.1897 101.2 83.9071C100.405 83.6245 99.7165 83.2182 99.1335 82.6883C98.5683 82.1584 98.1355 81.5048 97.8352 80.7276C97.5526 79.9504 97.4466 79.0583 97.5173 78.0515H99.1865Z" fill="#F6F0E0"/>
<path d="M84.5358 76.5422H91.9811L88.3247 66.8447L84.5358 76.5422ZM87.3973 65.043H89.411L96.8299 83.9611H94.8957L92.5905 78.079H83.9793L81.7007 83.9611H79.793L87.3973 65.043Z" fill="#F6F0E0"/>
<path d="M78.3982 83.9601H66.1836C66.2013 83.0416 66.3602 82.229 66.6605 81.5224C66.9608 80.8159 67.3582 80.18 67.8528 79.6147C68.3474 79.0495 68.9039 78.5372 69.5221 78.078C70.1403 77.601 70.7762 77.1506 71.4298 76.7267C72.0834 76.2851 72.7281 75.8435 73.364 75.4019C74.0176 74.9426 74.6005 74.4569 75.1127 73.9446C75.625 73.4323 76.0048 72.9113 76.2521 72.3813C76.517 71.8337 76.6495 71.189 76.6495 70.4471C76.6495 69.8465 76.5347 69.3166 76.3051 68.8574C76.0931 68.3804 75.7928 67.983 75.4042 67.665C75.0333 67.3294 74.5917 67.0821 74.0794 66.9232C73.5848 66.7465 73.0549 66.6582 72.4896 66.6582C71.7301 66.6582 71.0765 66.7995 70.5289 67.0821C69.999 67.3648 69.5662 67.7445 69.2306 68.2215C68.895 68.6984 68.6477 69.246 68.4887 69.8642C68.3474 70.4825 68.2856 71.136 68.3033 71.8249H66.634C66.6164 70.8711 66.7223 69.9967 66.952 69.2018C67.1993 68.3893 67.5702 67.6915 68.0648 67.1086C68.5594 66.5257 69.1776 66.0753 69.9195 65.7573C70.6791 65.4217 71.5623 65.2539 72.5691 65.2539C73.3817 65.2539 74.1324 65.3687 74.8213 65.5984C75.5279 65.8103 76.1373 66.1371 76.6495 66.5787C77.1794 67.0026 77.5857 67.5414 77.8683 68.195C78.1686 68.8485 78.3188 69.6081 78.3188 70.4736C78.3188 71.2508 78.1863 71.9574 77.9213 72.5933C77.674 73.2292 77.3296 73.8121 76.888 74.342C76.464 74.872 75.9694 75.3665 75.4042 75.8258C74.8566 76.2674 74.2737 76.6825 73.6555 77.0711C73.2139 77.3714 72.6928 77.707 72.0922 78.078C71.4916 78.4312 70.9087 78.8287 70.3435 79.2703C69.7959 79.7119 69.3101 80.1977 68.8862 80.7276C68.4622 81.2398 68.1973 81.8051 68.0913 82.4233H78.3982V83.9601Z" fill="#F6F0E0"/>
<path d="M56.4148 72.7268L55.8319 76.8602H59.5679L60.1508 72.7268H56.4148ZM63.6747 78.0525H60.7337L59.9123 83.9611H58.5875L59.4089 78.0525H55.673L54.8516 83.9611H53.5268L54.3482 78.0525H51.4336V76.8602H54.5071L55.09 72.7268H52.1755V71.5345H55.249L56.0704 65.6523H57.3952L56.5738 71.5345H60.3098L61.1311 65.6523H62.4559L61.6346 71.5345H64.4166V72.7268H61.4756L60.8927 76.8602H63.6747V78.0525Z" fill="#F6F0E0"/>
<path d="M692.593 760.694C692.593 762.72 693.668 762.472 695.612 762.555V762.968H690.401V761.19C689.16 762.183 687.01 763.258 684.694 763.258C681.675 763.258 679.648 761.728 679.648 758.171C679.648 752.298 686.183 751.265 690.401 749.734V747.046C690.401 744.606 689.491 742.332 687.341 742.332C684.28 742.332 682.006 746.095 680.972 751.016L680.682 750.975L682.543 741.463L682.957 741.505L682.75 744.772L682.833 744.813C684.198 742.538 685.852 741.422 687.796 741.422C690.36 741.422 692.551 743.117 692.551 747.046L692.593 760.694ZM681.882 757.882C681.882 760.528 683.288 762.141 685.562 762.141C687.299 762.141 688.788 761.562 690.401 760.446V750.396C686.679 751.761 681.882 752.216 681.882 757.882Z" fill="#F6F0E0"/>
<path d="M671.385 762.349C674.694 762.473 676.803 757.221 677.217 754.408H677.589C677.093 757.221 676.059 763.217 671.385 763.217C667.498 763.217 663.941 758.461 663.941 752.175C663.941 746.096 667.374 741.588 671.137 741.34C677.423 741.34 677.175 749.528 677.341 751.72H666.547V752.175C666.547 758.048 668.201 762.349 671.385 762.349ZM666.588 750.852H675.108C675.025 747.957 674.694 742.043 671.137 742.167C667.994 742.25 666.878 746.22 666.588 750.852Z" fill="#F6F0E0"/>
<path d="M657.937 738.898L657.978 743.034H661.617V743.613H657.978L658.143 757.715C658.185 760.61 658.888 762.347 660.418 762.347C662.858 762.471 663.975 757.219 664.264 754.407H664.719C664.388 756.971 663.561 763.216 660.004 763.216C657.564 763.216 655.828 761.189 655.786 756.971L655.703 745.309C655.703 743.282 653.801 743.489 652.105 743.448V743.034C654.545 742.993 655.207 743.034 656.365 742.207C657.771 741.214 657.523 738.898 657.606 738.898H657.937Z" fill="#F6F0E0"/>
<path d="M646.841 762.345C644.951 762.345 643.546 761.885 642.626 760.964C641.705 760.019 641.245 758.481 641.245 756.349V746.356H639.246V741.16H641.245V736.363H647.24V741.16H650.22V746.356H647.24V755.15C647.24 755.756 647.337 756.18 647.531 756.422C647.725 756.64 648.028 756.749 648.44 756.749C648.827 756.749 649.227 756.688 649.639 756.567C649.833 756.494 650.026 756.422 650.22 756.349V761.545C649.929 761.715 649.614 761.848 649.275 761.945C648.985 762.066 648.621 762.163 648.185 762.236C647.773 762.309 647.325 762.345 646.841 762.345Z" fill="#F6F0E0"/>
<path d="M630.855 732.766H636.851V761.945H630.855V732.766Z" fill="#F6F0E0"/>
<path d="M617.677 762.345C616.587 762.345 615.642 761.897 614.842 761.001C614.067 760.08 613.68 758.663 613.68 756.749V741.16H619.675V755.15C619.675 756.216 620.015 756.749 620.693 756.749C620.984 756.749 621.214 756.616 621.383 756.349C621.577 756.059 621.674 755.659 621.674 755.15V741.16H627.67V761.945H621.674V760.347L622.255 758.348H621.856C621.686 759.099 621.42 759.765 621.056 760.347C620.741 760.855 620.305 761.316 619.748 761.727C619.215 762.139 618.525 762.345 617.677 762.345Z" fill="#F6F0E0"/>
<path d="M603.464 762.346C600.751 762.346 598.776 761.74 597.541 760.529C596.305 759.294 595.688 757.368 595.688 754.751V741.161C595.688 738.545 596.305 736.631 597.541 735.42C598.776 734.184 600.751 733.566 603.464 733.566C605.886 733.566 607.727 734.172 608.987 735.383C610.247 736.57 610.877 738.23 610.877 740.362C610.877 740.967 610.853 741.561 610.804 742.142C610.756 742.699 610.707 743.208 610.659 743.668C610.586 744.201 610.525 744.698 610.477 745.158H604.881V741.161C604.881 740.458 604.748 739.95 604.481 739.635C604.215 739.32 603.876 739.162 603.464 739.162C603.076 739.162 602.749 739.32 602.483 739.635C602.216 739.95 602.083 740.458 602.083 741.161V754.751C602.083 755.454 602.216 755.963 602.483 756.278C602.749 756.592 603.076 756.75 603.464 756.75C603.876 756.75 604.215 756.592 604.481 756.278C604.748 755.963 604.881 755.454 604.881 754.751V750.354H610.477C610.525 750.839 610.586 751.36 610.659 751.917C610.707 752.402 610.756 752.959 610.804 753.589C610.853 754.194 610.877 754.848 610.877 755.551C610.877 757.658 610.247 759.318 608.987 760.529C607.727 761.74 605.886 762.346 603.464 762.346Z" fill="#F6F0E0"/>
<path d="M724.5 33.1211H1427.47V529.507H724.5V33.1211Z" fill="#F6F0E0"/>
<path fill-rule="evenodd" clip-rule="evenodd" d="M1426.47 34.1211H725.5V528.507H1426.47V34.1211ZM724.5 33.1211V529.507H1427.47V33.1211H724.5Z" fill="#1F2522"/>
<path d="M849.184 65.2539C850.544 65.2539 851.639 65.5542 852.469 66.1548C853.317 66.7377 853.971 67.4884 854.43 68.4069C854.907 69.3255 855.225 70.35 855.384 71.4805C855.56 72.611 855.649 73.715 855.649 74.7925C855.649 75.8876 855.56 77.0005 855.384 78.131C855.225 79.2615 854.907 80.286 854.43 81.2045C853.971 82.123 853.317 82.8737 852.469 83.4567C851.639 84.0396 850.544 84.331 849.184 84.331C847.841 84.331 846.746 84.0396 845.898 83.4567C845.05 82.8737 844.388 82.123 843.911 81.2045C843.452 80.286 843.134 79.2615 842.957 78.131C842.798 77.0005 842.719 75.8965 842.719 74.819C842.719 73.7238 842.798 72.611 842.957 71.4805C843.134 70.35 843.452 69.3255 843.911 68.4069C844.388 67.4884 845.05 66.7377 845.898 66.1548C846.746 65.5542 847.841 65.2539 849.184 65.2539ZM849.184 66.6582C848.124 66.6582 847.276 66.932 846.64 67.4796C846.004 68.0272 845.518 68.7072 845.183 69.5198C844.865 70.3323 844.653 71.2155 844.547 72.1694C844.441 73.1232 844.388 73.9976 844.388 74.7925C844.388 75.605 844.441 76.4882 844.547 77.4421C844.653 78.3783 844.865 79.2615 845.183 80.0917C845.518 80.9042 846.004 81.5843 846.64 82.1319C847.276 82.6794 848.124 82.9532 849.184 82.9532C850.244 82.9532 851.091 82.6794 851.727 82.1319C852.363 81.5843 852.84 80.9042 853.158 80.0917C853.494 79.2615 853.715 78.3783 853.821 77.4421C853.927 76.4882 853.98 75.605 853.98 74.7925C853.98 73.9976 853.927 73.1232 853.821 72.1694C853.715 71.2155 853.494 70.3323 853.158 69.5198C852.84 68.7072 852.363 68.0272 851.727 67.4796C851.091 66.932 850.244 66.6582 849.184 66.6582Z" fill="#1F2522"/>
<path d="M828.02 65.043H841.082V66.5797H829.821V73.4157H840.367V74.9525H829.821V82.4243H841.215V83.9611H828.02V65.043Z" fill="#1F2522"/>
<path d="M818.754 65.2539C820.114 65.2539 821.209 65.5542 822.04 66.1548C822.887 66.7377 823.541 67.4884 824 68.4069C824.477 69.3255 824.795 70.35 824.954 71.4805C825.131 72.611 825.219 73.715 825.219 74.7925C825.219 75.8876 825.131 77.0005 824.954 78.131C824.795 79.2615 824.477 80.286 824 81.2045C823.541 82.123 822.887 82.8737 822.04 83.4567C821.209 84.0396 820.114 84.331 818.754 84.331C817.412 84.331 816.316 84.0396 815.469 83.4567C814.621 82.8737 813.958 82.123 813.481 81.2045C813.022 80.286 812.704 79.2615 812.528 78.131C812.369 77.0005 812.289 75.8965 812.289 74.819C812.289 73.7238 812.369 72.611 812.528 71.4805C812.704 70.35 813.022 69.3255 813.481 68.4069C813.958 67.4884 814.621 66.7377 815.469 66.1548C816.316 65.5542 817.412 65.2539 818.754 65.2539ZM818.754 66.6582C817.694 66.6582 816.846 66.932 816.21 67.4796C815.575 68.0272 815.089 68.7072 814.753 69.5198C814.435 70.3323 814.223 71.2155 814.117 72.1694C814.011 73.1232 813.958 73.9976 813.958 74.7925C813.958 75.605 814.011 76.4882 814.117 77.4421C814.223 78.3783 814.435 79.2615 814.753 80.0917C815.089 80.9042 815.575 81.5843 816.21 82.1319C816.846 82.6794 817.694 82.9532 818.754 82.9532C819.814 82.9532 820.662 82.6794 821.298 82.1319C821.934 81.5843 822.411 80.9042 822.728 80.0917C823.064 79.2615 823.285 78.3783 823.391 77.4421C823.497 76.4882 823.55 75.605 823.55 74.7925C823.55 73.9976 823.497 73.1232 823.391 72.1694C823.285 71.2155 823.064 70.3323 822.728 69.5198C822.411 68.7072 821.934 68.0272 821.298 67.4796C820.662 66.932 819.814 66.6582 818.754 66.6582Z" fill="#1F2522"/>
<path d="M799.062 65.043H811.065V66.5797H800.864V73.4157H809.926V74.9525H800.864V83.9611H799.062V65.043Z" fill="#1F2522"/>
<path d="M794.144 70.1027C794.002 69.0782 793.587 68.248 792.898 67.6121C792.227 66.9761 791.353 66.6582 790.275 66.6582C789.198 66.6582 788.323 66.932 787.652 67.4796C786.981 68.0272 786.46 68.7161 786.089 69.5463C785.718 70.3765 785.471 71.2773 785.347 72.2488C785.223 73.2027 785.161 74.1036 785.161 74.9514H785.214C785.656 74.0329 786.318 73.291 787.202 72.7258C788.102 72.1605 789.083 71.8779 790.143 71.8779C791.079 71.8779 791.918 72.0369 792.66 72.3548C793.419 72.6551 794.064 73.0791 794.594 73.6266C795.124 74.1742 795.53 74.8278 795.813 75.5873C796.113 76.3469 796.263 77.1771 796.263 78.078C796.263 78.9788 796.104 79.8179 795.786 80.5951C795.486 81.3546 795.053 82.017 794.488 82.5823C793.94 83.1299 793.278 83.5626 792.501 83.8806C791.741 84.1809 790.902 84.331 789.984 84.331C788.853 84.331 787.882 84.1632 787.069 83.8276C786.257 83.4743 785.585 82.9091 785.055 82.1319C784.526 81.3546 784.128 80.3478 783.863 79.1113C783.616 77.8572 783.492 76.3204 783.492 74.501C783.492 74.1301 783.51 73.6443 783.545 73.0437C783.598 72.4432 783.704 71.8073 783.863 71.136C784.022 70.4471 784.243 69.7582 784.526 69.0693C784.826 68.3628 785.214 67.7269 785.691 67.1616C786.186 66.5964 786.795 66.1371 787.52 65.7838C788.244 65.4305 789.109 65.2539 790.116 65.2539C791.777 65.2539 793.093 65.6513 794.064 66.4462C795.036 67.2411 795.619 68.4599 795.813 70.1027H794.144ZM790.116 73.2822C789.392 73.2822 788.738 73.4147 788.155 73.6796C787.59 73.9269 787.104 74.2714 786.698 74.713C786.31 75.1546 786.009 75.6757 785.797 76.2762C785.603 76.8592 785.506 77.4951 785.506 78.184C785.506 78.8375 785.594 79.4558 785.771 80.0387C785.947 80.6216 786.221 81.1338 786.592 81.5754C786.981 81.9994 787.467 82.335 788.049 82.5823C788.632 82.8296 789.33 82.9532 790.143 82.9532C790.814 82.9532 791.414 82.8296 791.944 82.5823C792.492 82.3173 792.96 81.9729 793.349 81.5489C793.755 81.1073 794.064 80.5951 794.276 80.0122C794.488 79.4293 794.594 78.8199 794.594 78.184C794.594 77.5127 794.488 76.8768 794.276 76.2762C794.082 75.6757 793.79 75.1546 793.402 74.713C793.031 74.2714 792.563 73.9269 791.997 73.6796C791.45 73.4147 790.823 73.2822 790.116 73.2822Z" fill="#1F2522"/>
<path d="M770.109 65.043H782.112V66.5797H771.911V73.4157H780.973V74.9525H771.911V83.9611H770.109V65.043Z" fill="#1F2522"/>
<path d="M759.387 72.7268L758.805 76.8602H762.541L763.123 72.7268H759.387ZM766.647 78.0525H763.706L762.885 83.9611H761.56L762.382 78.0525H758.646L757.824 83.9611H756.499L757.321 78.0525H754.406V76.8602H757.48L758.063 72.7268H755.148V71.5345H758.222L759.043 65.6523H760.368L759.546 71.5345H763.282L764.104 65.6523H765.429L764.607 71.5345H767.389V72.7268H764.448L763.865 76.8602H766.647V78.0525Z" fill="#1F2522"/>
<path d="M1400.12 496.975C1400.12 499.001 1401.2 498.753 1403.14 498.836V499.25H1397.93V497.471C1396.69 498.464 1394.54 499.539 1392.22 499.539C1389.2 499.539 1387.18 498.009 1387.18 494.452C1387.18 488.58 1393.71 487.546 1397.93 486.016V483.328C1397.93 480.888 1397.02 478.613 1394.87 478.613C1391.81 478.613 1389.53 482.376 1388.5 487.298L1388.21 487.256L1390.07 477.744L1390.48 477.786L1390.28 481.053L1390.36 481.094C1391.72 478.82 1393.38 477.703 1395.32 477.703C1397.89 477.703 1400.08 479.399 1400.08 483.328L1400.12 496.975ZM1389.41 494.163C1389.41 496.81 1390.82 498.422 1393.09 498.422C1394.83 498.422 1396.32 497.843 1397.93 496.727V486.677C1394.21 488.042 1389.41 488.497 1389.41 494.163Z" fill="#1F2522"/>
<path d="M1378.91 498.63C1382.22 498.754 1384.33 493.502 1384.74 490.69H1385.12C1384.62 493.502 1383.59 499.498 1378.91 499.498C1375.03 499.498 1371.47 494.742 1371.47 488.456C1371.47 482.377 1374.9 477.869 1378.66 477.621C1384.95 477.621 1384.7 485.81 1384.87 488.001H1374.07V488.456C1374.07 494.329 1375.73 498.63 1378.91 498.63ZM1374.12 487.133H1382.63C1382.55 484.238 1382.22 478.324 1378.66 478.448C1375.52 478.531 1374.41 482.501 1374.12 487.133Z" fill="#1F2522"/>
<path d="M1365.46 475.18L1365.51 479.315H1369.14V479.894H1365.51L1365.67 493.997C1365.71 496.892 1366.42 498.629 1367.95 498.629C1370.39 498.753 1371.5 493.5 1371.79 490.688H1372.25C1371.92 493.252 1371.09 499.497 1367.53 499.497C1365.09 499.497 1363.35 497.471 1363.31 493.252L1363.23 481.59C1363.23 479.563 1361.33 479.77 1359.63 479.729V479.315C1362.07 479.274 1362.73 479.315 1363.89 478.488C1365.3 477.496 1365.05 475.18 1365.13 475.18H1365.46Z" fill="#1F2522"/>
<path d="M1354.37 498.626C1352.48 498.626 1351.07 498.166 1350.15 497.245C1349.23 496.3 1348.77 494.762 1348.77 492.63V482.637H1346.77V477.441H1348.77V472.645H1354.77V477.441H1357.75V482.637H1354.77V491.431C1354.77 492.037 1354.86 492.461 1355.06 492.703C1355.25 492.921 1355.56 493.03 1355.97 493.03C1356.35 493.03 1356.75 492.97 1357.17 492.848C1357.36 492.776 1357.55 492.703 1357.75 492.63V497.827C1357.46 497.996 1357.14 498.129 1356.8 498.226C1356.51 498.348 1356.15 498.444 1355.71 498.517C1355.3 498.59 1354.85 498.626 1354.37 498.626Z" fill="#1F2522"/>
<path d="M1338.38 469.047H1344.38V498.226H1338.38V469.047Z" fill="#1F2522"/>
<path d="M1325.2 498.626C1324.11 498.626 1323.17 498.178 1322.37 497.282C1321.59 496.361 1321.21 494.944 1321.21 493.03V477.441H1327.2V491.431C1327.2 492.497 1327.54 493.03 1328.22 493.03C1328.51 493.03 1328.74 492.897 1328.91 492.631C1329.1 492.34 1329.2 491.94 1329.2 491.431V477.441H1335.2V498.227H1329.2V496.628L1329.78 494.629H1329.38C1329.21 495.38 1328.95 496.046 1328.58 496.628C1328.27 497.137 1327.83 497.597 1327.28 498.009C1326.74 498.42 1326.05 498.626 1325.2 498.626Z" fill="#1F2522"/>
<path d="M1310.99 498.627C1308.28 498.627 1306.3 498.022 1305.07 496.81C1303.83 495.575 1303.21 493.649 1303.21 491.033V477.442C1303.21 474.826 1303.83 472.912 1305.07 471.701C1306.3 470.465 1308.28 469.848 1310.99 469.848C1313.41 469.848 1315.25 470.453 1316.51 471.665C1317.77 472.852 1318.4 474.511 1318.4 476.643C1318.4 477.248 1318.38 477.842 1318.33 478.423C1318.28 478.981 1318.23 479.489 1318.19 479.95C1318.11 480.483 1318.05 480.979 1318 481.439H1312.41V477.442C1312.41 476.74 1312.28 476.231 1312.01 475.916C1311.74 475.601 1311.4 475.444 1310.99 475.444C1310.6 475.444 1310.28 475.601 1310.01 475.916C1309.74 476.231 1309.61 476.74 1309.61 477.442V491.033C1309.61 491.735 1309.74 492.244 1310.01 492.559C1310.28 492.874 1310.6 493.031 1310.99 493.031C1311.4 493.031 1311.74 492.874 1312.01 492.559C1312.28 492.244 1312.41 491.735 1312.41 491.033V486.636H1318C1318.05 487.12 1318.11 487.641 1318.19 488.198C1318.23 488.683 1318.28 489.24 1318.33 489.87C1318.38 490.475 1318.4 491.13 1318.4 491.832C1318.4 493.94 1317.77 495.599 1316.51 496.81C1315.25 498.022 1313.41 498.627 1310.99 498.627Z" fill="#1F2522"/>
<path d="M724.5 529.504H1074.33V794.464H724.5V529.504Z" fill="#BB8F54"/>
<path d="M856.578 574.329V564.235H856.525L849.53 574.329H856.578ZM848.02 574.118L856.604 561.797H858.115V574.329H860.897V575.734H858.115V580.344H856.578V575.734H848.02V574.118Z" fill="#F6F0E0"/>
<path d="M835.122 575.045C835.14 575.681 835.264 576.264 835.493 576.793C835.741 577.323 836.067 577.783 836.474 578.171C836.88 578.542 837.357 578.834 837.904 579.046C838.452 579.24 839.044 579.337 839.68 579.337C840.404 579.337 841.049 579.205 841.614 578.94C842.179 578.657 842.665 578.286 843.071 577.827C843.477 577.35 843.787 576.811 843.999 576.211C844.21 575.592 844.316 574.948 844.316 574.276C844.316 573.587 844.193 572.952 843.946 572.369C843.716 571.786 843.389 571.282 842.965 570.858C842.559 570.417 842.064 570.072 841.481 569.825C840.899 569.578 840.263 569.454 839.574 569.454C838.726 569.454 837.94 569.648 837.216 570.037C836.491 570.408 835.9 570.947 835.44 571.653H834.01L835.811 562.035H845.085V563.572H836.977L835.785 569.719L835.838 569.772C836.297 569.224 836.88 568.8 837.587 568.5C838.293 568.2 839.017 568.05 839.759 568.05C840.713 568.05 841.57 568.209 842.329 568.527C843.107 568.845 843.76 569.286 844.29 569.851C844.838 570.417 845.253 571.097 845.535 571.892C845.836 572.669 845.986 573.526 845.986 574.462C845.986 575.363 845.818 576.202 845.482 576.979C845.147 577.738 844.687 578.401 844.105 578.966C843.522 579.514 842.833 579.946 842.038 580.264C841.261 580.565 840.43 580.715 839.547 580.715C838.682 580.715 837.878 580.591 837.136 580.344C836.412 580.079 835.776 579.708 835.228 579.231C834.698 578.736 834.275 578.136 833.957 577.429C833.639 576.723 833.471 575.928 833.453 575.045H835.122Z" fill="#F6F0E0"/>
<path d="M820.176 561.426H832.178V562.963H821.978V569.799H831.039V571.335H821.978V580.344H820.176V561.426Z" fill="#F6F0E0"/>
<path d="M810.913 569.718C811.425 569.736 811.92 569.683 812.397 569.559C812.874 569.418 813.289 569.206 813.642 568.923C814.013 568.64 814.304 568.278 814.516 567.837C814.746 567.395 814.861 566.874 814.861 566.274C814.861 565.744 814.755 565.276 814.543 564.869C814.349 564.463 814.075 564.127 813.721 563.862C813.368 563.597 812.953 563.394 812.476 563.253C811.999 563.112 811.478 563.041 810.913 563.041C810.401 563.041 809.906 563.112 809.429 563.253C808.952 563.394 808.528 563.597 808.157 563.862C807.786 564.127 807.486 564.463 807.256 564.869C807.044 565.276 806.938 565.744 806.938 566.274C806.938 566.892 807.053 567.422 807.283 567.863C807.513 568.305 807.813 568.667 808.184 568.95C808.555 569.232 808.979 569.435 809.456 569.559C809.933 569.683 810.418 569.736 810.913 569.718ZM816.53 566.274C816.53 567.28 816.265 568.146 815.735 568.87C815.205 569.577 814.463 570.071 813.509 570.354V570.407C814.728 570.654 815.664 571.193 816.318 572.023C816.972 572.836 817.298 573.878 817.298 575.15C817.298 576.086 817.131 576.907 816.795 577.614C816.459 578.303 816 578.877 815.417 579.336C814.834 579.795 814.154 580.14 813.377 580.369C812.617 580.599 811.796 580.714 810.913 580.714C810.047 580.714 809.226 580.599 808.449 580.369C807.672 580.14 806.991 579.795 806.409 579.336C805.826 578.877 805.366 578.303 805.031 577.614C804.695 576.907 804.527 576.086 804.527 575.15C804.563 573.931 804.907 572.889 805.561 572.023C806.214 571.158 807.124 570.619 808.29 570.407V570.354C807.318 570.054 806.568 569.559 806.038 568.87C805.525 568.164 805.269 567.298 805.269 566.274C805.269 565.479 805.428 564.79 805.746 564.207C806.082 563.624 806.515 563.147 807.044 562.776C807.574 562.387 808.175 562.105 808.846 561.928C809.517 561.734 810.197 561.637 810.886 561.637C811.575 561.637 812.255 561.734 812.927 561.928C813.598 562.105 814.198 562.387 814.728 562.776C815.276 563.147 815.709 563.624 816.027 564.207C816.362 564.79 816.53 565.479 816.53 566.274ZM810.913 579.336C811.566 579.336 812.176 579.257 812.741 579.098C813.324 578.921 813.827 578.665 814.251 578.329C814.675 577.976 815.011 577.534 815.258 577.004C815.506 576.474 815.629 575.856 815.629 575.15C815.629 574.478 815.497 573.896 815.232 573.401C814.984 572.889 814.64 572.465 814.198 572.129C813.774 571.776 813.271 571.52 812.688 571.361C812.123 571.184 811.531 571.105 810.913 571.122C810.277 571.105 809.668 571.175 809.085 571.334C808.519 571.493 808.025 571.749 807.601 572.103C807.177 572.438 806.832 572.862 806.568 573.374C806.32 573.887 806.197 574.478 806.197 575.15C806.197 575.839 806.32 576.448 806.568 576.978C806.815 577.508 807.15 577.949 807.574 578.303C807.998 578.638 808.493 578.894 809.058 579.071C809.641 579.248 810.259 579.336 810.913 579.336Z" fill="#F6F0E0"/>
<path d="M789.583 569.719H795.783C796.507 569.719 797.134 569.64 797.664 569.481C798.194 569.304 798.636 569.074 798.989 568.792C799.342 568.491 799.607 568.147 799.784 567.758C799.961 567.37 800.049 566.955 800.049 566.513C800.049 564.146 798.627 562.963 795.783 562.963H789.583V569.719ZM787.781 561.426H795.783C796.578 561.426 797.337 561.505 798.062 561.664C798.804 561.806 799.448 562.062 799.996 562.433C800.561 562.786 801.012 563.263 801.347 563.863C801.683 564.446 801.851 565.179 801.851 566.063C801.851 566.557 801.771 567.043 801.612 567.52C801.453 567.979 801.224 568.403 800.923 568.792C800.641 569.163 800.296 569.481 799.89 569.746C799.501 570.01 799.06 570.196 798.565 570.302V570.355C799.784 570.514 800.755 571.017 801.48 571.865C802.204 572.695 802.566 573.729 802.566 574.965C802.566 575.266 802.54 575.61 802.487 575.999C802.434 576.37 802.328 576.758 802.169 577.164C802.01 577.553 801.78 577.942 801.48 578.33C801.179 578.719 800.773 579.063 800.261 579.364C799.766 579.646 799.148 579.885 798.406 580.079C797.682 580.256 796.808 580.344 795.783 580.344H787.781V561.426ZM789.583 578.807H795.783C796.454 578.807 797.09 578.754 797.691 578.648C798.291 578.525 798.821 578.313 799.281 578.012C799.74 577.712 800.102 577.315 800.367 576.82C800.632 576.308 800.764 575.672 800.764 574.912C800.764 573.693 800.332 572.784 799.466 572.183C798.618 571.565 797.39 571.256 795.783 571.256H789.583V578.807Z" fill="#F6F0E0"/>
<path d="M771.911 569.719H778.111C778.835 569.719 779.462 569.64 779.992 569.481C780.522 569.304 780.964 569.074 781.317 568.792C781.67 568.491 781.935 568.147 782.112 567.758C782.289 567.37 782.377 566.955 782.377 566.513C782.377 564.146 780.955 562.963 778.111 562.963H771.911V569.719ZM770.109 561.426H778.111C778.906 561.426 779.666 561.505 780.39 561.664C781.132 561.806 781.776 562.062 782.324 562.433C782.889 562.786 783.34 563.263 783.675 563.863C784.011 564.446 784.179 565.179 784.179 566.063C784.179 566.557 784.099 567.043 783.94 567.52C783.781 567.979 783.552 568.403 783.251 568.792C782.969 569.163 782.624 569.481 782.218 569.746C781.829 570.01 781.388 570.196 780.893 570.302V570.355C782.112 570.514 783.084 571.017 783.808 571.865C784.532 572.695 784.894 573.729 784.894 574.965C784.894 575.266 784.868 575.61 784.815 575.999C784.762 576.37 784.656 576.758 784.497 577.164C784.338 577.553 784.108 577.942 783.808 578.33C783.508 578.719 783.101 579.063 782.589 579.364C782.094 579.646 781.476 579.885 780.734 580.079C780.01 580.256 779.136 580.344 778.111 580.344H770.109V561.426ZM771.911 578.807H778.111C778.782 578.807 779.418 578.754 780.019 578.648C780.619 578.525 781.149 578.313 781.609 578.012C782.068 577.712 782.43 577.315 782.695 576.82C782.96 576.308 783.092 575.672 783.092 574.912C783.092 573.693 782.66 572.784 781.794 572.183C780.946 571.565 779.719 571.256 778.111 571.256H771.911V578.807Z" fill="#F6F0E0"/>
<path d="M759.387 569.11L758.805 573.243H762.541L763.123 569.11H759.387ZM766.647 574.435H763.706L762.885 580.344H761.56L762.382 574.435H758.646L757.824 580.344H756.499L757.321 574.435H754.406V573.243H757.48L758.063 569.11H755.148V567.917H758.222L759.043 562.035H760.368L759.546 567.917H763.282L764.104 562.035H765.429L764.607 567.917H767.389V569.11H764.448L763.865 573.243H766.647V574.435Z" fill="#F6F0E0"/>
<path d="M1045.74 763.174C1045.74 765.201 1046.81 764.953 1048.76 765.035V765.449H1043.55V763.67C1042.3 764.663 1040.15 765.738 1037.84 765.738C1034.82 765.738 1032.79 764.208 1032.79 760.652C1032.79 754.779 1039.33 753.745 1043.55 752.215V749.527C1043.55 747.087 1042.64 744.812 1040.49 744.812C1037.42 744.812 1035.15 748.576 1034.12 753.497L1033.83 753.456L1035.69 743.944L1036.1 743.985L1035.89 747.252L1035.98 747.294C1037.34 745.019 1039 743.902 1040.94 743.902C1043.5 743.902 1045.7 745.598 1045.7 749.527L1045.74 763.174ZM1035.03 760.362C1035.03 763.009 1036.43 764.622 1038.71 764.622C1040.44 764.622 1041.93 764.043 1043.55 762.926V752.877C1039.82 754.241 1035.03 754.696 1035.03 760.362Z" fill="#F6F0E0"/>
<path d="M1024.53 764.829C1027.84 764.953 1029.95 759.701 1030.36 756.889H1030.73C1030.24 759.701 1029.2 765.698 1024.53 765.698C1020.64 765.698 1017.09 760.942 1017.09 754.656C1017.09 748.576 1020.52 744.068 1024.28 743.82C1030.57 743.82 1030.32 752.009 1030.49 754.201H1019.69V754.656C1019.69 760.528 1021.35 764.829 1024.53 764.829ZM1019.73 753.332H1028.25C1028.17 750.437 1027.84 744.523 1024.28 744.647C1021.14 744.73 1020.02 748.7 1019.73 753.332Z" fill="#F6F0E0"/>
<path d="M1011.08 741.379L1011.12 745.515H1014.76V746.093H1011.12L1011.29 760.196C1011.33 763.091 1012.03 764.828 1013.56 764.828C1016 764.952 1017.12 759.7 1017.41 756.887H1017.86C1017.53 759.451 1016.71 765.696 1013.15 765.696C1010.71 765.696 1008.97 763.67 1008.93 759.451L1008.85 747.789C1008.85 745.763 1006.95 745.969 1005.25 745.928V745.515C1007.69 745.473 1008.35 745.515 1009.51 744.687C1010.92 743.695 1010.67 741.379 1010.75 741.379H1011.08Z" fill="#F6F0E0"/>
<path d="M999.985 764.825C998.096 764.825 996.691 764.365 995.77 763.444C994.849 762.5 994.389 760.961 994.389 758.83V748.837H992.391V743.64H994.389V738.844H1000.38V743.64H1003.36V748.837H1000.38V757.63C1000.38 758.236 1000.48 758.66 1000.68 758.902C1000.87 759.12 1001.17 759.229 1001.58 759.229C1001.97 759.229 1002.37 759.169 1002.78 759.048C1002.98 758.975 1003.17 758.902 1003.36 758.83V764.026C1003.07 764.195 1002.76 764.329 1002.42 764.426C1002.13 764.547 1001.77 764.644 1001.33 764.716C1000.92 764.789 1000.47 764.825 999.985 764.825Z" fill="#F6F0E0"/>
<path d="M984 735.246H989.996V764.425H984V735.246Z" fill="#F6F0E0"/>
<path d="M970.821 764.826C969.731 764.826 968.786 764.377 967.987 763.481C967.212 762.561 966.824 761.143 966.824 759.23V743.641H972.82V757.631C972.82 758.697 973.159 759.23 973.837 759.23C974.128 759.23 974.358 759.096 974.528 758.83C974.722 758.539 974.819 758.139 974.819 757.631V743.641H980.814V764.426H974.819V762.827L975.4 760.828H975C974.831 761.579 974.564 762.246 974.201 762.827C973.886 763.336 973.45 763.796 972.893 764.208C972.36 764.62 971.669 764.826 970.821 764.826Z" fill="#F6F0E0"/>
<path d="M956.608 764.826C953.895 764.826 951.921 764.221 950.685 763.01C949.45 761.774 948.832 759.848 948.832 757.232V743.641C948.832 741.025 949.45 739.111 950.685 737.9C951.921 736.665 953.895 736.047 956.608 736.047C959.031 736.047 960.872 736.653 962.132 737.864C963.391 739.051 964.021 740.71 964.021 742.842C964.021 743.448 963.997 744.041 963.949 744.623C963.9 745.18 963.852 745.689 963.803 746.149C963.731 746.682 963.67 747.178 963.622 747.639H958.026V743.641C958.026 742.939 957.892 742.43 957.626 742.115C957.359 741.8 957.02 741.643 956.608 741.643C956.221 741.643 955.894 741.8 955.627 742.115C955.361 742.43 955.227 742.939 955.227 743.641V757.232C955.227 757.934 955.361 758.443 955.627 758.758C955.894 759.073 956.221 759.23 956.608 759.23C957.02 759.23 957.359 759.073 957.626 758.758C957.892 758.443 958.026 757.934 958.026 757.232V752.835H963.622C963.67 753.319 963.731 753.84 963.803 754.397C963.852 754.882 963.9 755.439 963.949 756.069C963.997 756.675 964.021 757.329 964.021 758.031C964.021 760.139 963.391 761.798 962.132 763.01C960.872 764.221 959.031 764.826 956.608 764.826Z" fill="#F6F0E0"/>
<path d="M1074.33 529.504H1427.47V794.464H1074.33V529.504Z" fill="#1F2522"/>
<path d="M1204.32 580.343H1192.11C1192.13 579.424 1192.29 578.612 1192.59 577.905C1192.89 577.199 1193.28 576.563 1193.78 575.998C1194.27 575.432 1194.83 574.92 1195.45 574.461C1196.07 573.984 1196.7 573.533 1197.36 573.109C1198.01 572.668 1198.65 572.226 1199.29 571.785C1199.94 571.325 1200.53 570.84 1201.04 570.327C1201.55 569.815 1201.93 569.294 1202.18 568.764C1202.44 568.217 1202.58 567.572 1202.58 566.83C1202.58 566.229 1202.46 565.699 1202.23 565.24C1202.02 564.763 1201.72 564.366 1201.33 564.048C1200.96 563.712 1200.52 563.465 1200.01 563.306C1199.51 563.129 1198.98 563.041 1198.42 563.041C1197.66 563.041 1197 563.182 1196.45 563.465C1195.92 563.748 1195.49 564.127 1195.16 564.604C1194.82 565.081 1194.57 565.629 1194.41 566.247C1194.27 566.865 1194.21 567.519 1194.23 568.208H1192.56C1192.54 567.254 1192.65 566.38 1192.88 565.585C1193.13 564.772 1193.5 564.074 1193.99 563.491C1194.49 562.909 1195.1 562.458 1195.85 562.14C1196.6 561.805 1197.49 561.637 1198.49 561.637C1199.31 561.637 1200.06 561.752 1200.75 561.981C1201.45 562.193 1202.06 562.52 1202.58 562.962C1203.11 563.385 1203.51 563.924 1203.79 564.578C1204.09 565.231 1204.24 565.991 1204.24 566.856C1204.24 567.634 1204.11 568.34 1203.85 568.976C1203.6 569.612 1203.26 570.195 1202.81 570.725C1202.39 571.255 1201.9 571.749 1201.33 572.209C1200.78 572.65 1200.2 573.065 1199.58 573.454C1199.14 573.754 1198.62 574.09 1198.02 574.461C1197.42 574.814 1196.83 575.212 1196.27 575.653C1195.72 576.095 1195.24 576.58 1194.81 577.11C1194.39 577.623 1194.12 578.188 1194.02 578.806H1204.32V580.343Z" fill="#F6F0E0"/>
<path d="M1189.6 580.343H1177.39C1177.4 579.424 1177.56 578.612 1177.86 577.905C1178.16 577.199 1178.56 576.563 1179.06 575.998C1179.55 575.432 1180.11 574.92 1180.73 574.461C1181.34 573.984 1181.98 573.533 1182.63 573.109C1183.29 572.668 1183.93 572.226 1184.57 571.785C1185.22 571.325 1185.8 570.84 1186.32 570.327C1186.83 569.815 1187.21 569.294 1187.46 568.764C1187.72 568.217 1187.85 567.572 1187.85 566.83C1187.85 566.229 1187.74 565.699 1187.51 565.24C1187.3 564.763 1187 564.366 1186.61 564.048C1186.24 563.712 1185.79 563.465 1185.28 563.306C1184.79 563.129 1184.26 563.041 1183.69 563.041C1182.93 563.041 1182.28 563.182 1181.73 563.465C1181.2 563.748 1180.77 564.127 1180.43 564.604C1180.1 565.081 1179.85 565.629 1179.69 566.247C1179.55 566.865 1179.49 567.519 1179.51 568.208H1177.84C1177.82 567.254 1177.93 566.38 1178.16 565.585C1178.4 564.772 1178.77 564.074 1179.27 563.491C1179.76 562.909 1180.38 562.458 1181.12 562.14C1181.88 561.805 1182.77 561.637 1183.77 561.637C1184.58 561.637 1185.34 561.752 1186.02 561.981C1186.73 562.193 1187.34 562.52 1187.85 562.962C1188.38 563.385 1188.79 563.924 1189.07 564.578C1189.37 565.231 1189.52 565.991 1189.52 566.856C1189.52 567.634 1189.39 568.34 1189.12 568.976C1188.88 569.612 1188.53 570.195 1188.09 570.725C1187.67 571.255 1187.17 571.749 1186.61 572.209C1186.06 572.65 1185.48 573.065 1184.86 573.454C1184.42 573.754 1183.9 574.09 1183.3 574.461C1182.69 574.814 1182.11 575.212 1181.55 575.653C1181 576.095 1180.51 576.58 1180.09 577.11C1179.67 577.623 1179.4 578.188 1179.29 578.806H1189.6V580.343Z" fill="#F6F0E0"/>
<path d="M1164.33 575.045C1164.35 575.681 1164.47 576.264 1164.7 576.793C1164.95 577.323 1165.28 577.783 1165.68 578.171C1166.09 578.542 1166.57 578.834 1167.12 579.046C1167.66 579.24 1168.25 579.337 1168.89 579.337C1169.61 579.337 1170.26 579.205 1170.82 578.94C1171.39 578.657 1171.88 578.286 1172.28 577.827C1172.69 577.35 1173 576.811 1173.21 576.211C1173.42 575.592 1173.53 574.948 1173.53 574.276C1173.53 573.587 1173.4 572.952 1173.16 572.369C1172.93 571.786 1172.6 571.282 1172.18 570.858C1171.77 570.417 1171.28 570.072 1170.69 569.825C1170.11 569.578 1169.47 569.454 1168.78 569.454C1167.94 569.454 1167.15 569.648 1166.43 570.037C1165.7 570.408 1165.11 570.947 1164.65 571.653H1163.22L1165.02 562.035H1174.3V563.572H1166.19L1165 569.719L1165.05 569.772C1165.51 569.224 1166.09 568.8 1166.8 568.5C1167.5 568.2 1168.23 568.05 1168.97 568.05C1169.92 568.05 1170.78 568.209 1171.54 568.527C1172.32 568.845 1172.97 569.286 1173.5 569.851C1174.05 570.417 1174.46 571.097 1174.75 571.892C1175.05 572.669 1175.2 573.526 1175.2 574.462C1175.2 575.363 1175.03 576.202 1174.69 576.979C1174.36 577.738 1173.9 578.401 1173.32 578.966C1172.73 579.514 1172.04 579.946 1171.25 580.264C1170.47 580.565 1169.64 580.715 1168.76 580.715C1167.89 580.715 1167.09 580.591 1166.35 580.344C1165.62 580.079 1164.99 579.708 1164.44 579.231C1163.91 578.736 1163.49 578.136 1163.17 577.429C1162.85 576.723 1162.68 575.928 1162.66 575.045H1164.33Z" fill="#F6F0E0"/>
<path d="M1160.16 580.343H1147.94C1147.96 579.424 1148.12 578.612 1148.42 577.905C1148.72 577.199 1149.12 576.563 1149.61 575.998C1150.11 575.432 1150.66 574.92 1151.28 574.461C1151.9 573.984 1152.53 573.533 1153.19 573.109C1153.84 572.668 1154.49 572.226 1155.12 571.785C1155.78 571.325 1156.36 570.84 1156.87 570.327C1157.38 569.815 1157.76 569.294 1158.01 568.764C1158.27 568.217 1158.41 567.572 1158.41 566.83C1158.41 566.229 1158.29 565.699 1158.06 565.24C1157.85 564.763 1157.55 564.366 1157.16 564.048C1156.79 563.712 1156.35 563.465 1155.84 563.306C1155.34 563.129 1154.81 563.041 1154.25 563.041C1153.49 563.041 1152.83 563.182 1152.29 563.465C1151.76 563.748 1151.32 564.127 1150.99 564.604C1150.65 565.081 1150.41 565.629 1150.25 566.247C1150.11 566.865 1150.04 567.519 1150.06 568.208H1148.39C1148.37 567.254 1148.48 566.38 1148.71 565.585C1148.96 564.772 1149.33 564.074 1149.82 563.491C1150.32 562.909 1150.94 562.458 1151.68 562.14C1152.44 561.805 1153.32 561.637 1154.33 561.637C1155.14 561.637 1155.89 561.752 1156.58 561.981C1157.29 562.193 1157.9 562.52 1158.41 562.962C1158.94 563.385 1159.34 563.924 1159.63 564.578C1159.93 565.231 1160.08 565.991 1160.08 566.856C1160.08 567.634 1159.94 568.34 1159.68 568.976C1159.43 569.612 1159.09 570.195 1158.65 570.725C1158.22 571.255 1157.73 571.749 1157.16 572.209C1156.61 572.65 1156.03 573.065 1155.41 573.454C1154.97 573.754 1154.45 574.09 1153.85 574.461C1153.25 574.814 1152.67 575.212 1152.1 575.653C1151.55 576.095 1151.07 576.58 1150.64 577.11C1150.22 577.623 1149.96 578.188 1149.85 578.806H1160.16V580.343Z" fill="#F6F0E0"/>
<path d="M1134.66 561.426H1146.67V562.963H1136.47V569.799H1145.53V571.335H1136.47V580.344H1134.66V561.426Z" fill="#F6F0E0"/>
<path d="M1120.61 565.374C1121.33 565.356 1121.98 565.321 1122.57 565.268C1123.17 565.197 1123.68 565.047 1124.1 564.817C1124.54 564.588 1124.91 564.243 1125.19 563.784C1125.49 563.307 1125.7 562.645 1125.83 561.797H1127.18V580.344H1125.51V566.566H1120.61V565.374Z" fill="#F6F0E0"/>
<path d="M1109.22 569.11L1108.64 573.243H1112.37L1112.96 569.11H1109.22ZM1116.48 574.435H1113.54L1112.72 580.344H1111.39L1112.21 574.435H1108.48L1107.66 580.344H1106.33L1107.15 574.435H1104.24V573.243H1107.31L1107.89 569.11H1104.98V567.917H1108.05L1108.88 562.035H1110.2L1109.38 567.917H1113.11L1113.94 562.035H1115.26L1114.44 567.917H1117.22V569.11H1114.28L1113.7 573.243H1116.48V574.435Z" fill="#F6F0E0"/>
<path d="M1395.57 763.174C1395.57 765.201 1396.64 764.953 1398.59 765.035V765.449H1393.38V763.67C1392.14 764.663 1389.99 765.738 1387.67 765.738C1384.65 765.738 1382.62 764.208 1382.62 760.652C1382.62 754.779 1389.16 753.745 1393.38 752.215V749.527C1393.38 747.087 1392.47 744.812 1390.32 744.812C1387.26 744.812 1384.98 748.576 1383.95 753.497L1383.66 753.456L1385.52 743.944L1385.93 743.985L1385.73 747.252L1385.81 747.294C1387.17 745.019 1388.83 743.902 1390.77 743.902C1393.34 743.902 1395.53 745.598 1395.53 749.527L1395.57 763.174ZM1384.86 760.362C1384.86 763.009 1386.26 764.622 1388.54 764.622C1390.28 764.622 1391.76 764.043 1393.38 762.926V752.877C1389.66 754.241 1384.86 754.696 1384.86 760.362Z" fill="#F6F0E0"/>
<path d="M1374.36 764.829C1377.67 764.953 1379.78 759.701 1380.19 756.889H1380.57C1380.07 759.701 1379.04 765.698 1374.36 765.698C1370.47 765.698 1366.92 760.942 1366.92 754.656C1366.92 748.576 1370.35 744.068 1374.11 743.82C1380.4 743.82 1380.15 752.009 1380.32 754.201H1369.52V754.656C1369.52 760.528 1371.18 764.829 1374.36 764.829ZM1369.56 753.332H1378.08C1378 750.437 1377.67 744.523 1374.11 744.647C1370.97 744.73 1369.85 748.7 1369.56 753.332Z" fill="#F6F0E0"/>
<path d="M1360.91 741.379L1360.95 745.515H1364.59V746.093H1360.95L1361.12 760.196C1361.16 763.091 1361.86 764.828 1363.39 764.828C1365.83 764.952 1366.95 759.7 1367.24 756.887H1367.7C1367.36 759.451 1366.54 765.696 1362.98 765.696C1360.54 765.696 1358.8 763.67 1358.76 759.451L1358.68 747.789C1358.68 745.763 1356.78 745.969 1355.08 745.928V745.515C1357.52 745.473 1358.18 745.515 1359.34 744.687C1360.75 743.695 1360.5 741.379 1360.58 741.379H1360.91Z" fill="#F6F0E0"/>
<path d="M1349.82 764.825C1347.93 764.825 1346.52 764.365 1345.6 763.444C1344.68 762.5 1344.22 760.961 1344.22 758.83V748.837H1342.22V743.64H1344.22V738.844H1350.22V743.64H1353.2V748.837H1350.22V757.63C1350.22 758.236 1350.31 758.66 1350.51 758.902C1350.7 759.12 1351 759.229 1351.42 759.229C1351.8 759.229 1352.2 759.169 1352.62 759.048C1352.81 758.975 1353 758.902 1353.2 758.83V764.026C1352.91 764.195 1352.59 764.329 1352.25 764.426C1351.96 764.547 1351.6 764.644 1351.16 764.716C1350.75 764.789 1350.3 764.825 1349.82 764.825Z" fill="#F6F0E0"/>
<path d="M1333.83 735.246H1339.83V764.425H1333.83V735.246Z" fill="#F6F0E0"/>
<path d="M1320.65 764.826C1319.56 764.826 1318.62 764.377 1317.82 763.481C1317.04 762.561 1316.66 761.143 1316.66 759.23V743.641H1322.65V757.631C1322.65 758.697 1322.99 759.23 1323.67 759.23C1323.96 759.23 1324.19 759.096 1324.36 758.83C1324.55 758.539 1324.65 758.139 1324.65 757.631V743.641H1330.65V764.426H1324.65V762.827L1325.23 760.828H1324.83C1324.66 761.579 1324.4 762.246 1324.03 762.827C1323.72 763.336 1323.28 763.796 1322.72 764.208C1322.19 764.62 1321.5 764.826 1320.65 764.826Z" fill="#F6F0E0"/>
<path d="M1306.44 764.826C1303.73 764.826 1301.75 764.221 1300.52 763.01C1299.28 761.774 1298.66 759.848 1298.66 757.232V743.641C1298.66 741.025 1299.28 739.111 1300.52 737.9C1301.75 736.665 1303.73 736.047 1306.44 736.047C1308.86 736.047 1310.7 736.653 1311.96 737.864C1313.22 739.051 1313.85 740.71 1313.85 742.842C1313.85 743.448 1313.83 744.041 1313.78 744.623C1313.73 745.18 1313.68 745.689 1313.64 746.149C1313.56 746.682 1313.5 747.178 1313.45 747.639H1307.86V743.641C1307.86 742.939 1307.72 742.43 1307.46 742.115C1307.19 741.8 1306.85 741.643 1306.44 741.643C1306.05 741.643 1305.73 741.8 1305.46 742.115C1305.19 742.43 1305.06 742.939 1305.06 743.641V757.232C1305.06 757.934 1305.19 758.443 1305.46 758.758C1305.73 759.073 1306.05 759.23 1306.44 759.23C1306.85 759.23 1307.19 759.073 1307.46 758.758C1307.72 758.443 1307.86 757.934 1307.86 757.232V752.835H1313.45C1313.5 753.319 1313.56 753.84 1313.64 754.397C1313.68 754.882 1313.73 755.439 1313.78 756.069C1313.83 756.675 1313.85 757.329 1313.85 758.031C1313.85 760.139 1313.22 761.798 1311.96 763.01C1310.7 764.221 1308.86 764.826 1306.44 764.826Z" fill="#F6F0E0"/>
</svg>
