<svg width="180" height="119" viewBox="0 0 180 119" fill="none" xmlns="http://www.w3.org/2000/svg">
<path d="M179.588 59.2045C179.588 75.3815 169.622 90.0766 153.406 100.746C137.193 111.412 114.772 118.023 89.9873 118.023C65.2026 118.023 42.782 111.412 26.569 100.746C10.3529 90.0766 0.386399 75.3815 0.386399 59.2045C0.386399 43.0274 10.3529 28.3323 26.569 17.6634C42.782 6.99656 65.2026 0.386399 89.9873 0.386399C114.772 0.386399 137.193 6.99656 153.406 17.6634C169.622 28.3323 179.588 43.0274 179.588 59.2045Z" fill="#FCF6EE" stroke="#E19026" stroke-width="0.772797"/>
<path d="M45.3334 55.4889H43.3859V53.7733H45.117C46.0134 53.7733 46.6626 53.3714 46.6626 52.8305C46.6626 52.4132 46.0753 52.0731 45.2252 52.0731C44.3442 52.0731 43.8342 52.2741 43.6796 52.6914H39.7538C39.9393 51.7331 40.5575 51.0531 41.624 50.6203C42.5204 50.2803 43.7878 50.1102 45.4261 50.1102C47.5745 50.1102 50.5111 50.5121 50.5575 52.4441C50.5884 53.5569 49.9856 54.3452 48.5637 54.5306C50.2947 54.8398 51.083 55.628 51.083 56.849C51.083 57.5445 50.6193 58.1473 49.9393 58.5492C48.981 59.152 46.4308 59.3065 45.2561 59.3065C43.5714 59.3065 41.9331 59.1674 40.9593 58.7965C39.7229 58.3173 39.2901 57.39 39.2901 56.3699H43.2005C43.2005 56.9109 44.1742 57.3591 45.1634 57.3591C46.3071 57.3591 47.0335 57.0036 47.0335 56.3699C47.0335 55.6898 46.3689 55.4889 45.3334 55.4889ZM60.5925 57.8382C59.5415 58.9356 58.1814 59.3065 56.2185 59.3065C53.3746 59.3065 51.9526 58.3637 51.9526 56.4626C51.9526 55.8135 52.1226 55.2725 52.4163 54.9016C53.22 53.8969 54.5492 53.8042 56.4194 53.6806C59.1396 53.4951 60.407 53.6806 60.407 52.9696C60.407 52.5214 59.8042 52.1813 58.676 52.1813C57.424 52.1813 56.7903 52.3668 56.6821 53.0469H52.6791C52.8491 50.8212 54.7347 50.1102 58.6451 50.1102C60.948 50.1102 62.4936 50.4348 63.2973 51.0531C64.2865 51.8258 64.4874 52.7996 64.4874 54.3297V57.6837C64.4874 58.2555 64.5647 58.611 64.8738 58.8428V59.0283H60.8398C60.6852 58.6728 60.608 58.271 60.5925 57.8382ZM60.577 54.9789C59.7888 55.3653 58.8769 55.3343 57.8413 55.4271C56.8058 55.5198 56.3576 55.6744 56.3576 56.2153C56.3576 56.7563 56.8676 57.0809 57.7795 57.0809C59.526 57.0809 60.5925 56.3081 60.5925 55.1952C60.5925 55.118 60.5925 55.0561 60.577 54.9789ZM66.4894 59.0283V50.3421H73.8619C76.2112 50.3421 77.1077 51.0994 77.1077 52.6759C77.1077 53.4487 76.4276 54.2988 75.8557 54.4997C76.9222 54.7934 77.5868 55.628 77.5868 56.5399C77.5868 58.611 76.103 59.0283 73.2128 59.0283H66.4894ZM70.3689 55.5044V56.8645H72.7491C73.3828 56.8645 73.6146 56.6636 73.6146 56.1844C73.6146 55.7671 73.3828 55.5044 72.7491 55.5044H70.3689ZM70.3689 52.4132V53.6497H72.44C73.0428 53.6497 73.2128 53.4333 73.2128 53.0314C73.2128 52.6141 73.0428 52.4132 72.44 52.4132H70.3689ZM87.1272 57.8382C86.0762 58.9356 84.7161 59.3065 82.7532 59.3065C79.9093 59.3065 78.4873 58.3637 78.4873 56.4626C78.4873 55.8135 78.6574 55.2725 78.951 54.9016C79.7547 53.8969 81.0839 53.8042 82.9541 53.6806C85.6744 53.4951 86.9418 53.6806 86.9418 52.9696C86.9418 52.5214 86.339 52.1813 85.2107 52.1813C83.9588 52.1813 83.3251 52.3668 83.2169 53.0469H79.2138C79.3838 50.8212 81.2694 50.1102 85.1798 50.1102C87.4827 50.1102 89.0283 50.4348 89.832 51.0531C90.8212 51.8258 91.0221 52.7996 91.0221 54.3297V57.6837C91.0221 58.2555 91.0994 58.611 91.4085 58.8428V59.0283H87.3745C87.22 58.6728 87.1427 58.271 87.1272 57.8382ZM87.1118 54.9789C86.3235 55.3653 85.4116 55.3343 84.3761 55.4271C83.3405 55.5198 82.8923 55.6744 82.8923 56.2153C82.8923 56.7563 83.4023 57.0809 84.3142 57.0809C86.0608 57.0809 87.1272 56.3081 87.1272 55.1952C87.1272 55.118 87.1272 55.0561 87.1118 54.9789ZM93.0551 61.8413V50.3266H96.749L96.7799 51.1612C97.7228 50.4503 98.851 50.1102 100.227 50.1102C103.132 50.1102 105.003 51.9186 105.003 54.6852C105.003 57.4518 103.132 59.2447 100.165 59.2447C98.9283 59.2447 97.8928 58.951 96.9345 58.3173V61.8413H93.0551ZM96.9345 54.6852C96.9345 55.8599 97.7537 56.6017 98.9283 56.6017C100.118 56.6017 100.922 55.8599 100.922 54.6852C100.922 53.4951 100.118 52.7532 98.9283 52.7532C97.7537 52.7532 96.9345 53.4951 96.9345 54.6852ZM106.194 59.0283V50.3421H110.073V53.016L109.949 55.0871L113.334 50.3421H117.801V59.0283H113.922V56.3544L114.092 53.9742L110.614 59.0283H106.194ZM121.832 59.0283V53.0932H118.586V50.3421H128.973V53.0932H125.727V59.0283H121.832ZM130.126 59.0283V50.3421H134.021V53.3405H136.741C139.724 53.3405 141.022 54.237 141.022 56.0762C141.022 58.1937 139.631 59.0283 136.741 59.0283H130.126ZM134.021 55.4116V56.8645H136.046C136.803 56.8645 137.019 56.6326 137.019 56.1226C137.019 55.6744 136.787 55.4116 136.015 55.4116H134.021ZM75.3773 68.3421V77.0283H71.4824V73.9062C70.5396 74.2772 69.7977 74.3544 68.4994 74.3544C65.9028 74.3544 64.8208 73.0407 64.8208 70.2895V68.3421H68.7157V69.7795C68.7157 70.985 69.0094 71.4951 70.1068 71.4951C70.7096 71.4951 71.1269 71.4178 71.4824 71.2323V68.3421H75.3773ZM85.3537 75.8382C84.3027 76.9356 82.9426 77.3065 80.9797 77.3065C78.1358 77.3065 76.7138 76.3637 76.7138 74.4626C76.7138 73.8135 76.8839 73.2725 77.1775 72.9016C77.9812 71.8969 79.3104 71.8042 81.1806 71.6806C83.9009 71.4951 85.1682 71.6806 85.1682 70.9696C85.1682 70.5214 84.5655 70.1813 83.4372 70.1813C82.1852 70.1813 81.5516 70.3668 81.4434 71.0469H77.4403C77.6103 68.8212 79.4959 68.1102 83.4063 68.1102C85.7092 68.1102 87.2548 68.4348 88.0585 69.0531C89.0477 69.8258 89.2486 70.7996 89.2486 72.3297V75.6837C89.2486 76.2555 89.3259 76.611 89.635 76.8428V77.0283H85.601C85.4464 76.6728 85.3692 76.271 85.3537 75.8382ZM85.3383 72.9789C84.55 73.3653 83.6381 73.3343 82.6026 73.4271C81.567 73.5198 81.1188 73.6744 81.1188 74.2153C81.1188 74.7563 81.6288 75.0809 82.5407 75.0809C84.2873 75.0809 85.3537 74.3081 85.3537 73.1952C85.3537 73.118 85.3537 73.0561 85.3383 72.9789ZM103.183 74.3699C102.611 76.2864 100.478 77.322 96.8766 77.322C92.8735 77.322 90.6942 75.5755 90.6942 72.6852C90.6942 69.7795 92.8735 68.033 96.8766 68.033C101.081 68.033 103.26 69.9031 103.26 73.4271V73.5816H94.8519C94.8519 74.4935 95.6556 75.05 97.1084 75.05C98.0667 75.05 98.7004 74.8027 98.9632 74.3699H103.183ZM94.6509 71.7115H99.2723C99.1641 70.7687 98.3758 70.2122 97.093 70.2122C95.7174 70.2122 94.8519 70.7377 94.6509 71.7115ZM92.5026 67.1056V64.8954H95.5938V67.1056H92.5026ZM98.3604 67.1056V64.8954H101.452V67.1056H98.3604ZM104.714 77.0438V68.3884H108.594V71.1551L111.438 68.3884H116.615L113.2 71.3869L117.017 77.0283H112.38L110.309 73.6744L108.594 75.0809V77.0438H104.714Z" fill="#E19026"/>
</svg>
