<svg width="1449" height="198" viewBox="0 0 1449 198" fill="none" xmlns="http://www.w3.org/2000/svg">
<rect width="345.168" height="197.239" fill="#2A3C2C"/>
<path d="M280.404 117.061C280.404 121.665 282.847 121.101 287.263 121.289V122.229H275.425V118.189C272.606 120.443 267.72 122.886 262.459 122.886C255.6 122.886 250.996 119.41 250.996 111.33C250.996 97.9879 265.841 95.639 275.425 92.1626V86.0554C275.425 80.512 273.358 75.3444 268.472 75.3444C261.519 75.3444 256.352 83.8944 254.003 95.0752L253.345 94.9813L257.573 73.3713L258.513 73.4653L258.043 80.8878L258.231 80.9818C261.331 75.8142 265.09 73.2773 269.506 73.2773C275.331 73.2773 280.31 77.1296 280.31 86.0554L280.404 117.061ZM256.07 110.672C256.07 116.685 259.264 120.35 264.432 120.35C268.378 120.35 271.76 119.034 275.425 116.497V93.6659C266.969 96.7664 256.07 97.8 256.07 110.672Z" fill="#F6F0E0"/>
<path d="M232.217 120.82C239.733 121.102 244.525 109.169 245.465 102.78H246.31C245.183 109.169 242.834 122.793 232.217 122.793C223.385 122.793 215.305 111.988 215.305 97.7064C215.305 83.8948 223.103 73.6536 231.653 73.0898C245.934 73.0898 245.371 91.6932 245.747 96.6729H221.224V97.7064C221.224 111.048 224.982 120.82 232.217 120.82ZM221.318 94.6998H240.673C240.485 88.1229 239.733 74.6871 231.653 74.969C224.512 75.1569 221.976 84.1767 221.318 94.6998Z" fill="#F6F0E0"/>
<path d="M201.666 67.5469L201.76 76.9425H210.028V78.2579H201.76L202.136 110.297C202.23 116.874 203.827 120.82 207.303 120.82C212.847 121.102 215.383 109.17 216.041 102.781H217.075C216.323 108.606 214.444 122.793 206.364 122.793C200.82 122.793 196.874 118.189 196.78 108.606L196.592 82.1101C196.592 77.5063 192.27 77.976 188.418 77.8821V76.9425C193.961 76.8486 195.465 76.9425 198.095 75.0634C201.29 72.8084 200.726 67.5469 200.914 67.5469H201.666Z" fill="#F6F0E0"/>
<path d="M176.555 121.988C172.262 121.988 169.07 120.943 166.978 118.851C164.887 116.705 163.841 113.21 163.841 108.367V85.6638H159.301V73.8583H163.841V62.9609H177.463V73.8583H184.233V85.6638H177.463V105.642C177.463 107.018 177.683 107.981 178.124 108.532C178.564 109.027 179.252 109.275 180.187 109.275C181.068 109.275 181.976 109.137 182.912 108.862C183.352 108.697 183.792 108.532 184.233 108.367V120.172C183.572 120.557 182.857 120.86 182.086 121.08C181.426 121.355 180.6 121.576 179.61 121.741C178.674 121.906 177.656 121.988 176.555 121.988Z" fill="#F6F0E0"/>
<path d="M140.234 54.7891H153.856V121.081H140.234V54.7891Z" fill="#F6F0E0"/>
<path d="M110.296 121.989C107.819 121.989 105.673 120.971 103.857 118.935C102.095 116.843 101.215 113.624 101.215 109.276V73.8594H114.837V105.643C114.837 108.065 115.607 109.276 117.148 109.276C117.809 109.276 118.331 108.973 118.717 108.368C119.157 107.707 119.377 106.799 119.377 105.643V73.8594H132.999V121.081H119.377V117.449L120.698 112.908H119.79C119.405 114.614 118.799 116.128 117.974 117.449C117.258 118.605 116.268 119.65 115.002 120.586C113.791 121.522 112.222 121.989 110.296 121.989Z" fill="#F6F0E0"/>
<path d="M78.0068 121.99C71.8426 121.99 67.3571 120.614 64.5502 117.862C61.7433 115.055 60.3398 110.68 60.3398 104.736V73.8596C60.3398 67.9156 61.7433 63.5677 64.5502 60.8158C67.3571 58.0089 71.8426 56.6055 78.0068 56.6055C83.5105 56.6055 87.6933 57.9814 90.5553 60.7333C93.4172 63.4301 94.8482 67.2001 94.8482 72.0434C94.8482 73.4193 94.7931 74.7678 94.6831 76.0886C94.573 77.3545 94.4629 78.5103 94.3528 79.556C94.1877 80.7668 94.0501 81.8951 93.9401 82.9408H81.2265V73.8596C81.2265 72.2636 80.9238 71.1078 80.3184 70.3923C79.7129 69.6768 78.9424 69.3191 78.0068 69.3191C77.1262 69.3191 76.3832 69.6768 75.7778 70.3923C75.1724 71.1078 74.8697 72.2636 74.8697 73.8596V104.736C74.8697 106.332 75.1724 107.487 75.7778 108.203C76.3832 108.918 77.1262 109.276 78.0068 109.276C78.9424 109.276 79.7129 108.918 80.3184 108.203C80.9238 107.487 81.2265 106.332 81.2265 104.736V94.7463H93.9401C94.0501 95.847 94.1877 97.0303 94.3528 98.2962C94.4629 99.3969 94.573 100.663 94.6831 102.094C94.7931 103.47 94.8482 104.956 94.8482 106.552C94.8482 111.34 93.4172 115.11 90.5553 117.862C87.6933 120.614 83.5105 121.99 78.0068 121.99Z" fill="#F6F0E0"/>
<rect x="367.307" y="0.424632" width="343.952" height="196.18" fill="#F6F0E0"/>
<rect x="367.307" y="0.424632" width="343.952" height="196.18" stroke="#2A3C2C" stroke-width="0.849265"/>
<path d="M540.408 69.1953L540.499 78.2587H548.475V79.5275H540.499L540.861 110.434C540.952 116.778 542.493 120.585 545.846 120.585C551.194 120.856 553.641 109.346 554.275 103.183H555.272C554.547 108.802 552.734 122.488 544.94 122.488C539.593 122.488 535.786 118.047 535.695 108.802L535.514 83.2435C535.514 78.8025 531.345 79.2556 527.629 79.165V78.2587C532.976 78.168 534.426 78.2587 536.964 76.446C540.046 74.2708 539.502 69.1953 539.683 69.1953H540.408Z" fill="#2A3C2C"/>
<path d="M519.868 53.7891L520.14 116.779C520.14 121.22 522.496 120.677 526.756 120.858V121.764H508.72V120.858C512.98 120.677 515.336 121.22 515.336 116.779L515.155 67.7466C515.155 64.1213 511.801 63.7587 508.538 63.6681C507.813 63.6681 507.088 63.6681 506.363 63.6681V62.7618C510.804 62.6712 514.067 62.8524 516.605 61.0397C519.686 58.8645 518.961 53.7891 519.143 53.7891H519.868Z" fill="#2A3C2C"/>
<path d="M476.817 74.8164L477.089 107.988C477.179 115.058 479.536 120.858 485.155 120.858C489.415 120.858 491.59 118.955 493.584 116.508L493.493 84.1517C493.493 79.7106 488.78 79.3481 485.065 79.2574V78.3511C489.506 78.2605 492.678 77.8979 494.944 76.6291C497.663 75.0883 497.209 74.8164 497.391 74.8164H498.206L498.478 116.689C498.478 121.13 501.741 120.677 505.457 120.768V121.674L493.584 121.765V118.049C491.409 120.405 489.143 122.58 484.974 122.58C477.451 122.58 472.285 117.324 472.104 107.807V83.336C472.104 78.8949 467.482 79.3481 463.766 79.2574V78.3511C468.207 78.2605 471.469 77.9886 473.645 76.6291C475.82 75.2696 476.001 74.8164 476.182 74.8164H476.817Z" fill="#2A3C2C"/>
<path d="M443.621 121.582C452.141 121.944 457.307 101.733 458.213 94.7544H459.12L456.672 120.222H455.947L455.494 113.334H455.222C452.594 119.588 449.784 123.485 443.621 123.485C433.561 123.485 425.223 108.803 425.223 89.6789C425.223 71.1897 433.198 56.8696 442.896 56.1445C449.059 56.1445 451.96 60.223 454.588 66.4768H454.86L455.313 59.6792H456.038L458.666 85.0566H457.76C456.854 78.0778 452.866 57.5947 442.896 58.0478C435.192 58.4104 431.567 72.1867 431.567 89.6789C431.567 107.806 435.464 121.582 443.621 121.582Z" fill="#2A3C2C"/>
<path d="M629.458 121.702C626.699 121.702 624.492 120.791 622.837 118.971C621.237 117.15 620.438 114.42 620.438 110.778C620.438 108.848 620.658 107.137 621.1 105.648C621.596 104.103 622.341 102.696 623.334 101.427C624.382 100.103 625.706 98.8069 627.306 97.5381C628.906 96.2692 630.864 94.9176 633.181 93.4832L639.471 89.3456V87.525C639.471 85.4838 639.084 83.9943 638.312 83.0564C637.54 82.1186 636.574 81.6496 635.416 81.6496C634.312 81.6496 633.347 82.1186 632.519 83.0564C631.692 83.9391 631.278 85.2907 631.278 87.1113V90.7524H622.258C622.093 90.311 621.927 89.8145 621.762 89.2628C621.651 88.8215 621.541 88.2974 621.431 87.6906C621.32 87.0837 621.265 86.4217 621.265 85.7045C621.265 83.7736 621.596 82.0082 622.258 80.4083C622.92 78.8085 623.858 77.4293 625.072 76.2707C626.341 75.1122 627.83 74.2019 629.54 73.5399C631.306 72.8779 633.264 72.5469 635.416 72.5469C639.995 72.5469 643.553 73.8433 646.091 76.4362C648.684 79.0291 649.98 82.7254 649.98 87.525V109.868C649.98 111.689 650.063 113.206 650.228 114.42C650.394 115.578 650.615 116.488 650.89 117.15C651.111 117.978 651.414 118.585 651.801 118.971V120.791H641.788C641.401 120.24 641.098 119.578 640.877 118.805C640.601 118.143 640.381 117.343 640.215 116.406C640.05 115.413 639.967 114.282 639.967 113.013H639.471C638.974 114.668 638.284 116.13 637.402 117.399C636.629 118.502 635.581 119.495 634.257 120.378C632.988 121.26 631.388 121.702 629.458 121.702ZM634.505 112.102C635.885 112.102 637.043 111.578 637.981 110.53C638.974 109.427 639.471 107.827 639.471 105.731V97.6208L635.002 100.765C634.174 101.317 633.457 101.841 632.85 102.338C632.299 102.779 631.83 103.276 631.444 103.827C631.113 104.379 630.837 105.013 630.616 105.731C630.451 106.393 630.368 107.165 630.368 108.048C630.368 110.751 631.747 112.102 634.505 112.102Z" fill="#2A3C2C"/>
<path d="M599.487 121.702C594.632 121.702 590.908 120.378 588.315 117.73C585.722 115.082 584.426 111.247 584.426 106.227V88.0216C584.426 83.0013 585.722 79.1671 588.315 76.519C590.908 73.8709 594.632 72.5469 599.487 72.5469C604.286 72.5469 607.983 73.8709 610.576 76.519C613.168 79.1671 614.465 83.0013 614.465 88.0216V100.269H594.853V106.227C594.853 108.544 595.266 110.199 596.094 111.192C596.977 112.13 598.108 112.599 599.487 112.599C600.811 112.599 601.887 112.158 602.714 111.275C603.542 110.337 603.955 108.958 603.955 107.137V104.407H613.141C613.251 104.738 613.389 105.151 613.555 105.648C613.665 106.089 613.775 106.586 613.886 107.137C613.996 107.689 614.051 108.296 614.051 108.958C614.051 110.778 613.72 112.461 613.058 114.006C612.451 115.551 611.541 116.902 610.327 118.061C609.114 119.219 607.596 120.129 605.776 120.791C603.955 121.398 601.859 121.702 599.487 121.702ZM603.955 91.6627V88.0216C603.955 85.7045 603.542 84.077 602.714 83.1392C601.887 82.1461 600.811 81.6496 599.487 81.6496C598.108 81.6496 596.977 82.1461 596.094 83.1392C595.266 84.077 594.853 85.7045 594.853 88.0216V91.6627H603.955Z" fill="#2A3C2C"/>
<path d="M571.284 121.703C567.808 121.703 565.022 120.627 562.926 118.476C560.885 116.269 559.864 113.097 559.864 108.959V82.5612H554.402V73.4585H559.864V62.5352H570.374V73.4585H578.07V82.5612H570.374V107.635C570.374 109.235 570.677 110.394 571.284 111.111C571.946 111.773 572.829 112.104 573.932 112.104C575.035 112.104 576.001 111.966 576.828 111.69C577.27 111.525 577.683 111.359 578.07 111.194V120.379C577.573 120.6 576.994 120.82 576.332 121.041C575.725 121.207 575.008 121.344 574.18 121.455C573.353 121.62 572.387 121.703 571.284 121.703Z" fill="#2A3C2C"/>
<rect width="346.298" height="197.885" transform="translate(733.766)" fill="#1F2522"/>
<path d="M912.894 122.913C908.572 122.913 905.358 121.86 903.253 119.755C901.147 117.594 900.095 114.076 900.095 109.2V86.344H895.523V74.459H900.095V63.4883H913.808V74.459H920.623V86.344H913.808V106.457C913.808 107.842 914.03 108.812 914.473 109.366C914.916 109.865 915.609 110.114 916.551 110.114C917.437 110.114 918.351 109.975 919.293 109.698C919.737 109.532 920.18 109.366 920.623 109.2V121.085C919.958 121.473 919.238 121.777 918.462 121.999C917.797 122.276 916.966 122.498 915.969 122.664C915.027 122.83 914.002 122.913 912.894 122.913Z" fill="#F6F0E0"/>
<path d="M876.332 55.2617H890.045V122H876.332V55.2617Z" fill="#F6F0E0"/>
<path d="M846.189 122.915C843.696 122.915 841.535 121.89 839.706 119.84C837.933 117.734 837.047 114.493 837.047 110.116V74.4609H850.76V106.459C850.76 108.897 851.536 110.116 853.087 110.116C853.752 110.116 854.279 109.811 854.667 109.202C855.11 108.537 855.331 107.622 855.331 106.459V74.4609H869.045V122.001H855.331V118.344L856.661 113.773H855.747C855.359 115.49 854.75 117.014 853.919 118.344C853.198 119.507 852.201 120.56 850.927 121.502C849.708 122.444 848.128 122.915 846.189 122.915Z" fill="#F6F0E0"/>
<path d="M813.684 122.914C807.479 122.914 802.963 121.529 800.137 118.759C797.311 115.933 795.898 111.528 795.898 105.544V74.4602C795.898 68.4761 797.311 64.0989 800.137 61.3285C802.963 58.5027 807.479 57.0898 813.684 57.0898C819.225 57.0898 823.436 58.475 826.317 61.2454C829.199 63.9604 830.639 67.7558 830.639 72.6317C830.639 74.0169 830.584 75.3744 830.473 76.7042C830.362 77.9786 830.251 79.1421 830.14 80.1949C829.974 81.4139 829.836 82.5497 829.725 83.6025H816.926V74.4602C816.926 72.8534 816.621 71.6898 816.011 70.9695C815.402 70.2492 814.626 69.889 813.684 69.889C812.798 69.889 812.05 70.2492 811.44 70.9695C810.831 71.6898 810.526 72.8534 810.526 74.4602V105.544C810.526 107.151 810.831 108.314 811.44 109.035C812.05 109.755 812.798 110.115 813.684 110.115C814.626 110.115 815.402 109.755 816.011 109.035C816.621 108.314 816.926 107.151 816.926 105.544V95.4874H829.725C829.836 96.5956 829.974 97.7868 830.14 99.0612C830.251 100.169 830.362 101.444 830.473 102.884C830.584 104.27 830.639 105.766 830.639 107.372C830.639 112.193 829.199 115.988 826.317 118.759C823.436 121.529 819.225 122.914 813.684 122.914Z" fill="#F6F0E0"/>
<path d="M1013.96 117.153C1013.96 121.613 1016.33 121.067 1020.61 121.249V122.159H1009.14V118.245C1006.4 120.43 1001.67 122.797 996.574 122.797C989.929 122.797 985.469 119.429 985.469 111.6C985.469 98.6745 999.851 96.3988 1009.14 93.0308V87.1141C1009.14 81.7435 1007.13 76.737 1002.4 76.737C995.664 76.737 990.657 85.0204 988.382 95.8526L987.744 95.7616L991.841 74.8254L992.751 74.9164L992.296 82.1076L992.478 82.1986C995.482 77.1921 999.123 74.7344 1003.4 74.7344C1009.04 74.7344 1013.87 78.4665 1013.87 87.1141L1013.96 117.153ZM990.384 110.963C990.384 116.789 993.479 120.339 998.486 120.339C1002.31 120.339 1005.59 119.065 1009.14 116.607V94.4872C1000.94 97.4911 990.384 98.4924 990.384 110.963Z" fill="#F6F0E0"/>
<path d="M967.275 120.796C974.558 121.069 979.2 109.509 980.11 103.319H980.93C979.837 109.509 977.562 122.708 967.275 122.708C958.719 122.708 950.891 112.24 950.891 98.4038C950.891 85.0228 958.446 75.1008 966.729 74.5547C980.565 74.5547 980.019 92.578 980.383 97.4025H956.625V98.4038C956.625 111.33 960.266 120.796 967.275 120.796ZM956.716 95.4909H975.468C975.286 89.119 974.558 76.1021 966.729 76.3752C959.811 76.5573 957.354 85.2959 956.716 95.4909Z" fill="#F6F0E0"/>
<path d="M937.679 69.1836L937.77 78.2863H945.78V79.5607H937.77L938.134 110.601C938.225 116.973 939.772 120.796 943.14 120.796C948.511 121.069 950.969 109.509 951.606 103.319H952.607C951.879 108.962 950.058 122.707 942.23 122.707C936.859 122.707 933.036 118.247 932.945 108.962L932.763 83.2928C932.763 78.8325 928.576 79.2876 924.844 79.1966V78.2863C930.214 78.1953 931.671 78.2863 934.22 76.4658C937.314 74.2811 936.768 69.1836 936.95 69.1836H937.679Z" fill="#F6F0E0"/>
<rect width="346.5" height="198" transform="translate(1102.34)" fill="#BB8F54"/>
<path d="M1276.73 69.1797L1276.82 78.2877H1284.83V79.5628H1276.82L1277.18 110.621C1277.27 116.997 1278.82 120.822 1282.19 120.822C1287.56 121.095 1290.02 109.528 1290.66 103.335H1291.66C1290.93 108.982 1289.11 122.735 1281.28 122.735C1275.91 122.735 1272.08 118.272 1271.99 108.982L1271.81 83.2971C1271.81 78.8342 1267.62 79.2896 1263.88 79.1985V78.2877C1269.26 78.1966 1270.71 78.2877 1273.26 76.4661C1276.36 74.2802 1275.81 69.1797 1276 69.1797H1276.73Z" fill="#F6F0E0"/>
<path d="M1256.09 53.6953L1256.36 116.996C1256.36 121.459 1258.73 120.912 1263.01 121.095V122.005H1244.88V121.095C1249.16 120.912 1251.53 121.459 1251.53 116.996L1251.35 67.7216C1251.35 64.0784 1247.98 63.7141 1244.7 63.623C1243.97 63.623 1243.24 63.623 1242.52 63.623V62.7122C1246.98 62.6212 1250.26 62.8033 1252.81 60.9817C1255.9 58.7958 1255.18 53.6953 1255.36 53.6953H1256.09Z" fill="#F6F0E0"/>
<path d="M1212.82 74.8242L1213.1 108.16C1213.19 115.264 1215.55 121.093 1221.2 121.093C1225.48 121.093 1227.67 119.18 1229.67 116.721L1229.58 84.2055C1229.58 79.7425 1224.85 79.3782 1221.11 79.2871V78.3763C1225.57 78.2853 1228.76 77.9209 1231.04 76.6458C1233.77 75.0975 1233.32 74.8242 1233.5 74.8242H1234.32L1234.59 116.903C1234.59 121.366 1237.87 120.911 1241.6 121.002V121.913L1229.67 122.004V118.269C1227.49 120.637 1225.21 122.823 1221.02 122.823C1213.46 122.823 1208.27 117.541 1208.09 107.977V83.3857C1208.09 78.9228 1203.44 79.3782 1199.71 79.2871V78.3763C1204.17 78.2853 1207.45 78.012 1209.63 76.6458C1211.82 75.2796 1212 74.8242 1212.18 74.8242H1212.82Z" fill="#F6F0E0"/>
<path d="M1179.46 121.822C1188.02 122.187 1193.21 101.876 1194.13 94.8626H1195.04L1192.58 120.456H1191.85L1191.39 113.534H1191.12C1188.48 119.819 1185.66 123.735 1179.46 123.735C1169.35 123.735 1160.97 108.98 1160.97 89.7621C1160.97 71.1818 1168.99 56.7911 1178.73 56.0625C1184.93 56.0625 1187.84 60.1611 1190.48 66.4456H1190.76L1191.21 59.6146H1191.94L1194.58 85.117H1193.67C1192.76 78.1039 1188.75 57.5198 1178.73 57.9752C1170.99 58.3395 1167.35 72.1837 1167.35 89.7621C1167.35 107.978 1171.26 121.822 1179.46 121.822Z" fill="#F6F0E0"/>
<path d="M1366.21 122.94C1363.44 122.94 1361.22 122.025 1359.56 120.196C1357.95 118.366 1357.15 115.622 1357.15 111.963C1357.15 110.022 1357.37 108.304 1357.81 106.807C1358.31 105.255 1359.06 103.841 1360.06 102.566C1361.11 101.235 1362.44 99.9324 1364.05 98.6573C1365.66 97.3822 1367.63 96.0239 1369.96 94.5824L1376.28 90.4244V88.5949C1376.28 86.5437 1375.89 85.0468 1375.11 84.1043C1374.33 83.1618 1373.36 82.6906 1372.2 82.6906C1371.09 82.6906 1370.12 83.1618 1369.29 84.1043C1368.46 84.9913 1368.04 86.3496 1368.04 88.1791V91.8382H1358.98C1358.81 91.3946 1358.65 90.8957 1358.48 90.3413C1358.37 89.8978 1358.26 89.3711 1358.15 88.7612C1358.04 88.1514 1357.98 87.4861 1357.98 86.7654C1357.98 84.825 1358.31 83.0509 1358.98 81.4432C1359.64 79.8354 1360.59 78.4494 1361.81 77.2852C1363.08 76.1209 1364.58 75.2062 1366.3 74.5409C1368.07 73.8756 1370.04 73.543 1372.2 73.543C1376.8 73.543 1380.38 74.8458 1382.93 77.4515C1385.53 80.0572 1386.84 83.7717 1386.84 88.5949V111.048C1386.84 112.878 1386.92 114.402 1387.09 115.622C1387.25 116.786 1387.47 117.701 1387.75 118.366C1387.97 119.198 1388.28 119.808 1388.67 120.196V122.025H1378.6C1378.22 121.471 1377.91 120.806 1377.69 120.029C1377.41 119.364 1377.19 118.56 1377.02 117.618C1376.86 116.62 1376.77 115.483 1376.77 114.208H1376.28C1375.78 115.871 1375.08 117.341 1374.2 118.616C1373.42 119.724 1372.37 120.722 1371.04 121.609C1369.76 122.496 1368.15 122.94 1366.21 122.94ZM1371.29 113.293C1372.67 113.293 1373.84 112.767 1374.78 111.713C1375.78 110.605 1376.28 108.997 1376.28 106.89V98.7404L1371.78 101.901C1370.95 102.455 1370.23 102.982 1369.62 103.481C1369.07 103.924 1368.6 104.423 1368.21 104.977C1367.88 105.532 1367.6 106.169 1367.38 106.89C1367.21 107.555 1367.13 108.332 1367.13 109.219C1367.13 111.935 1368.51 113.293 1371.29 113.293Z" fill="#F6F0E0"/>
<path d="M1336.1 122.94C1331.22 122.94 1327.48 121.609 1324.87 118.948C1322.26 116.287 1320.96 112.434 1320.96 107.389V89.0939C1320.96 84.0488 1322.26 80.1958 1324.87 77.5346C1327.48 74.8735 1331.22 73.543 1336.1 73.543C1340.92 73.543 1344.63 74.8735 1347.24 77.5346C1349.85 80.1958 1351.15 84.0488 1351.15 89.0939V101.402H1331.44V107.389C1331.44 109.718 1331.85 111.381 1332.69 112.379C1333.57 113.321 1334.71 113.792 1336.1 113.792C1337.43 113.792 1338.51 113.349 1339.34 112.462C1340.17 111.519 1340.59 110.133 1340.59 108.304V105.56H1349.82C1349.93 105.892 1350.07 106.308 1350.23 106.807C1350.34 107.25 1350.46 107.749 1350.57 108.304C1350.68 108.858 1350.73 109.468 1350.73 110.133C1350.73 111.963 1350.4 113.654 1349.73 115.206C1349.12 116.758 1348.21 118.117 1346.99 119.281C1345.77 120.445 1344.25 121.36 1342.42 122.025C1340.59 122.635 1338.48 122.94 1336.1 122.94ZM1340.59 92.7529V89.0939C1340.59 86.7654 1340.17 85.1299 1339.34 84.1874C1338.51 83.1895 1337.43 82.6906 1336.1 82.6906C1334.71 82.6906 1333.57 83.1895 1332.69 84.1874C1331.85 85.1299 1331.44 86.7654 1331.44 89.0939V92.7529H1340.59Z" fill="#F6F0E0"/>
<path d="M1307.75 122.94C1304.26 122.94 1301.46 121.859 1299.35 119.697C1297.3 117.479 1296.28 114.291 1296.28 110.133V83.6052H1290.79V74.4576H1296.28V63.4805H1306.84V74.4576H1314.57V83.6052H1306.84V108.803C1306.84 110.41 1307.14 111.575 1307.75 112.295C1308.42 112.961 1309.31 113.293 1310.41 113.293C1311.52 113.293 1312.49 113.155 1313.33 112.878C1313.77 112.711 1314.18 112.545 1314.57 112.379V121.609C1314.07 121.831 1313.49 122.053 1312.83 122.275C1312.22 122.441 1311.5 122.58 1310.66 122.69C1309.83 122.857 1308.86 122.94 1307.75 122.94Z" fill="#F6F0E0"/>
</svg>
