<svg width="233" height="154" viewBox="0 0 233 154" fill="none" xmlns="http://www.w3.org/2000/svg">
<path d="M232.385 76.8313C232.385 97.7644 219.489 116.78 198.505 130.585C177.525 144.388 148.513 152.942 116.442 152.942C84.3703 152.942 55.358 144.388 34.3784 130.585C13.3947 116.78 0.498047 97.7644 0.498047 76.8313C0.498047 55.8982 13.3947 36.8827 34.3784 23.0771C55.358 9.27426 84.3703 0.720703 116.442 0.720703C148.513 0.720703 177.525 9.27426 198.505 23.0771C219.489 36.8827 232.385 55.8982 232.385 76.8313Z" stroke="#EBAD5D"/>
<path d="M58.198 73.1485H55.678V70.9285H57.918C59.078 70.9285 59.918 70.4085 59.918 69.7085C59.918 69.1685 59.158 68.7285 58.058 68.7285C56.918 68.7285 56.258 68.9885 56.058 69.5285H50.978C51.218 68.2885 52.018 67.4085 53.398 66.8485C54.558 66.4085 56.198 66.1885 58.318 66.1885C61.098 66.1885 64.898 66.7085 64.958 69.2085C64.998 70.6485 64.218 71.6685 62.378 71.9085C64.618 72.3085 65.638 73.3285 65.638 74.9085C65.638 75.8085 65.038 76.5885 64.158 77.1085C62.918 77.8885 59.618 78.0885 58.098 78.0885C55.918 78.0885 53.798 77.9085 52.538 77.4285C50.938 76.8085 50.378 75.6085 50.378 74.2885H55.438C55.438 74.9885 56.698 75.5685 57.978 75.5685C59.458 75.5685 60.398 75.1085 60.398 74.2885C60.398 73.4085 59.538 73.1485 58.198 73.1485ZM77.9433 76.1885C76.5833 77.6085 74.8233 78.0885 72.2833 78.0885C68.6033 78.0885 66.7633 76.8685 66.7633 74.4085C66.7633 73.5685 66.9833 72.8685 67.3633 72.3885C68.4033 71.0885 70.1233 70.9685 72.5433 70.8085C76.0633 70.5685 77.7033 70.8085 77.7033 69.8885C77.7033 69.3085 76.9233 68.8685 75.4633 68.8685C73.8433 68.8685 73.0233 69.1085 72.8833 69.9885H67.7033C67.9233 67.1085 70.3633 66.1885 75.4233 66.1885C78.4033 66.1885 80.4033 66.6085 81.4433 67.4085C82.7233 68.4085 82.9833 69.6685 82.9833 71.6485V75.9885C82.9833 76.7285 83.0833 77.1885 83.4833 77.4885V77.7285H78.2633C78.0633 77.2685 77.9633 76.7485 77.9433 76.1885ZM77.9233 72.4885C76.9033 72.9885 75.7233 72.9485 74.3833 73.0685C73.0433 73.1885 72.4633 73.3885 72.4633 74.0885C72.4633 74.7885 73.1233 75.2085 74.3033 75.2085C76.5633 75.2085 77.9433 74.2085 77.9433 72.7685C77.9433 72.6685 77.9433 72.5885 77.9233 72.4885ZM85.5739 77.7285V66.4885H95.1139C98.1539 66.4885 99.3139 67.4685 99.3139 69.5085C99.3139 70.5085 98.4339 71.6085 97.6939 71.8685C99.0739 72.2485 99.9339 73.3285 99.9339 74.5085C99.9339 77.1885 98.0139 77.7285 94.2739 77.7285H85.5739ZM90.5939 73.1685V74.9285H93.6739C94.4939 74.9285 94.7939 74.6685 94.7939 74.0485C94.7939 73.5085 94.4939 73.1685 93.6739 73.1685H90.5939ZM90.5939 69.1685V70.7685H93.2739C94.0539 70.7685 94.2739 70.4885 94.2739 69.9685C94.2739 69.4285 94.0539 69.1685 93.2739 69.1685H90.5939ZM112.279 76.1885C110.919 77.6085 109.159 78.0885 106.619 78.0885C102.939 78.0885 101.099 76.8685 101.099 74.4085C101.099 73.5685 101.319 72.8685 101.699 72.3885C102.739 71.0885 104.459 70.9685 106.879 70.8085C110.399 70.5685 112.039 70.8085 112.039 69.8885C112.039 69.3085 111.259 68.8685 109.799 68.8685C108.179 68.8685 107.359 69.1085 107.219 69.9885H102.039C102.259 67.1085 104.699 66.1885 109.759 66.1885C112.739 66.1885 114.739 66.6085 115.779 67.4085C117.059 68.4085 117.319 69.6685 117.319 71.6485V75.9885C117.319 76.7285 117.419 77.1885 117.819 77.4885V77.7285H112.599C112.399 77.2685 112.299 76.7485 112.279 76.1885ZM112.259 72.4885C111.239 72.9885 110.059 72.9485 108.719 73.0685C107.379 73.1885 106.799 73.3885 106.799 74.0885C106.799 74.7885 107.459 75.2085 108.639 75.2085C110.899 75.2085 112.279 74.2085 112.279 72.7685C112.279 72.6685 112.279 72.5885 112.259 72.4885ZM119.95 81.3685V66.4685H124.73L124.77 67.5485C125.99 66.6285 127.45 66.1885 129.23 66.1885C132.99 66.1885 135.41 68.5285 135.41 72.1085C135.41 75.6885 132.99 78.0085 129.15 78.0085C127.55 78.0085 126.21 77.6285 124.97 76.8085V81.3685H119.95ZM124.97 72.1085C124.97 73.6285 126.03 74.5885 127.55 74.5885C129.09 74.5885 130.13 73.6285 130.13 72.1085C130.13 70.5685 129.09 69.6085 127.55 69.6085C126.03 69.6085 124.97 70.5685 124.97 72.1085ZM136.951 77.7285V66.4885H141.971V69.9485L141.811 72.6285L146.191 66.4885H151.971V77.7285H146.951V74.2685L147.171 71.1885L142.671 77.7285H136.951ZM157.187 77.7285V70.0485H152.987V66.4885H166.427V70.0485H162.227V77.7285H157.187ZM167.92 77.7285V66.4885H172.96V70.3685H176.48C180.34 70.3685 182.02 71.5285 182.02 73.9085C182.02 76.6485 180.22 77.7285 176.48 77.7285H167.92ZM172.96 73.0485V74.9285H175.58C176.56 74.9285 176.84 74.6285 176.84 73.9685C176.84 73.3885 176.54 73.0485 175.54 73.0485H172.96ZM97.0748 90.4885V101.729H92.0348V97.6885C90.8148 98.1685 89.8548 98.2685 88.1748 98.2685C84.8148 98.2685 83.4148 96.5685 83.4148 93.0085V90.4885H88.4548V92.3485C88.4548 93.9085 88.8348 94.5685 90.2548 94.5685C91.0348 94.5685 91.5748 94.4685 92.0348 94.2285V90.4885H97.0748ZM109.984 100.189C108.624 101.609 106.864 102.089 104.324 102.089C100.644 102.089 98.8043 100.869 98.8043 98.4085C98.8043 97.5685 99.0243 96.8685 99.4043 96.3885C100.444 95.0885 102.164 94.9685 104.584 94.8085C108.104 94.5685 109.744 94.8085 109.744 93.8885C109.744 93.3085 108.964 92.8685 107.504 92.8685C105.884 92.8685 105.064 93.1085 104.924 93.9885H99.7443C99.9643 91.1085 102.404 90.1885 107.464 90.1885C110.444 90.1885 112.444 90.6085 113.484 91.4085C114.764 92.4085 115.024 93.6685 115.024 95.6485V99.9885C115.024 100.729 115.124 101.189 115.524 101.489V101.729H110.304C110.104 101.269 110.004 100.749 109.984 100.189ZM109.964 96.4885C108.944 96.9885 107.764 96.9485 106.424 97.0685C105.084 97.1885 104.504 97.3885 104.504 98.0885C104.504 98.7885 105.164 99.2085 106.344 99.2085C108.604 99.2085 109.984 98.2085 109.984 96.7685C109.984 96.6685 109.984 96.5885 109.964 96.4885ZM133.055 98.2885C132.315 100.769 129.555 102.109 124.895 102.109C119.715 102.109 116.895 99.8485 116.895 96.1085C116.895 92.3485 119.715 90.0885 124.895 90.0885C130.335 90.0885 133.155 92.5085 133.155 97.0685V97.2685H122.275C122.275 98.4485 123.315 99.1685 125.195 99.1685C126.435 99.1685 127.255 98.8485 127.595 98.2885H133.055ZM122.015 94.8485H127.995C127.855 93.6285 126.835 92.9085 125.175 92.9085C123.395 92.9085 122.275 93.5885 122.015 94.8485ZM119.235 88.8885V86.0285H123.235V88.8885H119.235ZM126.815 88.8885V86.0285H130.815V88.8885H126.815ZM135.037 101.749V90.5485H140.057V94.1285L143.737 90.5485H150.437L146.017 94.4285L150.957 101.729H144.957L142.277 97.3885L140.057 99.2085V101.749H135.037Z" fill="#EBAD5D"/>
</svg>
