<svg width="1753" height="462" viewBox="0 0 1753 462" fill="none" xmlns="http://www.w3.org/2000/svg">
<path d="M0 45L1753 45.0002" stroke="black"/>
<path d="M0 409L1753 409" stroke="black"/>
<path d="M343.588 411.971C309.846 411.971 285.294 404.439 269.93 389.376C254.565 374.012 246.883 350.062 246.883 317.526V148.519C246.883 115.983 254.565 92.1836 269.93 77.1206C285.294 61.7564 309.846 54.0742 343.588 54.0742C373.713 54.0742 396.609 61.6057 412.275 76.6687C427.94 91.4304 435.773 112.067 435.773 138.578C435.773 146.109 435.472 153.49 434.869 160.72C434.267 167.649 433.664 173.976 433.062 179.7C432.158 186.327 431.405 192.503 430.802 198.227H361.211V148.519C361.211 139.783 359.554 133.456 356.24 129.54C352.927 125.623 348.709 123.665 343.588 123.665C338.767 123.665 334.7 125.623 331.386 129.54C328.073 133.456 326.416 139.783 326.416 148.519V317.526C326.416 326.262 328.073 332.589 331.386 336.505C334.7 340.422 338.767 342.38 343.588 342.38C348.709 342.38 352.927 340.422 356.24 336.505C359.554 332.589 361.211 326.262 361.211 317.526V262.847H430.802C431.405 268.872 432.158 275.349 433.062 282.278C433.664 288.304 434.267 295.233 434.869 303.065C435.472 310.597 435.773 318.731 435.773 327.467C435.773 353.677 427.94 374.313 412.275 389.376C396.609 404.439 373.713 411.971 343.588 411.971ZM520.329 411.971C506.773 411.971 495.023 406.397 485.082 395.251C475.442 383.803 470.621 366.179 470.621 342.38V148.519H545.183V322.497C545.183 335.752 549.401 342.38 557.836 342.38C561.451 342.38 564.313 340.723 566.422 337.409C568.832 333.794 570.037 328.823 570.037 322.497V148.519H644.599V407H570.037V387.117L577.267 362.263H572.297C570.188 371.602 566.874 379.887 562.355 387.117C558.439 393.443 553.016 399.167 546.087 404.289C539.459 409.41 530.873 411.971 520.329 411.971ZM684.21 44.1327H758.772V407H684.21V44.1327ZM883.009 411.971C859.511 411.971 842.038 406.247 830.59 394.799C819.142 383.05 813.418 363.92 813.418 337.409V213.139H788.565V148.519H813.418V88.8697H887.98V148.519H925.035V213.139H887.98V322.497C887.98 330.028 889.185 335.3 891.595 338.313C894.005 341.024 897.771 342.38 902.893 342.38C907.713 342.38 912.684 341.627 917.805 340.12C920.215 339.217 922.625 338.313 925.035 337.409V402.029C921.42 404.138 917.504 405.795 913.286 407C909.671 408.506 905.152 409.711 899.729 410.615C894.608 411.519 889.035 411.971 883.009 411.971Z" fill="#1F2522"/>
<path d="M1017.77 119.7L1018.26 169.193H1061.81V176.122H1018.26L1020.24 344.892C1020.73 379.537 1029.15 400.324 1047.46 400.324C1076.66 401.809 1090.02 338.953 1093.49 305.298H1098.93C1094.97 335.983 1085.08 410.717 1042.51 410.717C1013.31 410.717 992.524 386.466 992.029 335.983L991.039 196.414C991.039 172.163 968.273 174.637 947.981 174.142V169.193C977.181 168.698 985.1 169.193 998.958 159.294C1015.79 147.416 1012.82 119.7 1013.81 119.7H1017.77ZM1178.69 400.324C1218.29 401.809 1243.53 338.953 1248.48 305.298H1252.93C1246.99 338.953 1234.62 410.717 1178.69 410.717C1132.17 410.717 1089.61 353.801 1089.61 278.572C1089.61 205.818 1130.69 151.871 1175.72 148.901C1250.95 148.901 1247.98 246.897 1249.96 273.128H1120.79V278.572C1120.79 348.851 1140.58 400.324 1178.69 400.324ZM1121.28 262.734H1223.24C1222.25 228.089 1218.29 157.315 1175.72 158.8C1138.11 159.789 1124.75 207.302 1121.28 262.734ZM1432.52 380.527C1432.52 404.778 1445.39 401.809 1468.65 402.798V407.748H1406.29V386.466C1391.44 398.344 1365.71 411.212 1337.99 411.212C1301.86 411.212 1277.61 392.9 1277.61 350.336C1277.61 280.057 1355.81 267.683 1406.29 249.371V217.201C1406.29 188 1395.4 160.779 1369.67 160.779C1333.04 160.779 1305.82 205.818 1293.45 264.714L1289.98 264.219L1312.25 150.386L1317.2 150.881L1314.73 189.98L1315.72 190.475C1332.05 163.254 1351.85 149.891 1375.11 149.891C1405.8 149.891 1432.03 170.183 1432.03 217.201L1432.52 380.527ZM1304.34 346.872C1304.34 378.547 1321.16 397.849 1348.38 397.849C1369.17 397.849 1386.99 390.92 1406.29 377.557V257.29C1361.75 273.623 1304.34 279.067 1304.34 346.872Z" fill="#1F2522"/>
</svg>
