<svg width="1257" height="396" viewBox="0 0 1257 396" fill="none" xmlns="http://www.w3.org/2000/svg">
<rect x="0.407778" y="0.407778" width="733.184" height="393.913" stroke="#1F2522" stroke-width="0.815556"/>
<path d="M175.245 263.201C162.849 263.201 153.828 260.434 148.183 254.9C142.538 249.255 139.715 240.456 139.715 228.502V166.407C139.715 154.453 142.538 145.709 148.183 140.175C153.828 134.53 162.849 131.708 175.245 131.708C186.314 131.708 194.726 134.475 200.481 140.009C206.237 145.432 209.115 153.014 209.115 162.755C209.115 165.522 209.004 168.234 208.783 170.89C208.561 173.436 208.34 175.76 208.119 177.863C207.787 180.298 207.51 182.567 207.289 184.67H181.72V166.407C181.72 163.197 181.112 160.873 179.894 159.434C178.676 157.995 177.127 157.276 175.245 157.276C173.474 157.276 171.98 157.995 170.763 159.434C169.545 160.873 168.936 163.197 168.936 166.407V228.502C168.936 231.711 169.545 234.036 170.763 235.475C171.98 236.914 173.474 237.633 175.245 237.633C177.127 237.633 178.676 236.914 179.894 235.475C181.112 234.036 181.72 231.711 181.72 228.502V208.412H207.289C207.51 210.626 207.787 213.006 208.119 215.551C208.34 217.765 208.561 220.311 208.783 223.189C209.004 225.956 209.115 228.944 209.115 232.154C209.115 241.784 206.237 249.366 200.481 254.9C194.726 260.434 186.314 263.201 175.245 263.201ZM240.181 263.201C235.201 263.201 230.884 261.154 227.231 257.058C223.689 252.852 221.918 246.377 221.918 237.633V166.407H249.313V230.328C249.313 235.198 250.863 237.633 253.962 237.633C255.29 237.633 256.341 237.024 257.116 235.807C258.002 234.479 258.444 232.652 258.444 230.328V166.407H285.839V261.375H258.444V254.07L261.101 244.938H259.275C258.5 248.37 257.282 251.413 255.622 254.07C254.183 256.394 252.191 258.497 249.645 260.379C247.21 262.26 244.055 263.201 240.181 263.201ZM300.392 128.055H327.787V261.375H300.392V128.055ZM373.433 263.201C364.799 263.201 358.38 261.098 354.174 256.892C349.968 252.576 347.865 245.547 347.865 235.807V190.149H338.733V166.407H347.865V144.492H375.259V166.407H388.873V190.149H375.259V230.328C375.259 233.095 375.702 235.032 376.587 236.139C377.473 237.135 378.856 237.633 380.738 237.633C382.509 237.633 384.335 237.356 386.217 236.803C387.102 236.471 387.988 236.139 388.873 235.807V259.549C387.545 260.323 386.106 260.932 384.557 261.375C383.228 261.928 381.568 262.371 379.576 262.703C377.694 263.035 375.646 263.201 373.433 263.201Z" fill="#1F2522"/>
<path d="M422.942 154.861L423.124 173.045H439.126V175.591H423.124L423.851 237.598C424.033 250.327 427.124 257.964 433.853 257.964C444.581 258.51 449.491 235.416 450.764 223.051H452.764C451.309 234.325 447.672 261.783 432.034 261.783C421.306 261.783 413.668 252.873 413.486 234.325L413.123 183.046C413.123 174.136 404.758 175.045 397.303 174.864V173.045C408.031 172.863 410.941 173.045 416.032 169.408C422.215 165.044 421.124 154.861 421.487 154.861H422.942ZM482.068 257.964C496.616 258.51 505.889 235.416 507.708 223.051H509.344C507.162 235.416 502.616 261.783 482.068 261.783C464.976 261.783 449.337 240.871 449.337 213.232C449.337 186.501 464.43 166.681 480.977 165.59C508.617 165.59 507.526 201.594 508.253 211.231H460.793V213.232C460.793 239.053 468.067 257.964 482.068 257.964ZM460.975 207.413H498.434C498.07 194.684 496.616 168.681 480.977 169.226C467.158 169.59 462.248 187.047 460.975 207.413ZM575.327 250.691C575.327 259.601 580.054 258.51 588.601 258.873V260.692H565.689V252.873C560.234 257.237 550.778 261.965 540.595 261.965C527.321 261.965 518.411 255.237 518.411 239.598C518.411 213.777 547.141 209.231 565.689 202.503V190.684C565.689 179.955 561.689 169.954 552.233 169.954C538.777 169.954 528.776 186.501 524.23 208.14L522.957 207.958L531.14 166.135L532.958 166.317L532.049 180.682L532.412 180.864C538.413 170.863 545.687 165.953 554.233 165.953C565.507 165.953 575.145 173.409 575.145 190.684L575.327 250.691ZM528.23 238.326C528.23 249.963 534.413 257.055 544.414 257.055C552.051 257.055 558.597 254.509 565.689 249.6V205.413C549.324 211.413 528.23 213.414 528.23 238.326Z" fill="#1F2522"/>
<rect x="1.63281" width="133.182" height="133.182" fill="#1F2522"/>
<rect x="598.621" y="260.98" width="133.182" height="133.182" fill="#1F2522"/>
<rect x="1.63281" y="259.344" width="133.182" height="133.182" fill="#1F2522"/>
<rect x="598.621" width="133.182" height="133.182" fill="#1F2522"/>
<path d="M879.872 344.864H891.608V346.784H882.152V351.824H887.864C889.56 351.824 890.856 352.264 891.752 353.144C892.664 354.024 893.12 355.288 893.12 356.936C893.12 358.568 892.664 359.824 891.752 360.704C890.856 361.568 889.56 362 887.864 362H879.872V344.864ZM887.12 360.08C889.616 360.08 890.864 359.032 890.864 356.936C890.864 354.808 889.616 353.744 887.12 353.744H882.152V360.08H887.12ZM901.083 362.264C900.091 362.264 899.219 362.104 898.467 361.784C897.731 361.448 897.107 360.992 896.595 360.416C896.083 359.824 895.699 359.136 895.443 358.352C895.187 357.568 895.059 356.72 895.059 355.808C895.059 354.896 895.187 354.048 895.443 353.264C895.699 352.464 896.083 351.776 896.595 351.2C897.107 350.608 897.731 350.144 898.467 349.808C899.219 349.472 900.091 349.304 901.083 349.304C902.059 349.304 902.923 349.472 903.675 349.808C904.427 350.144 905.059 350.608 905.571 351.2C906.083 351.776 906.467 352.464 906.723 353.264C906.979 354.048 907.107 354.896 907.107 355.808C907.107 356.72 906.979 357.568 906.723 358.352C906.467 359.136 906.083 359.824 905.571 360.416C905.059 360.992 904.427 361.448 903.675 361.784C902.923 362.104 902.059 362.264 901.083 362.264ZM901.083 360.488C901.611 360.488 902.107 360.384 902.571 360.176C903.051 359.968 903.467 359.672 903.819 359.288C904.171 358.888 904.443 358.4 904.635 357.824C904.843 357.232 904.947 356.56 904.947 355.808C904.947 355.056 904.843 354.392 904.635 353.816C904.443 353.224 904.171 352.728 903.819 352.328C903.467 351.928 903.051 351.624 902.571 351.416C902.107 351.208 901.611 351.104 901.083 351.104C900.555 351.104 900.051 351.208 899.571 351.416C899.107 351.624 898.699 351.928 898.347 352.328C897.995 352.728 897.715 353.224 897.507 353.816C897.315 354.392 897.219 355.056 897.219 355.808C897.219 356.56 897.315 357.232 897.507 357.824C897.715 358.4 897.995 358.888 898.347 359.288C898.699 359.672 899.107 359.968 899.571 360.176C900.051 360.384 900.555 360.488 901.083 360.488ZM909.417 362.144C909.209 362.144 908.993 362.12 908.769 362.072C908.545 362.04 908.361 362.008 908.217 361.976V360.176C908.377 360.224 908.521 360.256 908.649 360.272C908.793 360.288 908.929 360.296 909.057 360.296C909.585 360.296 909.985 360.088 910.257 359.672C910.545 359.256 910.753 358.616 910.881 357.752C911.025 356.888 911.113 355.784 911.145 354.44C911.177 353.08 911.209 351.464 911.241 349.592H919.953V362H917.913V351.392H913.209C913.161 352.848 913.105 354.232 913.041 355.544C912.993 356.84 912.857 357.976 912.633 358.952C912.409 359.928 912.049 360.704 911.553 361.28C911.057 361.856 910.345 362.144 909.417 362.144ZM923.156 349.592H925.196V354.344H929.612C930.828 354.344 931.804 354.68 932.54 355.352C933.276 356.008 933.644 356.936 933.644 358.136C933.644 359.304 933.292 360.24 932.588 360.944C931.884 361.648 930.924 362 929.708 362H923.156V349.592ZM928.964 360.2C930.676 360.2 931.532 359.512 931.532 358.136C931.532 356.776 930.676 356.096 928.964 356.096H925.196V360.2H928.964ZM935.856 349.592H937.896V360.2H942.528V349.592H944.568V360.2H949.2V349.592H951.24V362H935.856V349.592ZM957.734 362.264C957.174 362.264 956.646 362.2 956.15 362.072C955.654 361.96 955.214 361.768 954.83 361.496C954.462 361.208 954.166 360.848 953.942 360.416C953.734 359.968 953.63 359.432 953.63 358.808C953.63 358.104 953.75 357.528 953.99 357.08C954.23 356.632 954.542 356.272 954.926 356C955.326 355.712 955.774 355.496 956.27 355.352C956.782 355.208 957.302 355.088 957.83 354.992C958.39 354.88 958.918 354.8 959.414 354.752C959.926 354.688 960.374 354.608 960.758 354.512C961.142 354.4 961.446 354.248 961.67 354.056C961.894 353.848 962.006 353.552 962.006 353.168C962.006 352.72 961.918 352.36 961.742 352.088C961.582 351.816 961.366 351.608 961.094 351.464C960.838 351.32 960.542 351.224 960.206 351.176C959.886 351.128 959.566 351.104 959.246 351.104C958.382 351.104 957.662 351.272 957.086 351.608C956.51 351.928 956.198 352.544 956.15 353.456H954.11C954.142 352.688 954.302 352.04 954.59 351.512C954.878 350.984 955.262 350.56 955.742 350.24C956.222 349.904 956.766 349.664 957.374 349.52C957.998 349.376 958.662 349.304 959.366 349.304C959.926 349.304 960.478 349.344 961.022 349.424C961.582 349.504 962.086 349.672 962.534 349.928C962.982 350.168 963.342 350.512 963.614 350.96C963.886 351.408 964.022 351.992 964.022 352.712V359.096C964.022 359.576 964.046 359.928 964.094 360.152C964.158 360.376 964.35 360.488 964.67 360.488C964.814 360.488 965.022 360.448 965.294 360.368V361.952C964.942 362.16 964.454 362.264 963.83 362.264C963.302 362.264 962.878 362.12 962.558 361.832C962.254 361.528 962.102 361.04 962.102 360.368C961.542 361.04 960.886 361.528 960.134 361.832C959.398 362.12 958.598 362.264 957.734 362.264ZM958.19 360.488C958.862 360.488 959.438 360.4 959.918 360.224C960.398 360.032 960.79 359.8 961.094 359.528C961.398 359.24 961.622 358.936 961.766 358.616C961.91 358.28 961.982 357.968 961.982 357.68V355.592C961.726 355.8 961.39 355.944 960.974 356.024C960.558 356.104 960.118 356.176 959.654 356.24C959.206 356.304 958.75 356.368 958.286 356.432C957.822 356.496 957.406 356.608 957.038 356.768C956.67 356.928 956.366 357.16 956.126 357.464C955.902 357.752 955.79 358.152 955.79 358.664C955.79 359 955.854 359.288 955.982 359.528C956.126 359.752 956.302 359.936 956.51 360.08C956.734 360.224 956.99 360.328 957.278 360.392C957.566 360.456 957.87 360.488 958.19 360.488ZM969.808 357.152C968.928 357.024 968.208 356.624 967.648 355.952C967.088 355.28 966.808 354.432 966.808 353.408C966.808 352.24 967.152 351.312 967.84 350.624C968.544 349.936 969.496 349.592 970.696 349.592H976.984V362H974.944V357.224H972.232L968.44 362H965.728L969.808 357.152ZM974.944 355.472V351.392H971.344C970.48 351.392 969.856 351.576 969.472 351.944C969.088 352.312 968.896 352.808 968.896 353.432C968.896 354.072 969.088 354.576 969.472 354.944C969.856 355.296 970.48 355.472 971.344 355.472H974.944ZM992.283 362.264C990.683 362.264 989.387 361.856 988.395 361.04C987.419 360.224 986.803 358.96 986.547 357.248C986.451 356.576 986.403 355.824 986.403 354.992C986.403 354.4 986.419 353.784 986.451 353.144C986.499 352.504 986.571 351.872 986.667 351.248C986.779 350.624 986.923 350.024 987.099 349.448C987.291 348.872 987.539 348.352 987.843 347.888C988.387 347.04 989.051 346.416 989.835 346.016C990.619 345.6 991.603 345.352 992.787 345.272C993.571 345.208 994.227 345.136 994.755 345.056C995.283 344.976 995.579 344.776 995.643 344.456H997.683C997.651 345.08 997.515 345.56 997.275 345.896C997.035 346.232 996.699 346.488 996.267 346.664C995.835 346.824 995.307 346.936 994.683 347C994.059 347.048 993.331 347.104 992.499 347.168C991.811 347.216 991.211 347.376 990.699 347.648C990.187 347.92 989.747 348.288 989.379 348.752C989.027 349.2 988.739 349.736 988.515 350.36C988.291 350.968 988.131 351.64 988.035 352.376H988.107C988.459 351.56 989.003 350.888 989.739 350.36C990.491 349.832 991.395 349.568 992.451 349.568C994.195 349.568 995.571 350.112 996.579 351.2C997.587 352.288 998.091 353.856 998.091 355.904C998.091 356.944 997.947 357.864 997.659 358.664C997.387 359.448 996.995 360.112 996.483 360.656C995.971 361.184 995.355 361.584 994.635 361.856C993.931 362.128 993.147 362.264 992.283 362.264ZM992.307 360.536C992.787 360.536 993.251 360.44 993.699 360.248C994.147 360.04 994.539 359.744 994.875 359.36C995.211 358.976 995.483 358.504 995.691 357.944C995.899 357.368 996.003 356.704 996.003 355.952C996.003 354.496 995.667 353.352 994.995 352.52C994.323 351.688 993.411 351.272 992.259 351.272C991.107 351.272 990.187 351.696 989.499 352.544C988.827 353.376 988.491 354.52 988.491 355.976C988.491 357.384 988.827 358.496 989.499 359.312C990.171 360.128 991.107 360.536 992.307 360.536ZM1001.77 366.944C1001.53 366.944 1001.29 366.928 1001.05 366.896C1000.81 366.864 1000.58 366.808 1000.35 366.728V364.856C1000.54 364.92 1000.74 364.984 1000.93 365.048C1001.14 365.112 1001.34 365.144 1001.55 365.144C1001.97 365.144 1002.3 365.048 1002.56 364.856C1002.82 364.664 1003.04 364.384 1003.23 364.016L1004.07 361.928L999.153 349.592H1001.46L1005.08 359.744H1005.13L1008.61 349.592H1010.77L1005.37 363.632C1005.13 364.24 1004.89 364.752 1004.65 365.168C1004.42 365.584 1004.17 365.92 1003.88 366.176C1003.61 366.448 1003.3 366.64 1002.94 366.752C1002.61 366.88 1002.22 366.944 1001.77 366.944ZM1012.5 349.592H1014.54V355.52L1020.22 349.592H1022.94L1017.44 354.968L1023.58 362H1020.97L1015.78 356.096L1014.54 357.32V362H1012.5V349.592ZM1025.13 349.592H1030.87C1031.41 349.592 1031.93 349.632 1032.43 349.712C1032.94 349.792 1033.39 349.944 1033.79 350.168C1034.19 350.376 1034.51 350.68 1034.75 351.08C1034.99 351.48 1035.11 351.992 1035.11 352.616C1035.11 353.288 1034.95 353.832 1034.63 354.248C1034.31 354.664 1033.87 355.008 1033.29 355.28V355.304C1034.01 355.448 1034.58 355.784 1034.99 356.312C1035.43 356.84 1035.64 357.52 1035.64 358.352C1035.64 358.88 1035.55 359.368 1035.35 359.816C1035.18 360.264 1034.92 360.648 1034.59 360.968C1034.25 361.288 1033.85 361.544 1033.39 361.736C1032.92 361.912 1032.42 362 1031.87 362H1025.13V349.592ZM1031.49 360.272C1032.16 360.272 1032.67 360.08 1033 359.696C1033.35 359.296 1033.53 358.8 1033.53 358.208C1033.53 357.648 1033.35 357.2 1032.98 356.864C1032.61 356.528 1031.99 356.36 1031.13 356.36H1027.15V360.272H1031.49ZM1030.65 354.68C1031.53 354.68 1032.14 354.52 1032.47 354.2C1032.83 353.88 1033 353.456 1033 352.928C1033 352.416 1032.83 352.024 1032.5 351.752C1032.16 351.464 1031.55 351.32 1030.65 351.32H1027.15V354.68H1030.65ZM1041.52 362.264C1040.96 362.264 1040.43 362.2 1039.94 362.072C1039.44 361.96 1039 361.768 1038.62 361.496C1038.25 361.208 1037.95 360.848 1037.73 360.416C1037.52 359.968 1037.42 359.432 1037.42 358.808C1037.42 358.104 1037.54 357.528 1037.78 357.08C1038.02 356.632 1038.33 356.272 1038.71 356C1039.11 355.712 1039.56 355.496 1040.06 355.352C1040.57 355.208 1041.09 355.088 1041.62 354.992C1042.18 354.88 1042.71 354.8 1043.2 354.752C1043.71 354.688 1044.16 354.608 1044.55 354.512C1044.93 354.4 1045.23 354.248 1045.46 354.056C1045.68 353.848 1045.79 353.552 1045.79 353.168C1045.79 352.72 1045.71 352.36 1045.53 352.088C1045.37 351.816 1045.15 351.608 1044.88 351.464C1044.63 351.32 1044.33 351.224 1043.99 351.176C1043.67 351.128 1043.35 351.104 1043.03 351.104C1042.17 351.104 1041.45 351.272 1040.87 351.608C1040.3 351.928 1039.99 352.544 1039.94 353.456H1037.9C1037.93 352.688 1038.09 352.04 1038.38 351.512C1038.67 350.984 1039.05 350.56 1039.53 350.24C1040.01 349.904 1040.55 349.664 1041.16 349.52C1041.79 349.376 1042.45 349.304 1043.15 349.304C1043.71 349.304 1044.27 349.344 1044.81 349.424C1045.37 349.504 1045.87 349.672 1046.32 349.928C1046.77 350.168 1047.13 350.512 1047.4 350.96C1047.67 351.408 1047.81 351.992 1047.81 352.712V359.096C1047.81 359.576 1047.83 359.928 1047.88 360.152C1047.95 360.376 1048.14 360.488 1048.46 360.488C1048.6 360.488 1048.81 360.448 1049.08 360.368V361.952C1048.73 362.16 1048.24 362.264 1047.62 362.264C1047.09 362.264 1046.67 362.12 1046.35 361.832C1046.04 361.528 1045.89 361.04 1045.89 360.368C1045.33 361.04 1044.67 361.528 1043.92 361.832C1043.19 362.12 1042.39 362.264 1041.52 362.264ZM1041.98 360.488C1042.65 360.488 1043.23 360.4 1043.71 360.224C1044.19 360.032 1044.58 359.8 1044.88 359.528C1045.19 359.24 1045.41 358.936 1045.55 358.616C1045.7 358.28 1045.77 357.968 1045.77 357.68V355.592C1045.51 355.8 1045.18 355.944 1044.76 356.024C1044.35 356.104 1043.91 356.176 1043.44 356.24C1042.99 356.304 1042.54 356.368 1042.07 356.432C1041.61 356.496 1041.19 356.608 1040.83 356.768C1040.46 356.928 1040.15 357.16 1039.91 357.464C1039.69 357.752 1039.58 358.152 1039.58 358.664C1039.58 359 1039.64 359.288 1039.77 359.528C1039.91 359.752 1040.09 359.936 1040.3 360.08C1040.52 360.224 1040.78 360.328 1041.07 360.392C1041.35 360.456 1041.66 360.488 1041.98 360.488ZM1057.33 356.384V354.272L1060.97 351.392V353.456L1058.57 355.328L1060.97 357.2V359.264L1057.33 356.384ZM1062.03 356.384V354.272L1065.68 351.392V353.456L1063.28 355.328L1065.68 357.2V359.264L1062.03 356.384ZM1081.15 350.024C1080.9 348.808 1080.33 347.896 1079.45 347.288C1078.59 346.68 1077.55 346.376 1076.35 346.376C1075.33 346.376 1074.45 346.568 1073.71 346.952C1072.99 347.336 1072.39 347.856 1071.91 348.512C1071.45 349.152 1071.11 349.888 1070.88 350.72C1070.66 351.552 1070.55 352.416 1070.55 353.312C1070.55 354.288 1070.66 355.216 1070.88 356.096C1071.11 356.96 1071.45 357.72 1071.91 358.376C1072.39 359.016 1073 359.528 1073.74 359.912C1074.47 360.296 1075.35 360.488 1076.38 360.488C1077.13 360.488 1077.79 360.368 1078.37 360.128C1078.96 359.872 1079.47 359.528 1079.88 359.096C1080.31 358.648 1080.65 358.12 1080.89 357.512C1081.13 356.904 1081.27 356.248 1081.32 355.544H1083.6C1083.38 357.704 1082.63 359.384 1081.37 360.584C1080.11 361.784 1078.38 362.384 1076.19 362.384C1074.86 362.384 1073.7 362.16 1072.71 361.712C1071.71 361.248 1070.89 360.616 1070.23 359.816C1069.58 359.016 1069.08 358.072 1068.75 356.984C1068.43 355.896 1068.27 354.728 1068.27 353.48C1068.27 352.232 1068.44 351.064 1068.79 349.976C1069.15 348.872 1069.66 347.912 1070.33 347.096C1071.02 346.28 1071.87 345.64 1072.87 345.176C1073.9 344.696 1075.07 344.456 1076.38 344.456C1077.27 344.456 1078.12 344.576 1078.92 344.816C1079.72 345.056 1080.43 345.408 1081.06 345.872C1081.68 346.336 1082.2 346.92 1082.62 347.624C1083.03 348.312 1083.31 349.112 1083.43 350.024H1081.15ZM1094.47 354.272V356.384L1090.82 359.264V357.2L1093.22 355.328L1090.82 353.456V351.392L1094.47 354.272ZM1089.76 354.272V356.384L1086.11 359.264V357.2L1088.51 355.328L1086.11 353.456V351.392L1089.76 354.272ZM1103.88 349.592H1105.92V355.52L1111.61 349.592H1114.32L1108.82 354.968L1114.97 362H1112.35L1107.17 356.096L1105.92 357.32V362H1103.88V349.592ZM1119.94 362.264C1119.38 362.264 1118.86 362.2 1118.36 362.072C1117.86 361.96 1117.42 361.768 1117.04 361.496C1116.67 361.208 1116.38 360.848 1116.15 360.416C1115.94 359.968 1115.84 359.432 1115.84 358.808C1115.84 358.104 1115.96 357.528 1116.2 357.08C1116.44 356.632 1116.75 356.272 1117.14 356C1117.54 355.712 1117.98 355.496 1118.48 355.352C1118.99 355.208 1119.51 355.088 1120.04 354.992C1120.6 354.88 1121.13 354.8 1121.62 354.752C1122.14 354.688 1122.58 354.608 1122.97 354.512C1123.35 354.4 1123.66 354.248 1123.88 354.056C1124.1 353.848 1124.22 353.552 1124.22 353.168C1124.22 352.72 1124.13 352.36 1123.95 352.088C1123.79 351.816 1123.58 351.608 1123.3 351.464C1123.05 351.32 1122.75 351.224 1122.42 351.176C1122.1 351.128 1121.78 351.104 1121.46 351.104C1120.59 351.104 1119.87 351.272 1119.3 351.608C1118.72 351.928 1118.41 352.544 1118.36 353.456H1116.32C1116.35 352.688 1116.51 352.04 1116.8 351.512C1117.09 350.984 1117.47 350.56 1117.95 350.24C1118.43 349.904 1118.98 349.664 1119.58 349.52C1120.21 349.376 1120.87 349.304 1121.58 349.304C1122.14 349.304 1122.69 349.344 1123.23 349.424C1123.79 349.504 1124.3 349.672 1124.74 349.928C1125.19 350.168 1125.55 350.512 1125.82 350.96C1126.1 351.408 1126.23 351.992 1126.23 352.712V359.096C1126.23 359.576 1126.26 359.928 1126.3 360.152C1126.37 360.376 1126.56 360.488 1126.88 360.488C1127.02 360.488 1127.23 360.448 1127.5 360.368V361.952C1127.15 362.16 1126.66 362.264 1126.04 362.264C1125.51 362.264 1125.09 362.12 1124.77 361.832C1124.46 361.528 1124.31 361.04 1124.31 360.368C1123.75 361.04 1123.1 361.528 1122.34 361.832C1121.61 362.12 1120.81 362.264 1119.94 362.264ZM1120.4 360.488C1121.07 360.488 1121.65 360.4 1122.13 360.224C1122.61 360.032 1123 359.8 1123.3 359.528C1123.61 359.24 1123.83 358.936 1123.98 358.616C1124.12 358.28 1124.19 357.968 1124.19 357.68V355.592C1123.94 355.8 1123.6 355.944 1123.18 356.024C1122.77 356.104 1122.33 356.176 1121.86 356.24C1121.42 356.304 1120.96 356.368 1120.5 356.432C1120.03 356.496 1119.62 356.608 1119.25 356.768C1118.88 356.928 1118.58 357.16 1118.34 357.464C1118.11 357.752 1118 358.152 1118 358.664C1118 359 1118.06 359.288 1118.19 359.528C1118.34 359.752 1118.51 359.936 1118.72 360.08C1118.94 360.224 1119.2 360.328 1119.49 360.392C1119.78 360.456 1120.08 360.488 1120.4 360.488ZM1129.4 349.592H1131.44V355.52L1137.13 349.592H1139.84L1134.35 354.968L1140.49 362H1137.88L1132.69 356.096L1131.44 357.32V362H1129.4V349.592ZM1148.72 349.592H1151.64L1155.41 359.648H1155.46L1159.23 349.592H1162.16V362H1160.12V352.16L1156.37 362H1154.5L1150.76 352.16V362H1148.72V349.592ZM1170.59 362.264C1169.6 362.264 1168.73 362.104 1167.98 361.784C1167.24 361.448 1166.62 360.992 1166.1 360.416C1165.59 359.824 1165.21 359.136 1164.95 358.352C1164.7 357.568 1164.57 356.72 1164.57 355.808C1164.57 354.896 1164.7 354.048 1164.95 353.264C1165.21 352.464 1165.59 351.776 1166.1 351.2C1166.62 350.608 1167.24 350.144 1167.98 349.808C1168.73 349.472 1169.6 349.304 1170.59 349.304C1171.57 349.304 1172.43 349.472 1173.18 349.808C1173.94 350.144 1174.57 350.608 1175.08 351.2C1175.59 351.776 1175.98 352.464 1176.23 353.264C1176.49 354.048 1176.62 354.896 1176.62 355.808C1176.62 356.72 1176.49 357.568 1176.23 358.352C1175.98 359.136 1175.59 359.824 1175.08 360.416C1174.57 360.992 1173.94 361.448 1173.18 361.784C1172.43 362.104 1171.57 362.264 1170.59 362.264ZM1170.59 360.488C1171.12 360.488 1171.62 360.384 1172.08 360.176C1172.56 359.968 1172.98 359.672 1173.33 359.288C1173.68 358.888 1173.95 358.4 1174.14 357.824C1174.35 357.232 1174.46 356.56 1174.46 355.808C1174.46 355.056 1174.35 354.392 1174.14 353.816C1173.95 353.224 1173.68 352.728 1173.33 352.328C1172.98 351.928 1172.56 351.624 1172.08 351.416C1171.62 351.208 1171.12 351.104 1170.59 351.104C1170.06 351.104 1169.56 351.208 1169.08 351.416C1168.62 351.624 1168.21 351.928 1167.86 352.328C1167.5 352.728 1167.22 353.224 1167.02 353.816C1166.82 354.392 1166.73 355.056 1166.73 355.808C1166.73 356.56 1166.82 357.232 1167.02 357.824C1167.22 358.4 1167.5 358.888 1167.86 359.288C1168.21 359.672 1168.62 359.968 1169.08 360.176C1169.56 360.384 1170.06 360.488 1170.59 360.488ZM1177.56 360.2H1179.02C1179.2 359.864 1179.37 359.408 1179.55 358.832C1179.74 358.24 1179.91 357.592 1180.05 356.888C1180.21 356.168 1180.34 355.408 1180.44 354.608C1180.53 353.808 1180.58 353.024 1180.58 352.256V349.592H1189.56V360.2H1191.24V365.768H1189.29V362H1179.5V365.768H1177.56V360.2ZM1187.52 360.2V351.392H1182.57V352.448C1182.57 353.232 1182.52 354.016 1182.43 354.8C1182.35 355.568 1182.24 356.296 1182.09 356.984C1181.95 357.672 1181.79 358.296 1181.61 358.856C1181.45 359.416 1181.29 359.864 1181.13 360.2H1187.52ZM1194.43 366.944C1194.19 366.944 1193.95 366.928 1193.71 366.896C1193.47 366.864 1193.23 366.808 1193.01 366.728V364.856C1193.2 364.92 1193.39 364.984 1193.59 365.048C1193.79 365.112 1194 365.144 1194.21 365.144C1194.63 365.144 1194.96 365.048 1195.22 364.856C1195.47 364.664 1195.7 364.384 1195.89 364.016L1196.73 361.928L1191.81 349.592H1194.11L1197.74 359.744H1197.79L1201.27 349.592H1203.43L1198.03 363.632C1197.79 364.24 1197.55 364.752 1197.31 365.168C1197.08 365.584 1196.83 365.92 1196.54 366.176C1196.27 366.448 1195.95 366.64 1195.6 366.752C1195.27 366.88 1194.87 366.944 1194.43 366.944ZM1205.06 362.144C1204.85 362.144 1204.63 362.12 1204.41 362.072C1204.19 362.04 1204 362.008 1203.86 361.976V360.176C1204.02 360.224 1204.16 360.256 1204.29 360.272C1204.43 360.288 1204.57 360.296 1204.7 360.296C1205.23 360.296 1205.63 360.088 1205.9 359.672C1206.19 359.256 1206.39 358.616 1206.52 357.752C1206.67 356.888 1206.75 355.784 1206.79 354.44C1206.82 353.08 1206.85 351.464 1206.88 349.592H1215.59V362H1213.55V351.392H1208.85C1208.8 352.848 1208.75 354.232 1208.68 355.544C1208.63 356.84 1208.5 357.976 1208.27 358.952C1208.05 359.928 1207.69 360.704 1207.19 361.28C1206.7 361.856 1205.99 362.144 1205.06 362.144ZM1218.8 349.592H1220.84V354.344H1225.25C1226.47 354.344 1227.44 354.68 1228.18 355.352C1228.92 356.008 1229.28 356.936 1229.28 358.136C1229.28 359.304 1228.93 360.24 1228.23 360.944C1227.52 361.648 1226.56 362 1225.35 362H1218.8V349.592ZM1224.6 360.2C1226.32 360.2 1227.17 359.512 1227.17 358.136C1227.17 356.776 1226.32 356.096 1224.6 356.096H1220.84V360.2H1224.6ZM878.072 389.2H879.536C879.712 388.864 879.888 388.408 880.064 387.832C880.256 387.24 880.424 386.592 880.568 385.888C880.728 385.168 880.856 384.408 880.952 383.608C881.048 382.808 881.096 382.024 881.096 381.256V378.592H890.072V389.2H891.752V394.768H889.808V391H880.016V394.768H878.072V389.2ZM888.032 389.2V380.392H883.088V381.448C883.088 382.232 883.04 383.016 882.944 383.8C882.864 384.568 882.752 385.296 882.608 385.984C882.464 386.672 882.304 387.296 882.128 387.856C881.968 388.416 881.808 388.864 881.648 389.2H888.032ZM893.573 391.144C893.365 391.144 893.149 391.12 892.925 391.072C892.701 391.04 892.517 391.008 892.373 390.976V389.176C892.533 389.224 892.677 389.256 892.805 389.272C892.949 389.288 893.085 389.296 893.213 389.296C893.741 389.296 894.141 389.088 894.413 388.672C894.701 388.256 894.909 387.616 895.037 386.752C895.181 385.888 895.269 384.784 895.301 383.44C895.333 382.08 895.365 380.464 895.397 378.592H904.109V391H902.069V380.392H897.365C897.317 381.848 897.261 383.232 897.197 384.544C897.149 385.84 897.013 386.976 896.789 387.952C896.565 388.928 896.205 389.704 895.709 390.28C895.213 390.856 894.501 391.144 893.573 391.144ZM909.808 386.152C908.928 386.024 908.208 385.624 907.648 384.952C907.088 384.28 906.808 383.432 906.808 382.408C906.808 381.24 907.152 380.312 907.84 379.624C908.544 378.936 909.496 378.592 910.696 378.592H916.984V391H914.944V386.224H912.232L908.44 391H905.728L909.808 386.152ZM914.944 384.472V380.392H911.344C910.48 380.392 909.856 380.576 909.472 380.944C909.088 381.312 908.896 381.808 908.896 382.432C908.896 383.072 909.088 383.576 909.472 383.944C909.856 384.296 910.48 384.472 911.344 384.472H914.944ZM932.091 391.264C931.099 391.264 930.227 391.104 929.475 390.784C928.739 390.448 928.115 389.992 927.603 389.416C927.091 388.824 926.707 388.136 926.451 387.352C926.195 386.568 926.067 385.72 926.067 384.808C926.067 383.896 926.195 383.048 926.451 382.264C926.707 381.464 927.091 380.776 927.603 380.2C928.115 379.608 928.739 379.144 929.475 378.808C930.227 378.472 931.099 378.304 932.091 378.304C933.067 378.304 933.931 378.472 934.683 378.808C935.435 379.144 936.067 379.608 936.579 380.2C937.091 380.776 937.475 381.464 937.731 382.264C937.987 383.048 938.115 383.896 938.115 384.808C938.115 385.72 937.987 386.568 937.731 387.352C937.475 388.136 937.091 388.824 936.579 389.416C936.067 389.992 935.435 390.448 934.683 390.784C933.931 391.104 933.067 391.264 932.091 391.264ZM932.091 389.488C932.619 389.488 933.115 389.384 933.579 389.176C934.059 388.968 934.475 388.672 934.827 388.288C935.179 387.888 935.451 387.4 935.643 386.824C935.851 386.232 935.955 385.56 935.955 384.808C935.955 384.056 935.851 383.392 935.643 382.816C935.451 382.224 935.179 381.728 934.827 381.328C934.475 380.928 934.059 380.624 933.579 380.416C933.115 380.208 932.619 380.104 932.091 380.104C931.563 380.104 931.059 380.208 930.579 380.416C930.115 380.624 929.707 380.928 929.355 381.328C929.003 381.728 928.723 382.224 928.515 382.816C928.323 383.392 928.227 384.056 928.227 384.808C928.227 385.56 928.323 386.232 928.515 386.824C928.723 387.4 929.003 387.888 929.355 388.288C929.707 388.672 930.115 388.968 930.579 389.176C931.059 389.384 931.563 389.488 932.091 389.488ZM943.856 384.472L939.536 378.592H942.152L945.128 382.936L948.224 378.592H950.672L946.4 384.304L951.2 391H948.584L945.128 385.864L941.672 391H939.2L943.856 384.472ZM953.014 378.592H955.054V380.272H955.102C955.438 379.584 955.966 379.088 956.686 378.784C957.406 378.464 958.198 378.304 959.062 378.304C960.022 378.304 960.854 378.48 961.558 378.832C962.278 379.184 962.87 379.664 963.334 380.272C963.814 380.864 964.174 381.552 964.414 382.336C964.654 383.12 964.774 383.952 964.774 384.832C964.774 385.728 964.654 386.568 964.414 387.352C964.19 388.12 963.838 388.8 963.358 389.392C962.894 389.968 962.302 390.424 961.582 390.76C960.878 391.096 960.054 391.264 959.11 391.264C958.79 391.264 958.446 391.232 958.078 391.168C957.71 391.104 957.342 391 956.974 390.856C956.606 390.712 956.254 390.52 955.918 390.28C955.598 390.024 955.326 389.712 955.102 389.344H955.054V395.728H953.014V378.592ZM958.894 389.488C959.582 389.488 960.166 389.352 960.646 389.08C961.126 388.808 961.51 388.448 961.798 388C962.086 387.552 962.294 387.04 962.422 386.464C962.55 385.888 962.614 385.296 962.614 384.688C962.614 384.112 962.534 383.552 962.374 383.008C962.23 382.448 961.998 381.952 961.678 381.52C961.374 381.088 960.974 380.744 960.478 380.488C959.998 380.232 959.43 380.104 958.774 380.104C958.086 380.104 957.502 380.24 957.022 380.512C956.542 380.784 956.15 381.144 955.846 381.592C955.542 382.024 955.318 382.52 955.174 383.08C955.046 383.64 954.982 384.208 954.982 384.784C954.982 385.392 955.054 385.984 955.198 386.56C955.342 387.12 955.566 387.616 955.87 388.048C956.19 388.48 956.598 388.832 957.094 389.104C957.59 389.36 958.19 389.488 958.894 389.488ZM970.601 391.264C970.041 391.264 969.513 391.2 969.017 391.072C968.521 390.96 968.081 390.768 967.697 390.496C967.329 390.208 967.033 389.848 966.809 389.416C966.601 388.968 966.497 388.432 966.497 387.808C966.497 387.104 966.617 386.528 966.857 386.08C967.097 385.632 967.409 385.272 967.793 385C968.193 384.712 968.641 384.496 969.137 384.352C969.649 384.208 970.169 384.088 970.697 383.992C971.257 383.88 971.785 383.8 972.281 383.752C972.793 383.688 973.241 383.608 973.625 383.512C974.009 383.4 974.313 383.248 974.537 383.056C974.761 382.848 974.873 382.552 974.873 382.168C974.873 381.72 974.785 381.36 974.609 381.088C974.449 380.816 974.233 380.608 973.961 380.464C973.705 380.32 973.409 380.224 973.073 380.176C972.753 380.128 972.433 380.104 972.113 380.104C971.249 380.104 970.529 380.272 969.953 380.608C969.377 380.928 969.065 381.544 969.017 382.456H966.977C967.009 381.688 967.169 381.04 967.457 380.512C967.745 379.984 968.129 379.56 968.609 379.24C969.089 378.904 969.633 378.664 970.241 378.52C970.865 378.376 971.529 378.304 972.233 378.304C972.793 378.304 973.345 378.344 973.889 378.424C974.449 378.504 974.953 378.672 975.401 378.928C975.849 379.168 976.209 379.512 976.481 379.96C976.753 380.408 976.889 380.992 976.889 381.712V388.096C976.889 388.576 976.913 388.928 976.961 389.152C977.025 389.376 977.217 389.488 977.537 389.488C977.681 389.488 977.889 389.448 978.161 389.368V390.952C977.809 391.16 977.321 391.264 976.697 391.264C976.169 391.264 975.745 391.12 975.425 390.832C975.121 390.528 974.969 390.04 974.969 389.368C974.409 390.04 973.753 390.528 973.001 390.832C972.265 391.12 971.465 391.264 970.601 391.264ZM971.057 389.488C971.729 389.488 972.305 389.4 972.785 389.224C973.265 389.032 973.657 388.8 973.961 388.528C974.265 388.24 974.489 387.936 974.633 387.616C974.777 387.28 974.849 386.968 974.849 386.68V384.592C974.593 384.8 974.257 384.944 973.841 385.024C973.425 385.104 972.985 385.176 972.521 385.24C972.073 385.304 971.617 385.368 971.153 385.432C970.689 385.496 970.273 385.608 969.905 385.768C969.537 385.928 969.233 386.16 968.993 386.464C968.769 386.752 968.657 387.152 968.657 387.664C968.657 388 968.721 388.288 968.849 388.528C968.993 388.752 969.169 388.936 969.377 389.08C969.601 389.224 969.857 389.328 970.145 389.392C970.433 389.456 970.737 389.488 971.057 389.488ZM980.059 378.592H982.099V383.536H988.387V378.592H990.427V391H988.387V385.288H982.099V391H980.059V378.592ZM993.489 378.592H995.529V383.536H1001.82V378.592H1003.86V391H1001.82V385.288H995.529V391H993.489V378.592ZM1012.27 391.264C1011.28 391.264 1010.41 391.104 1009.65 390.784C1008.92 390.448 1008.29 389.992 1007.78 389.416C1007.27 388.824 1006.89 388.136 1006.63 387.352C1006.37 386.568 1006.25 385.72 1006.25 384.808C1006.25 383.896 1006.37 383.048 1006.63 382.264C1006.89 381.464 1007.27 380.776 1007.78 380.2C1008.29 379.608 1008.92 379.144 1009.65 378.808C1010.41 378.472 1011.28 378.304 1012.27 378.304C1013.25 378.304 1014.11 378.472 1014.86 378.808C1015.61 379.144 1016.25 379.608 1016.76 380.2C1017.27 380.776 1017.65 381.464 1017.91 382.264C1018.17 383.048 1018.29 383.896 1018.29 384.808C1018.29 385.72 1018.17 386.568 1017.91 387.352C1017.65 388.136 1017.27 388.824 1016.76 389.416C1016.25 389.992 1015.61 390.448 1014.86 390.784C1014.11 391.104 1013.25 391.264 1012.27 391.264ZM1012.27 389.488C1012.8 389.488 1013.29 389.384 1013.76 389.176C1014.24 388.968 1014.65 388.672 1015.01 388.288C1015.36 387.888 1015.63 387.4 1015.82 386.824C1016.03 386.232 1016.13 385.56 1016.13 384.808C1016.13 384.056 1016.03 383.392 1015.82 382.816C1015.63 382.224 1015.36 381.728 1015.01 381.328C1014.65 380.928 1014.24 380.624 1013.76 380.416C1013.29 380.208 1012.8 380.104 1012.27 380.104C1011.74 380.104 1011.24 380.208 1010.76 380.416C1010.29 380.624 1009.89 380.928 1009.53 381.328C1009.18 381.728 1008.9 382.224 1008.69 382.816C1008.5 383.392 1008.41 384.056 1008.41 384.808C1008.41 385.56 1008.5 386.232 1008.69 386.824C1008.9 387.4 1009.18 387.888 1009.53 388.288C1009.89 388.672 1010.29 388.968 1010.76 389.176C1011.24 389.384 1011.74 389.488 1012.27 389.488ZM1020.75 378.592H1029.24V380.392H1022.79V391H1020.75V378.592ZM1036.22 391.264C1035.23 391.264 1034.36 391.104 1033.61 390.784C1032.87 390.448 1032.25 389.992 1031.74 389.416C1031.22 388.824 1030.84 388.136 1030.58 387.352C1030.33 386.568 1030.2 385.72 1030.2 384.808C1030.2 383.896 1030.33 383.048 1030.58 382.264C1030.84 381.464 1031.22 380.776 1031.74 380.2C1032.25 379.608 1032.87 379.144 1033.61 378.808C1034.36 378.472 1035.23 378.304 1036.22 378.304C1037.2 378.304 1038.06 378.472 1038.82 378.808C1039.57 379.144 1040.2 379.608 1040.71 380.2C1041.22 380.776 1041.61 381.464 1041.86 382.264C1042.12 383.048 1042.25 383.896 1042.25 384.808C1042.25 385.72 1042.12 386.568 1041.86 387.352C1041.61 388.136 1041.22 388.824 1040.71 389.416C1040.2 389.992 1039.57 390.448 1038.82 390.784C1038.06 391.104 1037.2 391.264 1036.22 391.264ZM1036.22 389.488C1036.75 389.488 1037.25 389.384 1037.71 389.176C1038.19 388.968 1038.61 388.672 1038.96 388.288C1039.31 387.888 1039.58 387.4 1039.78 386.824C1039.98 386.232 1040.09 385.56 1040.09 384.808C1040.09 384.056 1039.98 383.392 1039.78 382.816C1039.58 382.224 1039.31 381.728 1038.96 381.328C1038.61 380.928 1038.19 380.624 1037.71 380.416C1037.25 380.208 1036.75 380.104 1036.22 380.104C1035.7 380.104 1035.19 380.208 1034.71 380.416C1034.25 380.624 1033.84 380.928 1033.49 381.328C1033.14 381.728 1032.86 382.224 1032.65 382.816C1032.46 383.392 1032.36 384.056 1032.36 384.808C1032.36 385.56 1032.46 386.232 1032.65 386.824C1032.86 387.4 1033.14 387.888 1033.49 388.288C1033.84 388.672 1034.25 388.968 1034.71 389.176C1035.19 389.384 1035.7 389.488 1036.22 389.488ZM1051.33 378.592H1061.46V391H1059.42V380.392H1053.37V391H1051.33V378.592ZM1069.88 391.264C1068.89 391.264 1068.02 391.104 1067.26 390.784C1066.53 390.448 1065.9 389.992 1065.39 389.416C1064.88 388.824 1064.5 388.136 1064.24 387.352C1063.98 386.568 1063.86 385.72 1063.86 384.808C1063.86 383.896 1063.98 383.048 1064.24 382.264C1064.5 381.464 1064.88 380.776 1065.39 380.2C1065.9 379.608 1066.53 379.144 1067.26 378.808C1068.02 378.472 1068.89 378.304 1069.88 378.304C1070.86 378.304 1071.72 378.472 1072.47 378.808C1073.22 379.144 1073.86 379.608 1074.37 380.2C1074.88 380.776 1075.26 381.464 1075.52 382.264C1075.78 383.048 1075.9 383.896 1075.9 384.808C1075.9 385.72 1075.78 386.568 1075.52 387.352C1075.26 388.136 1074.88 388.824 1074.37 389.416C1073.86 389.992 1073.22 390.448 1072.47 390.784C1071.72 391.104 1070.86 391.264 1069.88 391.264ZM1069.88 389.488C1070.41 389.488 1070.9 389.384 1071.37 389.176C1071.85 388.968 1072.26 388.672 1072.62 388.288C1072.97 387.888 1073.24 387.4 1073.43 386.824C1073.64 386.232 1073.74 385.56 1073.74 384.808C1073.74 384.056 1073.64 383.392 1073.43 382.816C1073.24 382.224 1072.97 381.728 1072.62 381.328C1072.26 380.928 1071.85 380.624 1071.37 380.416C1070.9 380.208 1070.41 380.104 1069.88 380.104C1069.35 380.104 1068.85 380.208 1068.37 380.416C1067.9 380.624 1067.5 380.928 1067.14 381.328C1066.79 381.728 1066.51 382.224 1066.3 382.816C1066.11 383.392 1066.02 384.056 1066.02 384.808C1066.02 385.56 1066.11 386.232 1066.3 386.824C1066.51 387.4 1066.79 387.888 1067.14 388.288C1067.5 388.672 1067.9 388.968 1068.37 389.176C1068.85 389.384 1069.35 389.488 1069.88 389.488ZM1078.21 391.144C1078.01 391.144 1077.79 391.12 1077.57 391.072C1077.34 391.04 1077.16 391.008 1077.01 390.976V389.176C1077.17 389.224 1077.32 389.256 1077.45 389.272C1077.59 389.288 1077.73 389.296 1077.85 389.296C1078.38 389.296 1078.78 389.088 1079.05 388.672C1079.34 388.256 1079.55 387.616 1079.68 386.752C1079.82 385.888 1079.91 384.784 1079.94 383.44C1079.97 382.08 1080.01 380.464 1080.04 378.592H1088.75V391H1086.71V380.392H1082.01C1081.96 381.848 1081.9 383.232 1081.84 384.544C1081.79 385.84 1081.65 386.976 1081.43 387.952C1081.21 388.928 1080.85 389.704 1080.35 390.28C1079.85 390.856 1079.14 391.144 1078.21 391.144ZM1094.45 386.152C1093.57 386.024 1092.85 385.624 1092.29 384.952C1091.73 384.28 1091.45 383.432 1091.45 382.408C1091.45 381.24 1091.79 380.312 1092.48 379.624C1093.18 378.936 1094.14 378.592 1095.34 378.592H1101.62V391H1099.58V386.224H1096.87L1093.08 391H1090.37L1094.45 386.152ZM1099.58 384.472V380.392H1095.98C1095.12 380.392 1094.5 380.576 1094.11 380.944C1093.73 381.312 1093.54 381.808 1093.54 382.432C1093.54 383.072 1093.73 383.576 1094.11 383.944C1094.5 384.296 1095.12 384.472 1095.98 384.472H1099.58ZM1105.16 388.336H1107.82V391H1105.16V388.336Z" fill="#1F2522"/>
<rect x="1155" y="183" width="81" height="80" fill="#1F2522"/>
<line x1="1137" y1="182.75" x2="1254" y2="182.75" stroke="black" stroke-width="0.5"/>
<line x1="1137" y1="262.75" x2="1254" y2="262.75" stroke="black" stroke-width="0.5"/>
<line x1="1154.75" y1="282" x2="1154.75" y2="165" stroke="black" stroke-width="0.5"/>
<line x1="1235.75" y1="282" x2="1235.75" y2="165" stroke="black" stroke-width="0.5"/>
<path d="M1196.54 177H1194.5V164.808H1190.09V163.176C1190.66 163.176 1191.22 163.136 1191.77 163.056C1192.31 162.96 1192.8 162.792 1193.23 162.552C1193.68 162.312 1194.06 161.984 1194.36 161.568C1194.66 161.152 1194.87 160.624 1194.98 159.984H1196.54V177Z" fill="#1F2522"/>
<path d="M1249.54 232H1247.5V219.808H1243.09V218.176C1243.66 218.176 1244.22 218.136 1244.77 218.056C1245.31 217.96 1245.8 217.792 1246.23 217.552C1246.68 217.312 1247.06 216.984 1247.36 216.568C1247.66 216.152 1247.87 215.624 1247.98 214.984H1249.54V232Z" fill="#1F2522"/>
<path d="M1196.54 287H1194.5V274.808H1190.09V273.176C1190.66 273.176 1191.22 273.136 1191.77 273.056C1192.31 272.96 1192.8 272.792 1193.23 272.552C1193.68 272.312 1194.06 271.984 1194.36 271.568C1194.66 271.152 1194.87 270.624 1194.98 269.984H1196.54V287Z" fill="#1F2522"/>
<path d="M1146.54 232H1144.5V219.808H1140.09V218.176C1140.66 218.176 1141.22 218.136 1141.77 218.056C1142.31 217.96 1142.8 217.792 1143.23 217.552C1143.68 217.312 1144.06 216.984 1144.36 216.568C1144.66 216.152 1144.87 215.624 1144.98 214.984H1146.54V232Z" fill="#1F2522"/>
<line x1="878" y1="260.75" x2="1061" y2="260.75" stroke="black" stroke-width="0.5"/>
<line x1="878" y1="180.75" x2="1061" y2="180.75" stroke="black" stroke-width="0.5"/>
<rect x="899" y="181" width="81" height="80" fill="#1F2522"/>
<path d="M1015.26 261.12C1007.66 261.12 1002.13 259.423 998.67 256.03C995.209 252.569 993.479 247.175 993.479 239.846V201.777C993.479 194.449 995.209 189.088 998.67 185.695C1002.13 182.234 1007.66 180.504 1015.26 180.504C1022.05 180.504 1027.2 182.2 1030.73 185.593C1034.26 188.918 1036.03 193.566 1036.03 199.538C1036.03 201.234 1035.96 202.897 1035.82 204.526C1035.69 206.086 1035.55 207.511 1035.42 208.801C1035.21 210.294 1035.04 211.685 1034.91 212.974H1019.23V201.777C1019.23 199.809 1018.86 198.384 1018.11 197.502C1017.36 196.62 1016.41 196.179 1015.26 196.179C1014.18 196.179 1013.26 196.62 1012.51 197.502C1011.77 198.384 1011.39 199.809 1011.39 201.777V239.846C1011.39 241.814 1011.77 243.239 1012.51 244.121C1013.26 245.003 1014.18 245.444 1015.26 245.444C1016.41 245.444 1017.36 245.003 1018.11 244.121C1018.86 243.239 1019.23 241.814 1019.23 239.846V227.53H1034.91C1035.04 228.887 1035.21 230.346 1035.42 231.907C1035.55 233.264 1035.69 234.824 1035.82 236.589C1035.96 238.285 1036.03 240.117 1036.03 242.085C1036.03 247.989 1034.26 252.637 1030.73 256.03C1027.2 259.423 1022.05 261.12 1015.26 261.12Z" fill="#1F2522"/>
</svg>
