<svg width="1442" height="413" viewBox="0 0 1442 413" fill="none" xmlns="http://www.w3.org/2000/svg">
<path d="M108.772 412.587C70.9256 412.587 43.3858 404.139 26.1524 387.244C8.91888 370.01 0.302142 343.146 0.302142 306.652V117.084C0.302142 80.5895 8.91888 53.8945 26.1524 36.9989C43.3858 19.7655 70.9256 11.1487 108.772 11.1487C142.563 11.1487 168.244 19.5965 185.815 36.4921C203.387 53.0497 212.172 76.1966 212.172 105.933C212.172 114.381 211.835 122.659 211.159 130.769C210.483 138.541 209.807 145.637 209.131 152.058C208.118 159.492 207.273 166.419 206.597 172.839H128.539V117.084C128.539 107.284 126.681 100.188 122.964 95.7955C119.247 91.4026 114.516 89.2062 108.772 89.2062C103.365 89.2062 98.8033 91.4026 95.0862 95.7955C91.3692 100.188 89.5107 107.284 89.5107 117.084V306.652C89.5107 316.452 91.3692 323.548 95.0862 327.94C98.8033 332.333 103.365 334.53 108.772 334.53C114.516 334.53 119.247 332.333 122.964 327.94C126.681 323.548 128.539 316.452 128.539 306.652V245.321H206.597C207.273 252.079 208.118 259.345 209.131 267.116C209.807 273.875 210.483 281.647 211.159 290.432C211.835 298.88 212.172 308.004 212.172 317.803C212.172 347.201 203.387 370.348 185.815 387.244C168.244 404.139 142.563 412.587 108.772 412.587ZM307.016 412.587C291.81 412.587 278.631 406.336 267.48 393.833C256.667 380.993 251.261 361.225 251.261 334.53V117.084H334.894V312.228C334.894 327.096 339.624 334.53 349.086 334.53C353.141 334.53 356.351 332.671 358.716 328.954C361.42 324.899 362.771 319.324 362.771 312.228V117.084H446.404V407.012H362.771V384.71L370.881 356.832H365.306C362.94 367.307 359.223 376.6 354.155 384.71C349.762 391.806 343.679 398.226 335.907 403.971C328.473 409.715 318.843 412.587 307.016 412.587ZM490.834 -0.00235542H574.467V407.012H490.834V-0.00235542ZM713.82 412.587C687.463 412.587 667.864 406.167 655.024 393.326C642.183 380.148 635.763 358.69 635.763 328.954V189.566H607.885V117.084H635.763V50.1774H719.396V117.084H760.959V189.566H719.396V312.228C719.396 320.675 720.747 326.589 723.451 329.968C726.154 333.009 730.378 334.53 736.122 334.53C741.529 334.53 747.104 333.685 752.849 331.995C755.552 330.982 758.255 329.968 760.959 328.954V401.436C756.904 403.802 752.511 405.66 747.78 407.012C743.725 408.701 738.657 410.053 732.574 411.067C726.83 412.08 720.578 412.587 713.82 412.587ZM876.54 39.5333L877.174 102.892H932.929V111.762H877.174L879.708 327.814C880.342 372.165 891.113 398.775 914.555 398.775C951.937 400.676 969.043 320.211 973.479 277.127H980.448C975.379 316.409 962.708 412.08 908.219 412.08C870.838 412.08 844.227 381.035 843.594 316.409L842.327 137.739C842.327 106.693 813.182 109.861 787.205 109.227V102.892C824.586 102.258 834.724 102.892 852.464 90.22C874.006 75.014 870.204 39.5333 871.472 39.5333H876.54ZM1082.55 398.775C1133.24 400.676 1165.55 320.211 1171.89 277.127H1177.59C1169.99 320.211 1154.15 412.08 1082.55 412.08C1023 412.08 968.509 339.218 968.509 242.914C968.509 149.777 1021.1 80.7162 1078.75 76.9147C1175.06 76.9147 1171.26 202.364 1173.79 235.944H1008.42V242.914C1008.42 332.882 1033.77 398.775 1082.55 398.775ZM1009.06 222.639H1139.58C1138.31 178.288 1133.24 87.6857 1078.75 89.5864C1030.6 90.8536 1013.49 151.678 1009.06 222.639ZM1394.82 373.432C1394.82 404.477 1411.29 400.676 1441.07 401.943V408.279H1361.24V381.035C1342.23 396.241 1309.29 412.714 1273.81 412.714C1227.56 412.714 1196.51 389.271 1196.51 334.783C1196.51 244.814 1296.62 228.975 1361.24 205.532V164.349C1361.24 126.968 1347.3 92.1207 1314.36 92.1207C1267.47 92.1207 1232.62 149.777 1216.78 225.173L1212.35 224.54L1240.86 78.8155L1247.2 79.4491L1244.03 129.502L1245.3 130.136C1266.2 95.2887 1291.55 78.1819 1321.33 78.1819C1360.61 78.1819 1394.19 104.159 1394.19 164.349L1394.82 373.432ZM1230.72 330.348C1230.72 370.897 1252.27 395.607 1287.11 395.607C1313.72 395.607 1336.53 386.737 1361.24 369.63V215.67C1304.22 236.578 1230.72 243.547 1230.72 330.348Z" fill="#F6F0E0"/>
</svg>
