<svg width="1203" height="285" viewBox="0 0 1203 285" fill="none" xmlns="http://www.w3.org/2000/svg">
<path d="M44.8351 228.826C32.4384 228.826 23.4175 226.059 17.7726 220.525C12.1277 214.88 9.30521 206.081 9.30521 194.127V132.032C9.30521 120.078 12.1277 111.334 17.7726 105.8C23.4175 100.155 32.4384 97.3325 44.8351 97.3325C55.9036 97.3325 64.3157 100.1 70.0713 105.634C75.8269 111.057 78.7047 118.639 78.7047 128.38C78.7047 131.147 78.594 133.859 78.3726 136.515C78.1513 139.061 77.9299 141.385 77.7085 143.488C77.3765 145.923 77.0998 148.192 76.8784 150.295H51.3102V132.032C51.3102 128.822 50.7014 126.498 49.4839 125.059C48.2663 123.62 46.7167 122.901 44.8351 122.901C43.0641 122.901 41.5699 123.62 40.3524 125.059C39.1348 126.498 38.5261 128.822 38.5261 132.032V194.127C38.5261 197.336 39.1348 199.661 40.3524 201.1C41.5699 202.539 43.0641 203.258 44.8351 203.258C46.7167 203.258 48.2663 202.539 49.4839 201.1C50.7014 199.661 51.3102 197.336 51.3102 194.127V174.037H76.8784C77.0998 176.251 77.3765 178.631 77.7085 181.176C77.9299 183.39 78.1513 185.936 78.3726 188.814C78.594 191.581 78.7047 194.569 78.7047 197.779C78.7047 207.409 75.8269 214.991 70.0713 220.525C64.3157 226.059 55.9036 228.826 44.8351 228.826ZM109.771 228.826C104.79 228.826 100.474 226.779 96.8212 222.683C93.2792 218.477 91.5083 212.002 91.5083 203.258V132.032H118.903V195.953C118.903 200.823 120.452 203.258 123.552 203.258C124.88 203.258 125.931 202.649 126.706 201.432C127.592 200.104 128.034 198.277 128.034 195.953V132.032H155.429V227H128.034V219.695L130.691 210.563H128.864C128.09 213.995 126.872 217.038 125.212 219.695C123.773 222.019 121.781 224.122 119.235 226.004C116.8 227.885 113.645 228.826 109.771 228.826ZM169.982 93.6799H197.377V227H169.982V93.6799ZM243.023 228.826C234.389 228.826 227.969 226.723 223.763 222.517C219.557 218.201 217.454 211.172 217.454 201.432V155.774H208.323V132.032H217.454V110.117H244.849V132.032H258.463V155.774H244.849V195.953C244.849 198.72 245.292 200.657 246.177 201.764C247.063 202.76 248.446 203.258 250.328 203.258C252.099 203.258 253.925 202.981 255.807 202.428C256.692 202.096 257.578 201.764 258.463 201.432V225.174C257.135 225.948 255.696 226.557 254.146 227C252.818 227.553 251.158 227.996 249.166 228.328C247.284 228.66 245.236 228.826 243.023 228.826Z" fill="#1F2522"/>
<path d="M292.532 120.486L292.714 138.67H308.716V141.216H292.714L293.441 203.223C293.623 215.952 296.714 223.589 303.442 223.589C314.171 224.135 319.081 201.041 320.353 188.676H322.354C320.899 199.95 317.262 227.408 301.624 227.408C290.895 227.408 283.258 218.498 283.076 199.95L282.713 148.671C282.713 139.761 274.348 140.67 266.893 140.489V138.67C277.621 138.488 280.531 138.67 285.622 135.033C291.805 130.669 290.714 120.486 291.077 120.486H292.532ZM351.658 223.589C366.205 224.135 375.479 201.041 377.298 188.676H378.934C376.752 201.041 372.206 227.408 351.658 227.408C334.565 227.408 318.927 206.496 318.927 178.857C318.927 152.126 334.02 132.306 350.567 131.215C378.207 131.215 377.116 167.219 377.843 176.856H330.383V178.857C330.383 204.678 337.657 223.589 351.658 223.589ZM330.565 173.038H368.024C367.66 160.309 366.205 134.306 350.567 134.851C336.747 135.215 331.838 152.672 330.565 173.038ZM444.916 216.316C444.916 225.226 449.644 224.135 458.191 224.498V226.317H435.279V218.498C429.824 222.862 420.368 227.59 410.185 227.59C396.911 227.59 388.001 220.862 388.001 205.223C388.001 179.402 416.731 174.856 435.279 168.128V156.309C435.279 145.58 431.278 135.579 421.823 135.579C408.367 135.579 398.365 152.126 393.819 173.765L392.547 173.583L400.729 131.76L402.548 131.942L401.639 146.307L402.002 146.489C408.003 136.488 415.277 131.578 423.823 131.578C435.097 131.578 444.735 139.034 444.735 156.309L444.916 216.316ZM397.82 203.951C397.82 215.588 404.003 222.68 414.004 222.68C421.641 222.68 428.187 220.134 435.279 215.225V171.038C418.913 177.038 397.82 179.039 397.82 203.951Z" fill="#1F2522"/>
<path d="M16.5285 23H14.4885V10.808H10.0725V9.176C10.6485 9.176 11.2085 9.136 11.7525 9.056C12.2965 8.96 12.7845 8.792 13.2165 8.552C13.6645 8.312 14.0405 7.984 14.3445 7.568C14.6485 7.152 14.8565 6.624 14.9685 5.984H16.5285V23ZM23.3124 20.336H25.9764V23H23.3124V20.336ZM45.12 23.384C43.76 23.384 42.568 23.144 41.544 22.664C40.52 22.168 39.664 21.504 38.976 20.672C38.288 19.84 37.768 18.888 37.416 17.816C37.08 16.744 36.912 15.616 36.912 14.432C36.912 13.264 37.08 12.144 37.416 11.072C37.768 9.984 38.288 9.024 38.976 8.192C39.664 7.36 40.52 6.696 41.544 6.2C42.568 5.704 43.76 5.456 45.12 5.456C46.48 5.456 47.672 5.704 48.696 6.2C49.72 6.696 50.576 7.36 51.264 8.192C51.952 9.024 52.464 9.984 52.8 11.072C53.152 12.144 53.328 13.264 53.328 14.432C53.328 15.616 53.152 16.744 52.8 17.816C52.464 18.888 51.952 19.84 51.264 20.672C50.576 21.504 49.72 22.168 48.696 22.664C47.672 23.144 46.48 23.384 45.12 23.384ZM45.12 21.488C46.16 21.488 47.056 21.288 47.808 20.888C48.56 20.472 49.176 19.928 49.656 19.256C50.136 18.584 50.488 17.832 50.712 17C50.936 16.152 51.048 15.296 51.048 14.432C51.048 13.568 50.936 12.72 50.712 11.888C50.488 11.04 50.136 10.28 49.656 9.608C49.176 8.936 48.56 8.4 47.808 8C47.056 7.584 46.16 7.376 45.12 7.376C44.08 7.376 43.184 7.584 42.432 8C41.68 8.4 41.064 8.936 40.584 9.608C40.104 10.28 39.752 11.04 39.528 11.888C39.304 12.72 39.192 13.568 39.192 14.432C39.192 15.296 39.304 16.152 39.528 17C39.752 17.832 40.104 18.584 40.584 19.256C41.064 19.928 41.68 20.472 42.432 20.888C43.184 21.288 44.08 21.488 45.12 21.488ZM60.9064 23.264C59.9624 23.264 59.1224 23.112 58.3864 22.808C57.6664 22.504 57.0584 22.072 56.5624 21.512C56.0824 20.952 55.7144 20.288 55.4584 19.52C55.2184 18.752 55.0984 17.896 55.0984 16.952C55.0984 16.024 55.2184 15.16 55.4584 14.36C55.6984 13.544 56.0584 12.84 56.5384 12.248C57.0344 11.64 57.6424 11.168 58.3624 10.832C59.0984 10.48 59.9624 10.304 60.9544 10.304C61.6584 10.304 62.3144 10.392 62.9224 10.568C63.5464 10.728 64.0904 10.984 64.5544 11.336C65.0344 11.688 65.4264 12.136 65.7304 12.68C66.0344 13.208 66.2264 13.84 66.3064 14.576H64.1944C64.0344 13.792 63.6984 13.184 63.1864 12.752C62.6744 12.32 61.9864 12.104 61.1224 12.104C60.3864 12.104 59.7704 12.24 59.2744 12.512C58.7784 12.784 58.3784 13.144 58.0744 13.592C57.7864 14.04 57.5784 14.56 57.4504 15.152C57.3224 15.728 57.2584 16.328 57.2584 16.952C57.2584 17.528 57.3224 18.088 57.4504 18.632C57.5944 19.176 57.8104 19.664 58.0984 20.096C58.3864 20.512 58.7544 20.848 59.2024 21.104C59.6664 21.36 60.2264 21.488 60.8824 21.488C61.8904 21.488 62.6744 21.224 63.2344 20.696C63.8104 20.168 64.1624 19.424 64.2904 18.464H66.3784C66.1544 20.016 65.5864 21.208 64.6744 22.04C63.7624 22.856 62.5064 23.264 60.9064 23.264ZM68.661 10.592H70.701V15.536H76.989V10.592H79.029V23H76.989V17.288H70.701V23H68.661V10.592ZM87.4427 23.264C86.4507 23.264 85.5787 23.104 84.8267 22.784C84.0907 22.448 83.4667 21.992 82.9547 21.416C82.4427 20.824 82.0587 20.136 81.8027 19.352C81.5467 18.568 81.4187 17.72 81.4187 16.808C81.4187 15.896 81.5467 15.048 81.8027 14.264C82.0587 13.464 82.4427 12.776 82.9547 12.2C83.4667 11.608 84.0907 11.144 84.8267 10.808C85.5787 10.472 86.4507 10.304 87.4427 10.304C88.4187 10.304 89.2827 10.472 90.0347 10.808C90.7867 11.144 91.4187 11.608 91.9307 12.2C92.4427 12.776 92.8267 13.464 93.0827 14.264C93.3387 15.048 93.4667 15.896 93.4667 16.808C93.4667 17.72 93.3387 18.568 93.0827 19.352C92.8267 20.136 92.4427 20.824 91.9307 21.416C91.4187 21.992 90.7867 22.448 90.0347 22.784C89.2827 23.104 88.4187 23.264 87.4427 23.264ZM87.4427 21.488C87.9707 21.488 88.4667 21.384 88.9307 21.176C89.4107 20.968 89.8267 20.672 90.1787 20.288C90.5307 19.888 90.8027 19.4 90.9947 18.824C91.2027 18.232 91.3067 17.56 91.3067 16.808C91.3067 16.056 91.2027 15.392 90.9947 14.816C90.8027 14.224 90.5307 13.728 90.1787 13.328C89.8267 12.928 89.4107 12.624 88.9307 12.416C88.4667 12.208 87.9707 12.104 87.4427 12.104C86.9147 12.104 86.4107 12.208 85.9307 12.416C85.4667 12.624 85.0587 12.928 84.7067 13.328C84.3547 13.728 84.0747 14.224 83.8667 14.816C83.6747 15.392 83.5787 16.056 83.5787 16.808C83.5787 17.56 83.6747 18.232 83.8667 18.824C84.0747 19.4 84.3547 19.888 84.7067 20.288C85.0587 20.672 85.4667 20.968 85.9307 21.176C86.4107 21.384 86.9147 21.488 87.4427 21.488ZM95.8719 10.592H101.608C102.152 10.592 102.672 10.632 103.168 10.712C103.68 10.792 104.136 10.944 104.536 11.168C104.936 11.376 105.256 11.68 105.496 12.08C105.736 12.48 105.856 12.992 105.856 13.616C105.856 14.288 105.696 14.832 105.376 15.248C105.056 15.664 104.608 16.008 104.032 16.28V16.304C104.752 16.448 105.32 16.784 105.736 17.312C106.168 17.84 106.384 18.52 106.384 19.352C106.384 19.88 106.288 20.368 106.096 20.816C105.92 21.264 105.664 21.648 105.328 21.968C104.992 22.288 104.592 22.544 104.128 22.736C103.664 22.912 103.16 23 102.616 23H95.8719V10.592ZM102.232 21.272C102.904 21.272 103.408 21.08 103.744 20.696C104.096 20.296 104.272 19.8 104.272 19.208C104.272 18.648 104.088 18.2 103.72 17.864C103.352 17.528 102.736 17.36 101.872 17.36H97.8879V21.272H102.232ZM101.392 15.68C102.272 15.68 102.88 15.52 103.216 15.2C103.568 14.88 103.744 14.456 103.744 13.928C103.744 13.416 103.576 13.024 103.24 12.752C102.904 12.464 102.288 12.32 101.392 12.32H97.8879V15.68H101.392ZM108.833 10.592H110.873V15.536H117.161V10.592H119.201V23H117.161V17.288H110.873V23H108.833V10.592ZM127.615 23.264C126.623 23.264 125.751 23.104 124.999 22.784C124.263 22.448 123.639 21.992 123.127 21.416C122.615 20.824 122.231 20.136 121.975 19.352C121.719 18.568 121.591 17.72 121.591 16.808C121.591 15.896 121.719 15.048 121.975 14.264C122.231 13.464 122.615 12.776 123.127 12.2C123.639 11.608 124.263 11.144 124.999 10.808C125.751 10.472 126.623 10.304 127.615 10.304C128.591 10.304 129.455 10.472 130.207 10.808C130.959 11.144 131.591 11.608 132.103 12.2C132.615 12.776 132.999 13.464 133.255 14.264C133.511 15.048 133.639 15.896 133.639 16.808C133.639 17.72 133.511 18.568 133.255 19.352C132.999 20.136 132.615 20.824 132.103 21.416C131.591 21.992 130.959 22.448 130.207 22.784C129.455 23.104 128.591 23.264 127.615 23.264ZM127.615 21.488C128.143 21.488 128.639 21.384 129.103 21.176C129.583 20.968 129.999 20.672 130.351 20.288C130.703 19.888 130.975 19.4 131.167 18.824C131.375 18.232 131.479 17.56 131.479 16.808C131.479 16.056 131.375 15.392 131.167 14.816C130.975 14.224 130.703 13.728 130.351 13.328C129.999 12.928 129.583 12.624 129.103 12.416C128.639 12.208 128.143 12.104 127.615 12.104C127.087 12.104 126.583 12.208 126.103 12.416C125.639 12.624 125.231 12.928 124.879 13.328C124.527 13.728 124.247 14.224 124.039 14.816C123.847 15.392 123.751 16.056 123.751 16.808C123.751 17.56 123.847 18.232 124.039 18.824C124.247 19.4 124.527 19.888 124.879 20.288C125.231 20.672 125.639 20.968 126.103 21.176C126.583 21.384 127.087 21.488 127.615 21.488ZM136.044 10.592H138.084V20.72L143.94 10.592H146.556V23H144.516V12.872L138.66 23H136.044V10.592ZM141.3 8.768C140.82 8.768 140.372 8.696 139.956 8.552C139.54 8.408 139.172 8.2 138.852 7.928C138.548 7.656 138.3 7.328 138.108 6.944C137.932 6.544 137.844 6.088 137.844 5.576H139.548C139.58 6.76 140.156 7.352 141.276 7.352C141.836 7.352 142.26 7.2 142.548 6.896C142.852 6.576 143.004 6.136 143.004 5.576H144.708C144.708 6.056 144.62 6.496 144.444 6.896C144.268 7.296 144.028 7.632 143.724 7.904C143.42 8.176 143.06 8.392 142.644 8.552C142.228 8.696 141.78 8.768 141.3 8.768ZM156.317 10.592H162.053C162.597 10.592 163.117 10.632 163.613 10.712C164.125 10.792 164.581 10.944 164.981 11.168C165.381 11.376 165.701 11.68 165.941 12.08C166.181 12.48 166.301 12.992 166.301 13.616C166.301 14.288 166.141 14.832 165.821 15.248C165.501 15.664 165.053 16.008 164.477 16.28V16.304C165.197 16.448 165.765 16.784 166.181 17.312C166.613 17.84 166.829 18.52 166.829 19.352C166.829 19.88 166.733 20.368 166.541 20.816C166.365 21.264 166.109 21.648 165.773 21.968C165.437 22.288 165.037 22.544 164.573 22.736C164.109 22.912 163.605 23 163.061 23H156.317V10.592ZM162.677 21.272C163.349 21.272 163.853 21.08 164.189 20.696C164.541 20.296 164.717 19.8 164.717 19.208C164.717 18.648 164.533 18.2 164.165 17.864C163.797 17.528 163.181 17.36 162.317 17.36H158.333V21.272H162.677ZM161.837 15.68C162.717 15.68 163.325 15.52 163.661 15.2C164.013 14.88 164.189 14.456 164.189 13.928C164.189 13.416 164.021 13.024 163.685 12.752C163.349 12.464 162.733 12.32 161.837 12.32H158.333V15.68H161.837ZM172.71 23.264C172.15 23.264 171.622 23.2 171.126 23.072C170.63 22.96 170.19 22.768 169.806 22.496C169.438 22.208 169.142 21.848 168.918 21.416C168.71 20.968 168.606 20.432 168.606 19.808C168.606 19.104 168.726 18.528 168.966 18.08C169.206 17.632 169.518 17.272 169.902 17C170.302 16.712 170.75 16.496 171.246 16.352C171.758 16.208 172.278 16.088 172.806 15.992C173.366 15.88 173.894 15.8 174.39 15.752C174.902 15.688 175.35 15.608 175.734 15.512C176.118 15.4 176.422 15.248 176.646 15.056C176.87 14.848 176.982 14.552 176.982 14.168C176.982 13.72 176.894 13.36 176.718 13.088C176.558 12.816 176.342 12.608 176.07 12.464C175.814 12.32 175.518 12.224 175.182 12.176C174.862 12.128 174.542 12.104 174.222 12.104C173.358 12.104 172.638 12.272 172.062 12.608C171.486 12.928 171.174 13.544 171.126 14.456H169.086C169.118 13.688 169.278 13.04 169.566 12.512C169.854 11.984 170.238 11.56 170.718 11.24C171.198 10.904 171.742 10.664 172.35 10.52C172.974 10.376 173.638 10.304 174.342 10.304C174.902 10.304 175.454 10.344 175.998 10.424C176.558 10.504 177.062 10.672 177.51 10.928C177.958 11.168 178.318 11.512 178.59 11.96C178.862 12.408 178.998 12.992 178.998 13.712V20.096C178.998 20.576 179.022 20.928 179.07 21.152C179.134 21.376 179.326 21.488 179.646 21.488C179.79 21.488 179.998 21.448 180.27 21.368V22.952C179.918 23.16 179.43 23.264 178.806 23.264C178.278 23.264 177.854 23.12 177.534 22.832C177.23 22.528 177.078 22.04 177.078 21.368C176.518 22.04 175.862 22.528 175.11 22.832C174.374 23.12 173.574 23.264 172.71 23.264ZM173.166 21.488C173.838 21.488 174.414 21.4 174.894 21.224C175.374 21.032 175.766 20.8 176.07 20.528C176.374 20.24 176.598 19.936 176.742 19.616C176.886 19.28 176.958 18.968 176.958 18.68V16.592C176.702 16.8 176.366 16.944 175.95 17.024C175.534 17.104 175.094 17.176 174.63 17.24C174.182 17.304 173.726 17.368 173.262 17.432C172.798 17.496 172.382 17.608 172.014 17.768C171.646 17.928 171.342 18.16 171.102 18.464C170.878 18.752 170.766 19.152 170.766 19.664C170.766 20 170.83 20.288 170.958 20.528C171.102 20.752 171.278 20.936 171.486 21.08C171.71 21.224 171.966 21.328 172.254 21.392C172.542 21.456 172.846 21.488 173.166 21.488ZM182.241 10.592H184.281V12.272H184.329C184.665 11.584 185.193 11.088 185.913 10.784C186.633 10.464 187.425 10.304 188.289 10.304C189.249 10.304 190.081 10.48 190.785 10.832C191.505 11.184 192.097 11.664 192.561 12.272C193.041 12.864 193.401 13.552 193.641 14.336C193.881 15.12 194.001 15.952 194.001 16.832C194.001 17.728 193.881 18.568 193.641 19.352C193.417 20.12 193.065 20.8 192.585 21.392C192.121 21.968 191.529 22.424 190.809 22.76C190.105 23.096 189.281 23.264 188.337 23.264C188.017 23.264 187.673 23.232 187.305 23.168C186.937 23.104 186.569 23 186.201 22.856C185.833 22.712 185.481 22.52 185.145 22.28C184.825 22.024 184.553 21.712 184.329 21.344H184.281V27.728H182.241V10.592ZM188.121 21.488C188.809 21.488 189.393 21.352 189.873 21.08C190.353 20.808 190.737 20.448 191.025 20C191.313 19.552 191.521 19.04 191.649 18.464C191.777 17.888 191.841 17.296 191.841 16.688C191.841 16.112 191.761 15.552 191.601 15.008C191.457 14.448 191.225 13.952 190.905 13.52C190.601 13.088 190.201 12.744 189.705 12.488C189.225 12.232 188.657 12.104 188.001 12.104C187.313 12.104 186.729 12.24 186.249 12.512C185.769 12.784 185.377 13.144 185.073 13.592C184.769 14.024 184.545 14.52 184.401 15.08C184.273 15.64 184.209 16.208 184.209 16.784C184.209 17.392 184.281 17.984 184.425 18.56C184.569 19.12 184.793 19.616 185.097 20.048C185.417 20.48 185.825 20.832 186.321 21.104C186.817 21.36 187.417 21.488 188.121 21.488ZM196.395 10.592H198.435V20.72L204.291 10.592H206.907V23H204.867V12.872L199.011 23H196.395V10.592ZM213.421 23.264C212.861 23.264 212.333 23.2 211.837 23.072C211.341 22.96 210.901 22.768 210.517 22.496C210.149 22.208 209.853 21.848 209.629 21.416C209.421 20.968 209.317 20.432 209.317 19.808C209.317 19.104 209.437 18.528 209.677 18.08C209.917 17.632 210.229 17.272 210.613 17C211.013 16.712 211.461 16.496 211.957 16.352C212.469 16.208 212.989 16.088 213.517 15.992C214.077 15.88 214.605 15.8 215.101 15.752C215.613 15.688 216.061 15.608 216.445 15.512C216.829 15.4 217.133 15.248 217.357 15.056C217.581 14.848 217.693 14.552 217.693 14.168C217.693 13.72 217.605 13.36 217.429 13.088C217.269 12.816 217.053 12.608 216.781 12.464C216.525 12.32 216.229 12.224 215.893 12.176C215.573 12.128 215.253 12.104 214.933 12.104C214.069 12.104 213.349 12.272 212.773 12.608C212.197 12.928 211.885 13.544 211.837 14.456H209.797C209.829 13.688 209.989 13.04 210.277 12.512C210.565 11.984 210.949 11.56 211.429 11.24C211.909 10.904 212.453 10.664 213.061 10.52C213.685 10.376 214.349 10.304 215.053 10.304C215.613 10.304 216.165 10.344 216.709 10.424C217.269 10.504 217.773 10.672 218.221 10.928C218.669 11.168 219.029 11.512 219.301 11.96C219.573 12.408 219.709 12.992 219.709 13.712V20.096C219.709 20.576 219.733 20.928 219.781 21.152C219.845 21.376 220.037 21.488 220.357 21.488C220.501 21.488 220.709 21.448 220.981 21.368V22.952C220.629 23.16 220.141 23.264 219.517 23.264C218.989 23.264 218.565 23.12 218.245 22.832C217.941 22.528 217.789 22.04 217.789 21.368C217.229 22.04 216.573 22.528 215.821 22.832C215.085 23.12 214.285 23.264 213.421 23.264ZM213.877 21.488C214.549 21.488 215.125 21.4 215.605 21.224C216.085 21.032 216.477 20.8 216.781 20.528C217.085 20.24 217.309 19.936 217.453 19.616C217.597 19.28 217.669 18.968 217.669 18.68V16.592C217.413 16.8 217.077 16.944 216.661 17.024C216.245 17.104 215.805 17.176 215.341 17.24C214.893 17.304 214.437 17.368 213.973 17.432C213.509 17.496 213.093 17.608 212.725 17.768C212.357 17.928 212.053 18.16 211.813 18.464C211.589 18.752 211.477 19.152 211.477 19.664C211.477 20 211.541 20.288 211.669 20.528C211.813 20.752 211.989 20.936 212.197 21.08C212.421 21.224 212.677 21.328 212.965 21.392C213.253 21.456 213.557 21.488 213.877 21.488ZM222.88 10.592H224.92V15.536H231.208V10.592H233.248V23H231.208V17.288H224.92V23H222.88V10.592ZM239.309 12.392H234.869V10.592H245.789V12.392H241.349V23H239.309V12.392Z" fill="black"/>
<path d="M750.528 23H748.488V10.808H744.072V9.176C744.648 9.176 745.208 9.136 745.752 9.056C746.296 8.96 746.784 8.792 747.216 8.552C747.664 8.312 748.04 7.984 748.344 7.568C748.648 7.152 748.856 6.624 748.968 5.984H750.528V23ZM757.312 20.336H759.976V23H757.312V20.336ZM776.528 5.864H779.048L785.744 23H783.224L781.352 17.84H774.104L772.184 23H769.856L776.528 5.864ZM780.632 15.92L777.776 7.928H777.728L774.824 15.92H780.632ZM787.003 23.144C786.795 23.144 786.579 23.12 786.354 23.072C786.131 23.04 785.947 23.008 785.803 22.976V21.176C785.963 21.224 786.107 21.256 786.235 21.272C786.379 21.288 786.515 21.296 786.643 21.296C787.171 21.296 787.571 21.088 787.843 20.672C788.131 20.256 788.339 19.616 788.467 18.752C788.611 17.888 788.699 16.784 788.73 15.44C788.763 14.08 788.795 12.464 788.827 10.592H797.539V23H795.499V12.392H790.795C790.747 13.848 790.691 15.232 790.627 16.544C790.579 17.84 790.443 18.976 790.219 19.952C789.995 20.928 789.635 21.704 789.139 22.28C788.643 22.856 787.931 23.144 787.003 23.144ZM800.742 10.592H802.782V15.344H807.198C808.414 15.344 809.39 15.68 810.126 16.352C810.862 17.008 811.23 17.936 811.23 19.136C811.23 20.304 810.878 21.24 810.174 21.944C809.47 22.648 808.51 23 807.294 23H800.742V10.592ZM806.55 21.2C808.262 21.2 809.118 20.512 809.118 19.136C809.118 17.776 808.262 17.096 806.55 17.096H802.782V21.2H806.55ZM816.442 12.392H812.002V10.592H822.922V12.392H818.482V23H816.442V12.392ZM829.832 23.264C828.84 23.264 827.968 23.104 827.216 22.784C826.48 22.464 825.864 22.016 825.368 21.44C824.872 20.864 824.496 20.176 824.24 19.376C824 18.576 823.88 17.704 823.88 16.76C823.88 15.832 824.024 14.976 824.312 14.192C824.6 13.392 825 12.704 825.512 12.128C826.04 11.552 826.656 11.104 827.36 10.784C828.08 10.464 828.864 10.304 829.712 10.304C830.816 10.304 831.728 10.536 832.448 11C833.184 11.448 833.768 12.024 834.2 12.728C834.648 13.432 834.952 14.2 835.112 15.032C835.288 15.864 835.36 16.656 835.328 17.408H826.04C826.024 17.952 826.088 18.472 826.232 18.968C826.376 19.448 826.608 19.88 826.928 20.264C827.248 20.632 827.656 20.928 828.152 21.152C828.648 21.376 829.232 21.488 829.904 21.488C830.768 21.488 831.472 21.288 832.016 20.888C832.576 20.488 832.944 19.88 833.12 19.064H835.136C834.864 20.472 834.264 21.528 833.336 22.232C832.408 22.92 831.24 23.264 829.832 23.264ZM833.168 15.608C833.136 15.128 833.024 14.672 832.832 14.24C832.656 13.808 832.408 13.44 832.088 13.136C831.784 12.816 831.416 12.568 830.984 12.392C830.568 12.2 830.104 12.104 829.592 12.104C829.064 12.104 828.584 12.2 828.152 12.392C827.736 12.568 827.376 12.816 827.072 13.136C826.768 13.456 826.528 13.832 826.352 14.264C826.176 14.68 826.072 15.128 826.04 15.608H833.168ZM837.514 10.592H839.554V12.272H839.602C839.938 11.584 840.466 11.088 841.186 10.784C841.906 10.464 842.698 10.304 843.562 10.304C844.522 10.304 845.354 10.48 846.058 10.832C846.778 11.184 847.37 11.664 847.834 12.272C848.314 12.864 848.674 13.552 848.914 14.336C849.154 15.12 849.274 15.952 849.274 16.832C849.274 17.728 849.154 18.568 848.914 19.352C848.69 20.12 848.338 20.8 847.858 21.392C847.394 21.968 846.802 22.424 846.082 22.76C845.378 23.096 844.554 23.264 843.61 23.264C843.29 23.264 842.946 23.232 842.578 23.168C842.21 23.104 841.842 23 841.474 22.856C841.106 22.712 840.754 22.52 840.418 22.28C840.098 22.024 839.826 21.712 839.602 21.344H839.554V27.728H837.514V10.592ZM843.394 21.488C844.082 21.488 844.666 21.352 845.146 21.08C845.626 20.808 846.01 20.448 846.298 20C846.586 19.552 846.794 19.04 846.922 18.464C847.05 17.888 847.114 17.296 847.114 16.688C847.114 16.112 847.034 15.552 846.874 15.008C846.73 14.448 846.498 13.952 846.178 13.52C845.874 13.088 845.474 12.744 844.978 12.488C844.498 12.232 843.93 12.104 843.274 12.104C842.586 12.104 842.002 12.24 841.522 12.512C841.042 12.784 840.65 13.144 840.346 13.592C840.042 14.024 839.818 14.52 839.674 15.08C839.546 15.64 839.482 16.208 839.482 16.784C839.482 17.392 839.554 17.984 839.698 18.56C839.842 19.12 840.066 19.616 840.37 20.048C840.69 20.48 841.098 20.832 841.594 21.104C842.09 21.36 842.69 21.488 843.394 21.488ZM851.669 10.592H853.709V15.536H859.997V10.592H862.037V23H859.997V17.288H853.709V23H851.669V10.592ZM868.531 23.264C867.971 23.264 867.443 23.2 866.947 23.072C866.451 22.96 866.011 22.768 865.627 22.496C865.259 22.208 864.963 21.848 864.739 21.416C864.531 20.968 864.427 20.432 864.427 19.808C864.427 19.104 864.547 18.528 864.787 18.08C865.027 17.632 865.339 17.272 865.723 17C866.123 16.712 866.571 16.496 867.067 16.352C867.579 16.208 868.099 16.088 868.627 15.992C869.187 15.88 869.715 15.8 870.211 15.752C870.723 15.688 871.171 15.608 871.555 15.512C871.939 15.4 872.243 15.248 872.467 15.056C872.691 14.848 872.803 14.552 872.803 14.168C872.803 13.72 872.715 13.36 872.539 13.088C872.379 12.816 872.163 12.608 871.891 12.464C871.635 12.32 871.339 12.224 871.003 12.176C870.683 12.128 870.363 12.104 870.043 12.104C869.179 12.104 868.459 12.272 867.883 12.608C867.307 12.928 866.995 13.544 866.947 14.456H864.907C864.939 13.688 865.099 13.04 865.387 12.512C865.675 11.984 866.059 11.56 866.539 11.24C867.019 10.904 867.563 10.664 868.171 10.52C868.795 10.376 869.459 10.304 870.163 10.304C870.723 10.304 871.275 10.344 871.819 10.424C872.379 10.504 872.883 10.672 873.331 10.928C873.779 11.168 874.139 11.512 874.411 11.96C874.683 12.408 874.819 12.992 874.819 13.712V20.096C874.819 20.576 874.843 20.928 874.891 21.152C874.955 21.376 875.147 21.488 875.467 21.488C875.611 21.488 875.819 21.448 876.091 21.368V22.952C875.739 23.16 875.251 23.264 874.627 23.264C874.099 23.264 873.675 23.12 873.355 22.832C873.051 22.528 872.899 22.04 872.899 21.368C872.339 22.04 871.683 22.528 870.931 22.832C870.195 23.12 869.395 23.264 868.531 23.264ZM868.987 21.488C869.659 21.488 870.235 21.4 870.715 21.224C871.195 21.032 871.587 20.8 871.891 20.528C872.195 20.24 872.419 19.936 872.563 19.616C872.707 19.28 872.779 18.968 872.779 18.68V16.592C872.523 16.8 872.187 16.944 871.771 17.024C871.355 17.104 870.915 17.176 870.451 17.24C870.003 17.304 869.547 17.368 869.083 17.432C868.619 17.496 868.203 17.608 867.835 17.768C867.467 17.928 867.163 18.16 866.923 18.464C866.699 18.752 866.587 19.152 866.587 19.664C866.587 20 866.651 20.288 866.779 20.528C866.923 20.752 867.099 20.936 867.307 21.08C867.531 21.224 867.787 21.328 868.075 21.392C868.363 21.456 868.667 21.488 868.987 21.488ZM880.989 12.392H876.549V10.592H887.469V12.392H883.029V23H880.989V12.392ZM889.099 10.592H891.139V20.72L896.995 10.592H899.611V23H897.571V12.872L891.715 23H889.099V10.592ZM902.692 10.592H908.428C908.972 10.592 909.492 10.632 909.988 10.712C910.5 10.792 910.956 10.944 911.356 11.168C911.756 11.376 912.076 11.68 912.316 12.08C912.556 12.48 912.676 12.992 912.676 13.616C912.676 14.288 912.516 14.832 912.196 15.248C911.876 15.664 911.428 16.008 910.852 16.28V16.304C911.572 16.448 912.14 16.784 912.556 17.312C912.988 17.84 913.204 18.52 913.204 19.352C913.204 19.88 913.108 20.368 912.916 20.816C912.74 21.264 912.484 21.648 912.148 21.968C911.812 22.288 911.412 22.544 910.948 22.736C910.484 22.912 909.98 23 909.436 23H902.692V10.592ZM909.052 21.272C909.724 21.272 910.228 21.08 910.564 20.696C910.916 20.296 911.092 19.8 911.092 19.208C911.092 18.648 910.908 18.2 910.54 17.864C910.172 17.528 909.556 17.36 908.692 17.36H904.708V21.272H909.052ZM908.212 15.68C909.092 15.68 909.7 15.52 910.036 15.2C910.388 14.88 910.564 14.456 910.564 13.928C910.564 13.416 910.396 13.024 910.06 12.752C909.724 12.464 909.108 12.32 908.212 12.32H904.708V15.68H908.212ZM915.653 10.592H917.693V15.536H923.981V10.592H926.021V23H923.981V17.288H917.693V23H915.653V10.592ZM929.083 10.592H931.123V15.344H934.963C936.179 15.344 937.155 15.68 937.891 16.352C938.627 17.008 938.995 17.936 938.995 19.136C938.995 20.304 938.643 21.24 937.939 21.944C937.235 22.648 936.275 23 935.059 23H929.083V10.592ZM934.315 21.2C936.027 21.2 936.883 20.512 936.883 19.136C936.883 17.776 936.027 17.096 934.315 17.096H931.123V21.2H934.315ZM940.963 10.592H943.003V23H940.963V10.592ZM946.075 10.592H948.115V20.72L953.971 10.592H956.587V23H954.547V12.872L948.691 23H946.075V10.592ZM951.331 8.768C950.851 8.768 950.403 8.696 949.987 8.552C949.571 8.408 949.203 8.2 948.883 7.928C948.579 7.656 948.331 7.328 948.139 6.944C947.963 6.544 947.875 6.088 947.875 5.576H949.579C949.611 6.76 950.187 7.352 951.307 7.352C951.867 7.352 952.291 7.2 952.579 6.896C952.883 6.576 953.035 6.136 953.035 5.576H954.739C954.739 6.056 954.651 6.496 954.475 6.896C954.299 7.296 954.059 7.632 953.755 7.904C953.451 8.176 953.091 8.392 952.675 8.552C952.259 8.696 951.811 8.768 951.331 8.768ZM966.349 10.592H972.085C972.629 10.592 973.149 10.632 973.645 10.712C974.157 10.792 974.613 10.944 975.013 11.168C975.413 11.376 975.733 11.68 975.973 12.08C976.213 12.48 976.333 12.992 976.333 13.616C976.333 14.288 976.173 14.832 975.853 15.248C975.533 15.664 975.085 16.008 974.509 16.28V16.304C975.229 16.448 975.797 16.784 976.213 17.312C976.645 17.84 976.861 18.52 976.861 19.352C976.861 19.88 976.765 20.368 976.573 20.816C976.397 21.264 976.141 21.648 975.805 21.968C975.469 22.288 975.069 22.544 974.605 22.736C974.141 22.912 973.637 23 973.093 23H966.349V10.592ZM972.709 21.272C973.381 21.272 973.885 21.08 974.221 20.696C974.573 20.296 974.749 19.8 974.749 19.208C974.749 18.648 974.565 18.2 974.197 17.864C973.829 17.528 973.213 17.36 972.349 17.36H968.365V21.272H972.709ZM971.868 15.68C972.749 15.68 973.357 15.52 973.693 15.2C974.045 14.88 974.221 14.456 974.221 13.928C974.221 13.416 974.053 13.024 973.717 12.752C973.381 12.464 972.765 12.32 971.868 12.32H968.365V15.68H971.868ZM982.741 23.264C982.181 23.264 981.653 23.2 981.157 23.072C980.661 22.96 980.221 22.768 979.837 22.496C979.469 22.208 979.173 21.848 978.949 21.416C978.741 20.968 978.637 20.432 978.637 19.808C978.637 19.104 978.757 18.528 978.997 18.08C979.237 17.632 979.549 17.272 979.933 17C980.333 16.712 980.781 16.496 981.277 16.352C981.789 16.208 982.309 16.088 982.837 15.992C983.397 15.88 983.925 15.8 984.421 15.752C984.933 15.688 985.381 15.608 985.765 15.512C986.149 15.4 986.453 15.248 986.677 15.056C986.901 14.848 987.013 14.552 987.013 14.168C987.013 13.72 986.925 13.36 986.749 13.088C986.589 12.816 986.373 12.608 986.101 12.464C985.845 12.32 985.549 12.224 985.213 12.176C984.893 12.128 984.573 12.104 984.253 12.104C983.389 12.104 982.669 12.272 982.093 12.608C981.517 12.928 981.205 13.544 981.157 14.456H979.117C979.149 13.688 979.309 13.04 979.597 12.512C979.885 11.984 980.269 11.56 980.749 11.24C981.229 10.904 981.773 10.664 982.381 10.52C983.005 10.376 983.669 10.304 984.373 10.304C984.933 10.304 985.485 10.344 986.029 10.424C986.589 10.504 987.093 10.672 987.541 10.928C987.989 11.168 988.349 11.512 988.621 11.96C988.893 12.408 989.029 12.992 989.029 13.712V20.096C989.029 20.576 989.053 20.928 989.101 21.152C989.165 21.376 989.357 21.488 989.677 21.488C989.821 21.488 990.029 21.448 990.301 21.368V22.952C989.949 23.16 989.461 23.264 988.837 23.264C988.309 23.264 987.885 23.12 987.565 22.832C987.261 22.528 987.109 22.04 987.109 21.368C986.549 22.04 985.893 22.528 985.141 22.832C984.405 23.12 983.605 23.264 982.741 23.264ZM983.197 21.488C983.869 21.488 984.445 21.4 984.925 21.224C985.405 21.032 985.797 20.8 986.101 20.528C986.405 20.24 986.629 19.936 986.773 19.616C986.917 19.28 986.989 18.968 986.989 18.68V16.592C986.733 16.8 986.397 16.944 985.981 17.024C985.565 17.104 985.125 17.176 984.661 17.24C984.213 17.304 983.757 17.368 983.293 17.432C982.829 17.496 982.413 17.608 982.045 17.768C981.677 17.928 981.373 18.16 981.133 18.464C980.909 18.752 980.797 19.152 980.797 19.664C980.797 20 980.861 20.288 980.989 20.528C981.133 20.752 981.309 20.936 981.517 21.08C981.741 21.224 981.997 21.328 982.285 21.392C982.573 21.456 982.877 21.488 983.197 21.488ZM992.272 10.592H994.312V12.272H994.36C994.696 11.584 995.224 11.088 995.944 10.784C996.664 10.464 997.456 10.304 998.32 10.304C999.28 10.304 1000.11 10.48 1000.82 10.832C1001.54 11.184 1002.13 11.664 1002.59 12.272C1003.07 12.864 1003.43 13.552 1003.67 14.336C1003.91 15.12 1004.03 15.952 1004.03 16.832C1004.03 17.728 1003.91 18.568 1003.67 19.352C1003.45 20.12 1003.1 20.8 1002.62 21.392C1002.15 21.968 1001.56 22.424 1000.84 22.76C1000.14 23.096 999.312 23.264 998.368 23.264C998.048 23.264 997.704 23.232 997.336 23.168C996.968 23.104 996.6 23 996.232 22.856C995.864 22.712 995.512 22.52 995.176 22.28C994.856 22.024 994.584 21.712 994.36 21.344H994.312V27.728H992.272V10.592ZM998.152 21.488C998.84 21.488 999.424 21.352 999.904 21.08C1000.38 20.808 1000.77 20.448 1001.06 20C1001.34 19.552 1001.55 19.04 1001.68 18.464C1001.81 17.888 1001.87 17.296 1001.87 16.688C1001.87 16.112 1001.79 15.552 1001.63 15.008C1001.49 14.448 1001.26 13.952 1000.94 13.52C1000.63 13.088 1000.23 12.744 999.736 12.488C999.256 12.232 998.688 12.104 998.032 12.104C997.344 12.104 996.76 12.24 996.28 12.512C995.8 12.784 995.408 13.144 995.104 13.592C994.8 14.024 994.576 14.52 994.432 15.08C994.304 15.64 994.24 16.208 994.24 16.784C994.24 17.392 994.312 17.984 994.456 18.56C994.6 19.12 994.824 19.616 995.128 20.048C995.448 20.48 995.856 20.832 996.352 21.104C996.848 21.36 997.448 21.488 998.152 21.488ZM1006.43 10.592H1008.47V20.72L1014.32 10.592H1016.94V23H1014.9V12.872L1009.04 23H1006.43V10.592ZM1023.45 23.264C1022.89 23.264 1022.36 23.2 1021.87 23.072C1021.37 22.96 1020.93 22.768 1020.55 22.496C1020.18 22.208 1019.88 21.848 1019.66 21.416C1019.45 20.968 1019.35 20.432 1019.35 19.808C1019.35 19.104 1019.47 18.528 1019.71 18.08C1019.95 17.632 1020.26 17.272 1020.64 17C1021.04 16.712 1021.49 16.496 1021.99 16.352C1022.5 16.208 1023.02 16.088 1023.55 15.992C1024.11 15.88 1024.64 15.8 1025.13 15.752C1025.64 15.688 1026.09 15.608 1026.48 15.512C1026.86 15.4 1027.16 15.248 1027.39 15.056C1027.61 14.848 1027.72 14.552 1027.72 14.168C1027.72 13.72 1027.64 13.36 1027.46 13.088C1027.3 12.816 1027.08 12.608 1026.81 12.464C1026.56 12.32 1026.26 12.224 1025.92 12.176C1025.6 12.128 1025.28 12.104 1024.96 12.104C1024.1 12.104 1023.38 12.272 1022.8 12.608C1022.23 12.928 1021.92 13.544 1021.87 14.456H1019.83C1019.86 13.688 1020.02 13.04 1020.31 12.512C1020.6 11.984 1020.98 11.56 1021.46 11.24C1021.94 10.904 1022.48 10.664 1023.09 10.52C1023.72 10.376 1024.38 10.304 1025.08 10.304C1025.64 10.304 1026.2 10.344 1026.74 10.424C1027.3 10.504 1027.8 10.672 1028.25 10.928C1028.7 11.168 1029.06 11.512 1029.33 11.96C1029.6 12.408 1029.74 12.992 1029.74 13.712V20.096C1029.74 20.576 1029.76 20.928 1029.81 21.152C1029.88 21.376 1030.07 21.488 1030.39 21.488C1030.53 21.488 1030.74 21.448 1031.01 21.368V22.952C1030.66 23.16 1030.17 23.264 1029.55 23.264C1029.02 23.264 1028.6 23.12 1028.28 22.832C1027.97 22.528 1027.82 22.04 1027.82 21.368C1027.26 22.04 1026.6 22.528 1025.85 22.832C1025.12 23.12 1024.32 23.264 1023.45 23.264ZM1023.91 21.488C1024.58 21.488 1025.16 21.4 1025.64 21.224C1026.12 21.032 1026.51 20.8 1026.81 20.528C1027.12 20.24 1027.34 19.936 1027.48 19.616C1027.63 19.28 1027.7 18.968 1027.7 18.68V16.592C1027.44 16.8 1027.11 16.944 1026.69 17.024C1026.28 17.104 1025.84 17.176 1025.37 17.24C1024.92 17.304 1024.47 17.368 1024 17.432C1023.54 17.496 1023.12 17.608 1022.76 17.768C1022.39 17.928 1022.08 18.16 1021.84 18.464C1021.62 18.752 1021.51 19.152 1021.51 19.664C1021.51 20 1021.57 20.288 1021.7 20.528C1021.84 20.752 1022.02 20.936 1022.23 21.08C1022.45 21.224 1022.71 21.328 1023 21.392C1023.28 21.456 1023.59 21.488 1023.91 21.488ZM1032.91 10.592H1034.95V15.536H1041.24V10.592H1043.28V23H1041.24V17.288H1034.95V23H1032.91V10.592ZM1049.34 12.392H1044.9V10.592H1055.82V12.392H1051.38V23H1049.34V12.392Z" fill="black"/>
<path d="M773.292 221.643C790.632 222.381 801.146 181.244 802.991 167.04H804.836L799.855 218.876H798.379L797.457 204.856H796.904C791.554 217.584 785.836 225.517 773.292 225.517C752.816 225.517 735.845 195.633 735.845 156.71C735.845 119.078 752.078 89.9325 771.816 88.4567C784.36 88.4567 790.263 96.7578 795.612 109.486H796.166L797.088 95.651H798.564L803.913 147.302H802.069C800.224 133.098 792.107 91.4082 771.816 92.3306C756.136 93.0684 748.757 121.108 748.757 156.71C748.757 193.604 756.69 221.643 773.292 221.643ZM840.858 126.457L841.411 193.973C841.595 208.361 846.392 220.167 857.829 220.167C866.499 220.167 870.926 216.293 874.984 211.313L874.8 145.457C874.8 136.418 865.207 135.681 857.644 135.496V133.651C866.683 133.467 873.139 132.729 877.751 130.147C883.285 127.011 882.363 126.457 882.732 126.457H884.392L884.945 211.681C884.945 220.72 891.586 219.798 899.15 219.983V221.827L874.984 222.012V214.449C870.557 219.245 865.945 223.672 857.46 223.672C842.149 223.672 831.634 212.973 831.265 193.604V143.797C831.265 134.758 821.857 135.681 814.294 135.496V133.651C823.333 133.467 829.974 132.914 834.401 130.147C838.828 127.38 839.197 126.457 839.566 126.457H840.858ZM928.48 83.6605L929.033 211.866C929.033 220.905 933.83 219.798 942.5 220.167V222.012H905.79V220.167C914.46 219.798 919.257 220.905 919.257 211.866L918.888 112.069C918.888 104.69 912.062 103.952 905.421 103.768C903.946 103.768 902.47 103.768 900.994 103.768V101.923C910.033 101.738 916.674 102.107 921.839 98.418C928.111 93.9908 926.635 83.6605 927.004 83.6605H928.48ZM970.282 115.02L970.467 133.467H986.7V136.05H970.467L971.205 198.953C971.389 211.866 974.525 219.614 981.35 219.614C992.234 220.167 997.215 196.74 998.506 184.196H1000.53C999.059 195.633 995.37 223.487 979.506 223.487C968.622 223.487 960.874 214.449 960.69 195.633L960.321 143.613C960.321 134.574 951.835 135.496 944.272 135.312V133.467C955.156 133.282 958.107 133.467 963.272 129.778C969.544 125.35 968.437 115.02 968.806 115.02H970.282Z" fill="#1F2522"/>
<path d="M1033.13 223.853C1026.05 223.853 1020.38 221.663 1016.12 217.284C1011.96 212.793 1009.88 206.336 1009.88 197.915V144.186H998.768V125.659H1009.88V103.427H1031.27V125.659H1046.94V144.186H1031.27V195.22C1031.27 198.476 1031.89 200.834 1033.13 202.294C1034.47 203.641 1036.27 204.315 1038.52 204.315C1040.76 204.315 1042.73 204.034 1044.41 203.473C1045.31 203.136 1046.15 202.799 1046.94 202.462V221.158C1045.93 221.607 1044.75 222.056 1043.4 222.505C1042.17 222.842 1040.71 223.123 1039.02 223.347C1037.34 223.684 1035.37 223.853 1033.13 223.853ZM1090.53 223.853C1080.65 223.853 1073.07 221.158 1067.79 215.768C1062.52 210.379 1059.88 202.575 1059.88 192.357V155.303C1059.88 145.085 1062.52 137.281 1067.79 131.891C1073.07 126.502 1080.65 123.807 1090.53 123.807C1100.3 123.807 1107.82 126.502 1113.1 131.891C1118.38 137.281 1121.02 145.085 1121.02 155.303V180.23H1081.1V192.357C1081.1 197.073 1081.94 200.441 1083.63 202.462C1085.42 204.371 1087.72 205.326 1090.53 205.326C1093.23 205.326 1095.42 204.427 1097.1 202.631C1098.78 200.722 1099.63 197.915 1099.63 194.209V188.651H1118.32C1118.55 189.325 1118.83 190.167 1119.16 191.178C1119.39 192.076 1119.61 193.087 1119.84 194.209C1120.06 195.332 1120.17 196.567 1120.17 197.915C1120.17 201.62 1119.5 205.045 1118.15 208.189C1116.92 211.333 1115.06 214.084 1112.59 216.442C1110.12 218.8 1107.04 220.653 1103.33 222C1099.63 223.235 1095.36 223.853 1090.53 223.853ZM1099.63 162.714V155.303C1099.63 150.587 1098.78 147.274 1097.1 145.365C1095.42 143.344 1093.23 142.334 1090.53 142.334C1087.72 142.334 1085.42 143.344 1083.63 145.365C1081.94 147.274 1081.1 150.587 1081.1 155.303V162.714H1099.63ZM1151.53 223.853C1145.92 223.853 1141.42 222 1138.06 218.295C1134.8 214.589 1133.17 209.031 1133.17 201.62C1133.17 197.69 1133.62 194.209 1134.52 191.178C1135.53 188.034 1137.05 185.171 1139.07 182.588C1141.2 179.893 1143.89 177.254 1147.15 174.672C1150.41 172.089 1154.39 169.338 1159.11 166.419L1171.91 157.998V154.292C1171.91 150.138 1171.12 147.106 1169.55 145.197C1167.98 143.288 1166.02 142.334 1163.66 142.334C1161.41 142.334 1159.45 143.288 1157.76 145.197C1156.08 146.994 1155.24 149.745 1155.24 153.45V160.861H1136.88C1136.54 159.963 1136.2 158.952 1135.87 157.829C1135.64 156.931 1135.42 155.864 1135.19 154.629C1134.97 153.394 1134.86 152.046 1134.86 150.587C1134.86 146.657 1135.53 143.064 1136.88 139.807C1138.22 136.551 1140.13 133.744 1142.6 131.386C1145.19 129.028 1148.22 127.175 1151.7 125.828C1155.29 124.48 1159.28 123.807 1163.66 123.807C1172.98 123.807 1180.22 126.445 1185.38 131.723C1190.66 137 1193.3 144.523 1193.3 154.292V199.768C1193.3 203.473 1193.47 206.561 1193.81 209.031C1194.14 211.389 1194.59 213.242 1195.15 214.589C1195.6 216.273 1196.22 217.509 1197.01 218.295V222H1176.63C1175.84 220.877 1175.22 219.53 1174.77 217.958C1174.21 216.61 1173.76 214.982 1173.43 213.073C1173.09 211.052 1172.92 208.75 1172.92 206.168H1171.91C1170.9 209.536 1169.5 212.512 1167.7 215.094C1166.13 217.34 1163.99 219.361 1161.3 221.158C1158.72 222.954 1155.46 223.853 1151.53 223.853ZM1161.8 204.315C1164.61 204.315 1166.97 203.248 1168.88 201.115C1170.9 198.869 1171.91 195.613 1171.91 191.346V174.84L1162.81 181.241C1161.13 182.363 1159.67 183.43 1158.44 184.441C1157.31 185.339 1156.36 186.35 1155.57 187.472C1154.9 188.595 1154.34 189.886 1153.89 191.346C1153.55 192.694 1153.38 194.266 1153.38 196.062C1153.38 201.564 1156.19 204.315 1161.8 204.315Z" fill="#1F2522"/>
</svg>
